<svg width="24" height="17" viewBox="0 0 24 17" fill="none" xmlns="http://www.w3.org/2000/svg">
<g clip-path="url(#clip0_752_99)">
<path fill-rule="evenodd" clip-rule="evenodd" d="M3.18293 0.022744C2.24996 0.102095 1.69175 0.335361 1.0842 0.899758C0.945569 1.02859 0.907383 1.08518 0.915835 1.14943C0.924186 1.21288 1.1855 1.44068 2.02118 2.11319C3.5294 3.32693 5.49855 4.88774 7.02176 6.07673C8.45381 7.19461 8.76324 7.44656 9.79985 8.33867C10.5634 8.99581 11.0639 9.3837 11.3152 9.51317C11.5407 9.62932 11.8751 9.6245 12.1234 9.50145C12.3865 9.37104 12.8559 9.00897 13.591 8.36914C14.5219 7.55889 15.0163 7.15952 16.9892 5.6244C17.8047 4.98986 21.3004 2.20892 22.0235 1.61944C22.3249 1.37369 22.5157 1.19453 22.5219 1.1512C22.5359 1.05518 22.1122 0.670142 21.7592 0.457936C21.4771 0.288353 21.0701 0.132764 20.727 0.063424C20.5716 0.0319849 18.5401 0.0212708 11.9213 0.0169182C7.18928 0.0138379 3.25701 0.0164495 3.18293 0.022744ZM0.116282 2.82749C0.0627405 2.86639 0.0473852 2.93295 0.0293697 3.20392C0.0173481 3.38495 0.00596634 5.68838 0.00411427 8.3226C0.000814232 13.0077 0.0179206 13.9458 0.108503 14.0543C0.177097 14.1365 0.282867 14.0938 0.569432 13.8682C4.78274 10.5513 5.68598 9.84139 6.59723 9.13105C7.46336 8.45589 7.47635 8.44448 7.47635 8.35819C7.47635 8.26522 7.28616 8.1177 2.15588 4.2317C0.102476 2.67635 0.216361 2.75477 0.116282 2.82749ZM22.7735 3.10649C22.2967 3.45553 18.6201 6.2432 16.9622 7.51255C16.0609 8.20267 15.9597 8.28979 15.9688 8.3679C15.9772 8.43915 16.6261 8.96347 19.5653 11.2738C21.6816 12.9372 23.1809 14.0934 23.2232 14.0946C23.2626 14.0956 23.3117 14.0762 23.3324 14.0515C23.4166 13.9506 23.4371 12.7721 23.4348 8.17026C23.4335 5.56457 23.4219 3.30688 23.4091 3.15316C23.3907 2.93366 23.3719 2.86358 23.3211 2.82672C23.2856 2.80087 23.2481 2.77988 23.2377 2.78004C23.2274 2.78021 23.0185 2.9271 22.7735 3.10649ZM8.38208 9.685C7.17009 10.6403 1.37107 15.1922 1.1204 15.385C1.00012 15.4775 0.909942 15.5728 0.909942 15.6074C0.909942 15.7934 1.59968 16.3095 2.12773 16.5186C2.6818 16.7379 1.91309 16.7204 11.5172 16.7334C17.9559 16.7421 20.3049 16.7351 20.5407 16.7065C21.1407 16.6338 21.6679 16.4132 22.1321 16.0405C22.4496 15.7857 22.5449 15.6712 22.5139 15.5821C22.502 15.5476 22.0647 15.1853 21.5423 14.7769C20.5622 14.0108 19.027 12.8062 17.9658 11.9707C15.5491 10.0678 14.6952 9.40908 14.6456 9.40908C14.6141 9.40908 14.2952 9.65908 13.9368 9.96463C13.5783 10.2702 13.1108 10.659 12.8979 10.8286C12.1031 11.4614 12.0373 11.4989 11.7193 11.4999C11.5519 11.5004 11.4615 11.481 11.3354 11.4174C11.1424 11.3201 10.4212 10.7502 9.49864 9.96581C9.1385 9.65958 8.81873 9.40908 8.78802 9.40908C8.75731 9.40908 8.57463 9.53326 8.38208 9.685Z" fill="#A2D0FF"/>
</g>
<defs>
<clipPath id="clip0_752_99">
<rect width="23.437" height="16.7407" fill="white"/>
</clipPath>
</defs>
</svg>
