<svg width="18" height="19" viewBox="0 0 18 19" fill="none" xmlns="http://www.w3.org/2000/svg">
<g clip-path="url(#clip0_752_62)">
<path d="M3.5 10.0176C3.5 10.3334 3.76426 10.5912 4.07363 10.5912H8.24375V14.7613C8.24375 15.0707 8.50156 15.3349 8.81738 15.3349C9.13321 15.3349 9.39749 15.0707 9.39749 14.7613V10.5912H13.5611C13.8705 10.5912 14.1347 10.3334 14.1347 10.0176C14.1347 9.70176 13.8705 9.4375 13.5611 9.4375H9.39749V5.27383C9.39749 4.96445 9.13321 4.7002 8.81738 4.7002C8.50156 4.7002 8.24375 4.96445 8.24375 5.27383V9.4375H4.07363C3.76426 9.4375 3.5 9.70176 3.5 10.0176Z" fill="#2176FF"/>
</g>
<defs>
<clipPath id="clip0_752_62">
<rect width="10.6347" height="10.6412" fill="white" transform="translate(3.5 4.7002)"/>
</clipPath>
</defs>
</svg>
