<svg width="23" height="19" viewBox="0 0 23 19" fill="none" xmlns="http://www.w3.org/2000/svg">
<g clip-path="url(#clip0_752_95)">
<path fill-rule="evenodd" clip-rule="evenodd" d="M1.49977 7.78331C7.35609 5.23181 11.2612 3.54971 13.2151 2.73699C18.7941 0.41654 19.9533 0.0134521 20.7089 0.000141917C20.875 -0.00278552 21.2467 0.0383995 21.4873 0.233702C21.6906 0.398611 21.7465 0.621381 21.7733 0.777733C21.8 0.934083 21.8334 1.29026 21.8068 1.56857C21.5045 4.74509 20.1964 12.4537 19.5308 16.0114C19.2493 17.5168 18.6948 18.0217 18.158 18.071C16.9913 18.1784 16.1055 17.3001 14.9756 16.5594C13.2075 15.4004 12.2087 14.6789 10.4924 13.5479C8.50907 12.2409 9.79476 11.5226 10.9251 10.3485C11.2209 10.0413 16.361 5.36599 16.4605 4.94187C16.4729 4.88883 16.4844 4.69111 16.367 4.5867C16.2496 4.4823 16.0762 4.51801 15.9511 4.5464C15.7737 4.58665 12.9492 6.45356 7.47747 10.1471C6.67573 10.6977 5.94955 10.9659 5.2989 10.9519C4.58163 10.9364 3.20188 10.5462 2.17617 10.2129C0.918104 9.80396 -0.0817825 9.58767 0.00528527 8.89318C0.0506356 8.53142 0.548798 8.16148 1.49977 7.78331Z" fill="#A2D0FF"/>
</g>
<defs>
<clipPath id="clip0_752_95">
<rect width="22.6" height="18.4148" fill="white"/>
</clipPath>
</defs>
</svg>
