<svg width="16" height="16" viewBox="0 0 16 16" fill="none" xmlns="http://www.w3.org/2000/svg">
<path fill-rule="evenodd" clip-rule="evenodd" d="M4.536 0H11.472C14.184 0 16 1.904 16 4.736V11.2728C16 14.096 14.184 16 11.472 16H4.536C1.824 16 0 14.096 0 11.2728V4.736C0 1.904 1.824 0 4.536 0ZM7.54513 10.3921L11.3451 6.59209C11.6171 6.32009 11.6171 5.88009 11.3451 5.60009C11.0731 5.32809 10.6251 5.32809 10.3531 5.60009L7.04912 8.90409L5.64913 7.50409C5.37712 7.23209 4.92912 7.23209 4.65712 7.50409C4.38513 7.77609 4.38513 8.21609 4.65712 8.49609L6.56112 10.3921C6.69712 10.5281 6.87313 10.5921 7.04912 10.5921C7.23312 10.5921 7.40912 10.5281 7.54513 10.3921Z" fill="#E9F1FF"/>
</svg>
