<svg width="27" height="16" viewBox="0 0 27 16" fill="none" xmlns="http://www.w3.org/2000/svg">
<g clip-path="url(#clip0_752_97)">
<path fill-rule="evenodd" clip-rule="evenodd" d="M3.9334 0H1.00444C0.167407 0 0 0.393743 0 0.829002C0 1.60443 0.992391 5.45346 4.62446 10.5426C7.0445 14.0194 10.4556 15.9037 13.5587 15.9037C15.4216 15.9037 15.6519 15.4845 15.6519 14.7653V12.1377C15.6519 11.3007 15.8287 11.1333 16.418 11.1333C16.8532 11.1333 17.5965 11.3502 19.3362 13.0256C21.3223 15.0131 21.6491 15.9037 22.7661 15.9037H25.6964C26.5334 15.9037 26.9526 15.4845 26.7102 14.6582C26.4464 13.8359 25.4982 12.6413 24.2393 11.2257C23.5562 10.4194 22.533 9.55026 22.2223 9.115C21.7871 8.55653 21.9116 8.30876 22.2223 7.8119C22.2223 7.8119 25.7915 2.78432 26.1638 1.07676C26.3513 0.456687 26.1638 0 25.2772 0H22.3482C21.6036 0 21.2594 0.393743 21.0732 0.829002C21.0732 0.829002 19.584 4.45973 17.4733 6.81817C16.7903 7.50119 16.4796 7.71949 16.1073 7.71949C15.9211 7.71949 15.6519 7.50119 15.6519 6.88111V1.07676C15.6519 0.332136 15.4363 0 14.8149 0H10.2105C9.74579 0 9.46588 0.345529 9.46588 0.673647C9.46588 1.37944 10.5212 1.54283 10.6297 3.52895V7.8427C10.6297 8.78956 10.4596 8.96098 10.086 8.96098C9.09357 8.96098 6.67755 5.31284 5.24454 1.13971C4.96329 0.328119 4.68205 0 3.9334 0Z" fill="#A2D0FF"/>
</g>
<defs>
<clipPath id="clip0_752_97">
<rect width="26.7852" height="15.9037" fill="white"/>
</clipPath>
</defs>
</svg>
