<svg width="230" height="44" viewBox="0 0 230 44" fill="none" xmlns="http://www.w3.org/2000/svg">
<path fill-rule="evenodd" clip-rule="evenodd" d="M36.4015 12.3943C33.6829 12.8912 31.4093 14.0915 29.2858 16.1508C26.1789 19.1638 24.8303 22.4221 24.8303 26.9151C24.8303 30.6773 25.6036 33.2437 27.5369 35.8981C29.457 38.5344 31.7644 40.206 34.9584 41.2748C36.2688 41.7133 36.5124 41.7399 39.2873 41.7478C41.6119 41.7544 42.446 41.6953 43.2698 41.4654C45.8242 40.7526 47.5382 39.8041 49.3046 38.1258C52.517 35.0739 53.8617 32.1232 54.027 27.7633C54.2157 22.7928 53.0082 19.607 49.667 16.2612C46.7368 13.3267 43.6942 12.1227 39.2873 12.1539C38.3889 12.1602 37.0904 12.2684 36.4015 12.3943ZM0 26.9872V41.3437H2.85875H5.71749V34.8118C5.71749 31.0491 5.77924 28.3032 5.86337 28.3349C6.00272 28.3874 7.59054 30.0978 14.7021 37.8556L17.8876 41.3305L21.6133 41.3371C25.2481 41.3435 25.3336 41.3361 25.1204 41.0285C25.0001 40.8552 23.3908 39.0544 21.544 37.0268C12.7458 27.3676 11.435 25.9159 11.435 25.8323C11.435 25.7635 20.6689 15.5836 22.9982 13.0846L23.4211 12.6308H19.8221H16.2228L11.0109 18.2712L5.79917 23.9118L5.75621 18.2712L5.71325 12.6308H2.85662H0V26.9872ZM58.6451 26.9872V41.3437H61.5026H64.3599L64.4022 32.1966L64.4443 23.0496L71.6064 32.1966L78.7684 41.3437H81.2036H83.6388V26.9872V12.6308H80.7813H77.924L77.8817 21.7424L77.8396 30.8539L72.0543 23.4338C68.8724 19.3527 65.6747 15.2542 64.9483 14.3262L63.6275 12.6387L61.1363 12.6348L58.6451 12.6308V26.9872ZM90.282 12.7409C90.222 12.8013 90.173 19.2617 90.173 27.0973V41.3437H93.1121H96.0511L96.0934 32.2491L96.1356 23.1547L103.242 32.2422L110.348 41.3298L112.757 41.3367L115.167 41.3437V26.9833V12.6231L112.349 12.6681L109.531 12.7133L109.449 21.7242L109.367 30.7351L104.222 24.1341C101.392 20.5034 98.2128 16.43 97.1577 15.082L95.2394 12.6308H92.8152C91.4818 12.6308 90.3418 12.6803 90.282 12.7409ZM121.864 26.9861V41.3437H132.482H143.101V38.7034V36.0631H135.423H127.745V32.3503V28.6374H133.789H139.834V26.0796V23.5219H133.789H127.745V20.8008V18.0797L135.219 18.0367L142.692 17.9938V15.3536V12.7133L132.278 12.6709L121.864 12.6283V26.9861ZM148.165 26.9872V41.3437H151.105H154.046L154.052 34.7843L154.059 28.2249L155.286 29.5255C156.44 30.7481 164.137 39.0734 165.562 40.6399L166.216 41.358L169.934 41.3097L173.652 41.2612L170.358 37.6308C166.867 33.7833 165.178 31.929 161.834 28.2699C160.695 27.0242 159.763 25.93 159.763 25.8384C159.763 25.7468 162.391 22.8028 165.603 19.2958C168.815 15.7887 171.468 12.8546 171.498 12.7752C171.528 12.6955 169.98 12.6308 168.043 12.6308H164.533L159.984 17.5379C157.481 20.2367 155.123 22.78 154.744 23.1897L154.053 23.9344L154.049 18.2826L154.046 12.6308H151.105H148.165V26.9872ZM174.175 15.3123L174.22 17.9938L178.672 18.0377L183.123 18.0816V29.7126V41.3437H185.982H188.841V29.7126V18.0816L193.374 18.0377L197.907 17.9938L197.952 15.3123L197.997 12.6308H186.064H174.13L174.175 15.3123ZM38.2255 17.7526C32.1833 18.475 28.8804 25.5937 31.7973 31.6077C32.9213 33.9255 35.0767 35.5948 37.6538 36.1438C39.0908 36.4499 39.8091 36.4501 41.2476 36.1445C44.3566 35.4839 46.8411 33.1075 47.8023 29.875C48.2413 28.3988 48.2076 25.4651 47.7342 23.9206C46.773 20.7849 43.9296 18.2105 41.0026 17.8257C39.5504 17.6348 39.2723 17.6275 38.2255 17.7526Z" fill="#78B6F5"/>
<path d="M223.186 5.09618C222.804 5.33512 223.212 1.0546 223.652 0.225887C223.777 -0.0102518 223.874 -0.060091 223.954 0.070932C224.019 0.177038 224.187 0.219116 224.328 0.16466C224.483 0.104594 224.677 0.199486 224.819 0.405427C224.949 0.592555 225.102 0.698492 225.159 0.641066C225.28 0.518459 226.336 1.28067 226.864 1.87225C227.248 2.30295 227.274 2.5706 227.238 5.78067C227.231 6.41598 227.203 12.5051 227.176 19.312C227.148 26.1189 227.066 31.8617 226.992 32.0735C226.891 32.3678 226.825 32.4067 226.714 32.2386C226.619 32.096 226.603 32.1712 226.667 32.4516C226.736 32.7534 226.618 33.1813 226.278 33.8628C225.734 34.9504 224.54 36.5562 224.275 36.5562C224.181 36.5562 224.22 36.4395 224.361 36.297C224.676 35.978 224.678 35.9511 224.38 35.9511C224.249 35.9511 224.177 36.0084 224.22 36.0783C224.263 36.1485 224.111 36.3402 223.883 36.5047C223.285 36.9356 222.532 37.6085 222.821 37.4536C222.955 37.3813 223.305 37.141 223.597 36.9196C223.888 36.6981 224.127 36.5896 224.127 36.6783C224.127 36.9331 222.338 38.0658 222.136 37.9392C222.031 37.8737 221.999 37.8996 222.06 38.0003C222.182 38.1995 220.793 38.7358 220.602 38.5631C220.536 38.5031 220.534 38.5468 220.599 38.6602C220.677 38.7976 220.601 38.8664 220.37 38.8664C220.18 38.8664 220.07 38.9407 220.125 39.0315C220.181 39.1222 220.056 39.2051 219.849 39.2156C219.642 39.2262 219.163 39.2509 218.786 39.2706C218.409 39.2904 217.998 39.3924 217.873 39.4975C217.747 39.6026 217.596 39.6399 217.537 39.5801C217.478 39.5204 217.43 39.5978 217.43 39.7524C217.43 39.9867 217.487 40.0024 217.774 39.8471C217.963 39.7448 218.434 39.6866 218.82 39.7176C219.206 39.7486 219.494 39.7277 219.459 39.6711C219.425 39.6145 219.746 39.5214 220.173 39.4641C220.6 39.4069 221.232 39.2072 221.577 39.0204C221.922 38.8334 222.31 38.7216 222.439 38.7716C222.569 38.8217 222.632 38.793 222.579 38.7079C222.527 38.6227 222.629 38.4749 222.806 38.3792C223.019 38.264 223.162 38.2612 223.229 38.3709C223.284 38.462 223.417 38.5353 223.524 38.5339C223.644 38.5323 223.627 38.4727 223.48 38.3788C223.285 38.2541 223.329 38.1569 223.721 37.845C223.985 37.6354 224.276 37.4638 224.369 37.4638C224.461 37.4638 224.615 37.3153 224.713 37.1338C224.81 36.9523 224.981 36.8242 225.092 36.8491C225.204 36.874 225.254 36.8267 225.203 36.744C225.153 36.6613 225.213 36.5079 225.339 36.4031C225.512 36.2579 225.582 36.2613 225.633 36.4173C225.677 36.5504 225.739 36.5211 225.811 36.3331C225.876 36.1602 225.856 36.0846 225.759 36.1448C225.516 36.2966 225.565 35.9638 225.817 35.7528C225.937 35.6518 226.096 35.624 226.17 35.6914C226.243 35.7585 226.251 35.7209 226.186 35.6074C226.013 35.3032 226.253 34.9772 226.442 35.2597C226.564 35.4422 226.587 35.4379 226.565 35.2361C226.511 34.724 226.587 34.576 226.905 34.576C227.086 34.576 227.231 34.466 227.231 34.3285C227.231 34.1924 227.167 34.081 227.089 34.081C227.011 34.081 227.103 33.6802 227.293 33.1904C227.484 32.7006 227.686 32.328 227.742 32.3627C227.799 32.3972 227.868 28.1754 227.896 22.981C227.94 14.748 227.976 12.0326 228.07 9.90608C228.081 9.6338 228.05 8.02472 227.999 6.33033C227.924 3.79997 227.948 3.23381 228.133 3.16219C228.257 3.11384 228.398 3.2013 228.447 3.3574C228.496 3.51285 228.738 3.76433 228.986 3.91614C229.3 4.10872 229.439 4.33265 229.446 4.65641C229.452 4.91169 229.512 5.49964 229.581 5.96301C229.68 6.63083 229.652 6.85922 229.449 7.06499C229.166 7.35031 229.094 7.75872 229.355 7.59585C229.448 7.53776 229.518 7.67984 229.518 7.92588C229.518 8.1635 229.46 8.32192 229.39 8.2777C229.319 8.23364 229.262 8.33528 229.262 8.50344C229.262 8.67159 229.311 8.77803 229.372 8.74007C229.433 8.70195 229.433 8.91152 229.372 9.20591C229.311 9.5003 229.292 10.2609 229.33 10.8962C229.442 12.7932 229.399 18.1204 229.267 18.6353C229.196 18.909 229.206 19.0749 229.29 19.0229C229.374 18.9708 229.45 20.3155 229.468 22.1749C229.485 23.9584 229.441 25.2691 229.369 25.0876C229.244 24.7696 229.27 25.9582 229.42 27.3566C229.456 27.697 229.438 27.9755 229.379 27.9755C229.321 27.9757 229.274 28.9226 229.275 30.0795C229.277 32.7153 229.218 33.2559 228.929 33.2559C228.804 33.2559 228.701 33.3717 228.701 33.5131C228.701 33.6546 228.775 33.7245 228.865 33.6684C228.955 33.6123 229.028 33.7194 229.028 33.9062C229.028 34.2792 228.777 34.3671 228.646 34.0397C228.587 33.891 228.56 33.8882 228.551 34.03C228.544 34.1381 228.605 34.2681 228.686 34.3189C229.022 34.5285 228.172 36.5547 227.748 36.5587C227.547 36.5607 227.53 36.596 227.684 36.6943C227.843 36.7965 227.804 36.9587 227.514 37.3932C227.306 37.7042 227.029 37.9605 226.898 37.9625C226.765 37.9646 226.68 38.0904 226.706 38.246C226.764 38.59 225.942 39.5567 225.713 39.414C225.622 39.357 225.595 39.3879 225.652 39.4823C225.71 39.5769 225.634 39.7554 225.483 39.8792C225.265 40.0574 225.235 40.0589 225.338 39.8856C225.445 39.7069 225.409 39.7047 225.141 39.8737C224.961 39.9874 224.851 40.1785 224.896 40.2985C224.974 40.5026 224.748 40.599 224.372 40.5224C224.283 40.5041 224.263 40.5437 224.329 40.6103C224.473 40.7556 223.979 41.164 223.65 41.1714C223.523 41.1744 223.297 41.2876 223.148 41.4232C222.812 41.7308 221.35 42.1879 221.35 41.9856C221.35 41.9037 221.222 41.8427 221.064 41.8498C220.896 41.8574 220.862 41.8968 220.981 41.9455C221.325 42.0858 220.852 42.4263 220.124 42.5633C219.328 42.713 219.25 42.7138 218.737 42.577C218.429 42.495 218.388 42.5102 218.569 42.6386C219.019 42.958 218.548 43.0744 216.885 43.0542C214.084 43.0201 213.502 42.9721 213.617 42.7846C213.679 42.6823 213.645 42.6598 213.532 42.73C213.188 42.9448 209.752 41.7438 209.752 41.4087C209.752 41.3524 209.862 41.3491 209.997 41.4014C210.132 41.4536 210.242 41.4158 210.242 41.3173C210.242 41.2151 210.091 41.1782 209.89 41.2311C209.434 41.3516 208.768 40.9996 207.506 39.9711C206.268 38.9625 205.934 38.5061 206.21 38.2044C206.362 38.0374 206.345 38.0133 206.129 38.0897C205.779 38.2138 205.529 37.8981 205.605 37.4285C205.648 37.1666 205.598 37.0886 205.432 37.1531C205.285 37.2098 205.101 37.0491 204.931 36.7164C204.782 36.4268 204.728 36.232 204.811 36.2833C204.893 36.3346 204.96 36.2727 204.96 36.1457C204.96 36.0184 204.884 35.929 204.792 35.9467C204.699 35.9641 204.413 35.5889 204.155 35.1123C203.898 34.6358 203.767 34.246 203.865 34.246C203.969 34.246 203.931 34.0755 203.775 33.8349C203.629 33.6087 203.443 33.4646 203.363 33.5146C203.283 33.5645 203.218 33.4409 203.218 33.2399C203.218 32.8932 203.238 32.899 203.626 33.3539C203.921 33.7006 204.034 33.7584 204.034 33.5623C204.034 33.4132 203.918 33.246 203.775 33.1907C203.569 33.1105 203.539 32.9477 203.627 32.3892C203.731 31.7358 203.722 31.7107 203.488 32.0183C203.254 32.3267 203.247 32.3082 203.372 31.7369C203.464 31.3204 203.448 31.1 203.321 31.0452C203.204 30.9942 203.24 30.898 203.422 30.782C203.579 30.6815 203.708 30.5242 203.708 30.4326C203.708 30.341 203.634 30.3123 203.543 30.3688C203.374 30.4747 203.314 30.3579 203.148 29.5887C203.066 29.2112 203.096 29.1569 203.333 29.2488C203.583 29.346 203.588 29.3287 203.376 29.0967C203.244 28.9528 203.096 28.8597 203.046 28.8897C202.996 28.9199 202.96 28.3922 202.964 27.7175C202.969 27.0425 202.917 26.4902 202.85 26.4902C202.783 26.4902 202.728 26.4115 202.728 26.3155C202.728 26.2194 202.806 26.1897 202.902 26.2495C203.022 26.3247 203.056 25.8533 203.012 24.7209C202.941 22.9094 203.086 22.0186 203.281 23.0689C203.344 23.4077 203.471 23.6849 203.563 23.6849C203.655 23.6849 203.694 23.5551 203.65 23.3962C203.606 23.2373 203.52 22.931 203.458 22.7155C203.382 22.4488 203.404 22.3595 203.526 22.4361C203.656 22.5168 203.661 22.4264 203.544 22.116C203.333 21.5561 203.339 21.4945 203.585 21.6442C203.721 21.7267 203.714 21.6737 203.563 21.4858C203.368 21.2429 203.373 21.1618 203.604 20.9049C203.751 20.7406 203.871 20.542 203.871 20.4638C203.871 20.3856 203.763 20.4656 203.631 20.6419C203.499 20.818 203.383 20.925 203.373 20.8797C203.27 20.4196 203.303 19.7645 203.438 19.5882C203.552 19.4381 203.551 19.3345 203.433 19.2582C203.338 19.197 203.227 18.5079 203.188 17.7265C203.126 16.5122 203.152 16.3087 203.371 16.3239C203.511 16.3338 203.679 16.416 203.744 16.5067C203.809 16.5975 203.817 16.3747 203.762 16.0117C203.705 15.6397 203.724 15.41 203.804 15.4856C203.882 15.5594 203.989 17.0081 204.042 18.7051C204.095 20.4019 204.216 21.9315 204.311 22.1041C204.479 22.4059 204.492 22.4039 204.678 22.0526C204.785 21.8519 204.841 21.5245 204.802 21.3249C204.746 21.0307 204.728 21.0498 204.71 21.4257C204.698 21.6807 204.631 21.8534 204.561 21.8097C204.49 21.766 204.49 21.0005 204.559 20.1085C204.628 19.2166 204.646 18.1899 204.598 17.8269C204.541 17.3934 204.562 17.2518 204.659 17.4143C204.741 17.5505 204.853 18.7181 204.908 20.0092C205.003 22.2349 204.991 22.3658 204.685 22.5316C204.507 22.6277 204.367 22.8338 204.374 22.9894C204.385 23.2181 204.405 23.2249 204.48 23.0249C204.58 22.7595 204.847 22.5364 205.07 22.5323C205.145 22.531 205.182 22.9764 205.152 23.5221C205.11 24.2655 205.147 24.4943 205.301 24.4348C205.413 24.3912 205.505 24.4274 205.505 24.5151C205.505 24.6031 205.431 24.675 205.341 24.675C205.252 24.675 205.178 24.7493 205.178 24.8401C205.178 24.9308 205.289 25.0051 205.425 25.0051C205.632 25.0051 205.651 24.8295 205.547 23.8912C205.391 22.4889 205.411 15.1894 205.574 13.8665C205.692 12.912 205.738 12.8348 206.866 11.7213L208.037 10.5661L208.073 11.0612C208.172 12.4272 208.184 24.9481 208.086 24.7879C208.024 24.6858 207.922 24.6539 207.859 24.7171C207.796 24.7803 207.833 24.9387 207.94 25.0693C208.072 25.23 208.127 25.998 208.109 27.4514C208.093 28.7765 208.16 29.8316 208.285 30.2118C208.406 30.583 208.453 31.2834 208.404 31.9765C208.36 32.6085 208.375 33.0401 208.439 32.9354C208.649 32.5924 209.005 33.2509 208.978 33.9331C208.964 34.2868 209.02 34.576 209.102 34.576C209.184 34.576 209.203 34.4462 209.144 34.2872C209.051 34.0344 209.072 34.0267 209.313 34.2249C209.465 34.3494 209.589 34.5293 209.589 34.6245C209.589 34.7197 209.71 34.9333 209.859 35.0993C210.021 35.2798 210.054 35.4011 209.941 35.4011C209.837 35.4011 209.752 35.3145 209.752 35.2085C209.752 35.1028 209.709 35.0592 209.657 35.112C209.605 35.1646 209.65 35.3727 209.756 35.5742C209.887 35.8219 209.989 35.878 210.069 35.7473C210.149 35.6156 210.482 35.7848 211.11 36.278C211.618 36.6762 211.986 37.0503 211.927 37.1092C211.869 37.1681 211.917 37.2163 212.033 37.2163C212.15 37.2163 212.385 37.378 212.554 37.5757C212.766 37.8222 212.916 37.8818 213.031 37.7653C213.146 37.6488 213.543 37.6938 214.294 37.909C215.15 38.1544 215.802 38.2118 217.293 38.1732C218.341 38.1461 219.186 38.0575 219.172 37.9763C219.127 37.727 220.176 37.5179 220.525 37.7067C220.716 37.8102 220.877 37.8168 220.934 37.7235C220.986 37.6391 220.862 37.542 220.659 37.508C220.335 37.4539 220.37 37.4064 220.942 37.125C221.301 36.9483 221.62 36.7476 221.65 36.679C221.68 36.6103 221.767 36.593 221.843 36.6404C221.919 36.6879 222.085 36.5775 222.211 36.395C222.338 36.2125 222.49 36.0999 222.549 36.1447C222.609 36.1896 222.624 36.1798 222.583 36.1234C222.466 35.9631 223.329 34.898 223.492 34.9999C223.572 35.0498 223.637 34.9468 223.637 34.7709C223.637 34.5952 223.743 34.363 223.872 34.2547C224.001 34.1466 224.156 33.8306 224.216 33.5526C224.301 33.1633 224.363 33.0994 224.487 33.2752C224.612 33.4523 224.628 33.4382 224.556 33.2131C224.505 33.0536 224.53 32.7448 224.612 32.5272C224.837 31.9303 224.989 30.1206 224.814 30.1206C224.731 30.1206 224.621 30.4734 224.571 30.9044C224.52 31.3354 224.387 31.911 224.276 32.1833C224.035 32.7717 224.011 32.8523 223.985 33.1683C223.973 33.3042 223.864 33.3717 223.736 33.3219C223.61 33.2732 223.459 33.3118 223.4 33.4077C223.335 33.5138 223.393 33.5437 223.547 33.4839C223.947 33.3288 223.851 33.6216 223.133 34.7432C222.627 35.5349 222.43 35.7301 222.319 35.5526C222.186 35.341 222.098 35.4544 222.148 35.7724C222.159 35.8404 222.039 35.8973 221.881 35.8986C221.637 35.9008 221.631 35.9245 221.84 36.0612C222 36.1653 222.015 36.2221 221.884 36.2237C221.773 36.225 221.327 36.4468 220.893 36.7164C220.459 36.9861 219.852 37.2273 219.543 37.2527C219.234 37.278 218.945 37.3468 218.9 37.4056C218.713 37.6504 217.757 37.6221 217.757 37.3716C217.757 37.2755 217.848 37.2511 217.961 37.3174C218.073 37.3838 218.031 37.2841 217.868 37.096C217.647 36.8402 217.622 36.7225 217.771 36.6296C217.898 36.5501 217.928 36.574 217.854 36.6957C217.774 36.8252 217.91 36.8854 218.278 36.8838C218.687 36.8818 218.759 36.8424 218.573 36.7212C218.356 36.579 218.356 36.56 218.573 36.5493C218.708 36.5427 219.09 36.5082 219.422 36.4729C219.898 36.4222 220.007 36.4594 219.936 36.6465C219.887 36.7773 219.769 36.8362 219.674 36.7773C219.579 36.7179 219.551 36.7486 219.61 36.846C219.808 37.1683 220.281 36.9582 220.285 36.5467C220.287 36.3084 220.432 36.0825 220.655 35.9696C220.857 35.8676 220.981 35.7425 220.93 35.6917C220.88 35.6409 220.917 35.5503 221.013 35.4904C221.109 35.4306 221.187 35.4975 221.187 35.6389C221.187 35.7803 221.265 35.8962 221.36 35.8962C221.455 35.8962 221.485 35.8183 221.427 35.7232C221.369 35.6282 221.366 35.4341 221.419 35.292C221.493 35.0988 221.572 35.0793 221.733 35.2148C221.895 35.3506 221.949 35.3364 221.949 35.1582C221.949 35.0275 221.888 34.9589 221.813 35.0056C221.738 35.0523 221.677 35.0118 221.677 34.9158C221.677 34.8197 221.751 34.741 221.84 34.741C221.93 34.741 222.004 34.6239 222.004 34.4806C222.004 34.2962 221.805 34.3922 221.321 34.8107C220.945 35.1354 220.5 35.4011 220.331 35.4011C220.129 35.4011 220.066 35.4716 220.147 35.6074C220.239 35.7622 220.204 35.7602 220.008 35.5995C219.788 35.4194 219.71 35.4376 219.518 35.7145C219.134 36.2676 217.185 36.4692 215.326 36.1483C214.796 36.0569 214.669 35.983 214.836 35.8636C215.002 35.7447 214.965 35.7237 214.694 35.7839C214.491 35.8287 214.326 35.8072 214.326 35.7363C214.326 35.6655 214.154 35.6074 213.944 35.6074C213.735 35.6074 213.246 35.3754 212.858 35.0917C212.47 34.808 212.269 34.576 212.411 34.576C212.553 34.576 212.782 34.6901 212.92 34.8295C213.058 34.9688 213.21 35.0802 213.258 35.077C213.588 35.0547 213.682 35.0874 213.612 35.2008C213.569 35.2721 213.656 35.3412 213.807 35.3544C214.505 35.4156 216.463 35.9924 216.353 36.1042C216.225 36.2334 216.994 36.1721 217.43 36.0181C218.737 35.5569 219.848 35.2089 220.076 35.1892C220.23 35.1762 220.324 35.1343 220.286 35.0963C220.214 35.0234 220.928 34.411 221.085 34.411C221.136 34.411 221.13 34.5346 221.073 34.6856C220.999 34.879 221.029 34.9222 221.173 34.832C221.286 34.7615 221.345 34.5747 221.305 34.417C221.221 34.0947 222.053 33.0313 222.241 33.2189C222.307 33.2846 222.346 33.227 222.327 33.0909C222.259 32.6089 222.333 32.4424 222.576 32.5361C222.71 32.5884 222.821 32.7301 222.821 32.8513C222.821 32.9724 222.893 33.1168 222.982 33.1722C223.072 33.2285 223.103 33.1673 223.053 33.0336C223.003 32.9019 223.04 32.7452 223.136 32.6853C223.232 32.6254 223.311 32.4181 223.311 32.2245C223.311 31.8802 223.306 31.8795 223.077 32.193C222.885 32.4552 222.804 32.4747 222.629 32.3001C222.466 32.1381 222.462 32.058 222.609 31.9658C222.724 31.8938 222.749 31.7551 222.669 31.6244C222.51 31.3645 222.631 30.7806 222.843 30.7806C222.925 30.7806 222.961 30.5023 222.923 30.1618C222.885 29.8216 222.953 29.249 223.075 28.8894C223.197 28.53 223.269 28.2087 223.237 28.1757C223.204 28.1425 223.129 28.2696 223.07 28.4581C223.01 28.6463 222.884 28.8005 222.79 28.8005C222.677 28.8005 222.684 28.7197 222.808 28.5688C222.912 28.4412 222.952 28.1526 222.896 27.9267C222.835 27.683 222.873 27.4671 222.988 27.3952C223.134 27.3043 223.127 27.2381 222.961 27.1297C222.777 27.0099 222.781 26.9576 222.984 26.8227C223.119 26.7335 223.155 26.6592 223.066 26.6577C222.967 26.6562 222.908 25.9896 222.917 24.9638C222.936 22.7021 222.957 22.4934 223.147 22.6123C223.237 22.6684 223.311 22.6333 223.311 22.5344C223.311 22.4354 223.2 22.3117 223.066 22.2595C222.721 22.1259 222.759 21.8604 223.106 21.9709C223.379 22.0574 223.379 22.0505 223.106 21.8237C222.949 21.6929 222.821 21.4922 222.821 21.3775C222.821 21.2156 222.884 21.2191 223.106 21.3929C223.361 21.5924 223.36 21.5785 223.096 21.2645C222.893 21.0232 222.856 20.8767 222.981 20.7988C223.115 20.7155 223.115 20.6262 222.981 20.463C222.846 20.299 222.847 20.1486 222.984 19.8896C223.127 19.6189 223.121 19.4779 222.954 19.2746C222.773 19.0523 222.777 19.0237 222.984 19.0929C223.152 19.1493 223.229 19.4021 223.229 19.9013C223.229 20.4483 223.296 20.6407 223.501 20.6807C223.717 20.7226 223.758 20.6363 223.699 20.2704C223.521 19.1597 223.306 18.5694 223.08 18.5694C222.861 18.5694 222.834 17.1331 223.046 16.7864C223.118 16.6693 223.134 16.4617 223.082 16.3252C223.022 16.1663 223.055 16.1189 223.174 16.1937C223.297 16.2701 223.316 16.2364 223.23 16.096C223.016 15.7462 222.927 12.9038 223.134 13.0331C223.231 13.0937 223.311 13.0647 223.311 12.9686C223.311 12.8726 223.245 12.7939 223.165 12.7939C223.085 12.7939 222.975 12.6787 222.922 12.5378C222.866 12.3909 222.893 12.3247 222.986 12.3825C223.075 12.4379 223.147 12.4109 223.147 12.3222C223.147 12.2338 223.076 12.1366 222.988 12.1062C222.901 12.076 222.872 11.8851 222.925 11.6818C222.98 11.4703 223.1 11.3572 223.207 11.4173C223.316 11.4787 223.308 11.4302 223.188 11.3C222.894 10.98 222.936 10.8137 223.311 10.8137C223.706 10.8137 223.672 10.5117 223.229 10.0901C223 9.87191 222.963 9.75706 223.106 9.70508C223.219 9.66432 223.311 9.55855 223.311 9.4701C223.311 9.38148 223.237 9.35492 223.147 9.41103C222.937 9.54254 222.94 9.30194 223.157 8.72538C223.296 8.3569 223.279 8.22835 223.075 8.07753C222.783 7.86136 222.721 6.68826 223.002 6.68826C223.112 6.68826 223.155 6.88743 223.111 7.19057C223.071 7.4668 223.09 7.72522 223.154 7.76466C223.217 7.80426 223.263 7.47175 223.256 7.02604C223.249 6.58017 223.194 6.24668 223.132 6.28496C223.071 6.32325 222.983 6.20674 222.936 6.02604C222.889 5.84552 222.918 5.73924 222.999 5.79023C223.081 5.84106 223.147 5.81004 223.147 5.72142C223.147 5.63264 223.196 5.43051 223.257 5.27209C223.328 5.08397 223.304 5.02291 223.186 5.09618Z" fill="#78B6F5"/>
<path d="M205.686 9.81317C205.811 9.74057 206.06 9.56696 206.24 9.42752C206.661 9.1003 206.692 9.10327 206.506 9.45409C206.227 9.97967 205.714 10.3615 205.58 10.1425C205.513 10.0338 205.561 9.88578 205.686 9.81317Z" fill="#78B6F5"/>
<path d="M204.233 11.3628C203.937 11.4287 204.004 11.316 204.56 10.8135C204.871 10.5327 205.113 10.3759 205.265 10.3249C205.272 10.3208 205.278 10.3186 205.282 10.3186C205.283 10.3186 205.283 10.3187 205.284 10.3188C205.565 10.2372 205.501 10.5562 204.936 11.1409C204.587 11.5021 204.261 11.7579 204.213 11.7092C204.165 11.6605 204.234 11.5442 204.366 11.4505C204.554 11.3175 204.524 11.2983 204.233 11.3628Z" fill="#78B6F5"/>
<path d="M223.147 10.5661C223.057 10.6222 222.984 10.5894 222.984 10.4934C222.984 10.3973 223.057 10.3186 223.147 10.3186C223.237 10.3186 223.311 10.3513 223.311 10.3914C223.311 10.4315 223.237 10.51 223.147 10.5661Z" fill="#78B6F5"/>
<path d="M203.381 14.609C203.203 14.3312 203.157 11.9196 203.327 11.7488C203.47 11.6039 203.51 11.6084 203.884 11.8107C204.135 11.9463 204.167 12.0485 204.037 12.2949C203.946 12.4666 203.862 13.2247 203.85 13.9793C203.833 15.0196 203.799 15.2118 203.708 14.7741C203.642 14.4564 203.577 14.345 203.563 14.5265C203.543 14.8019 203.513 14.8155 203.381 14.609Z" fill="#78B6F5"/>
<path d="M203.381 16.0942C203.291 16.0942 203.218 15.9457 203.218 15.7642C203.218 15.5826 203.291 15.4341 203.381 15.4341C203.471 15.4341 203.544 15.5826 203.544 15.7642C203.544 15.9457 203.471 16.0942 203.381 16.0942Z" fill="#78B6F5"/>
<path d="M210.355 20.6703C210.314 20.8308 210.277 20.7394 210.274 20.4671C210.271 20.1948 210.304 20.0635 210.349 20.1752C210.394 20.2869 210.397 20.5097 210.355 20.6703Z" fill="#78B6F5"/>
<path d="M209.542 22.4886C209.505 22.7382 209.474 22.534 209.474 22.0348C209.474 21.5356 209.505 21.3313 209.542 21.581C209.58 21.8307 209.58 22.2389 209.542 22.4886Z" fill="#78B6F5"/>
<path d="M209.999 23.562C210.029 23.4028 210.069 22.7897 210.087 22.1998C210.119 21.1351 210.121 21.1326 210.242 21.8698C210.371 22.6566 210.283 23.6399 210.071 23.7722C210.001 23.8158 209.969 23.7212 209.999 23.562Z" fill="#78B6F5"/>
<path d="M209.831 24.6019C209.798 24.4257 209.809 24.2203 209.855 24.1455C210.025 23.8678 210.166 24.1716 210.139 24.7551C210.11 25.3939 209.924 25.7736 209.903 25.2389C209.896 25.0648 209.864 24.7783 209.831 24.6019Z" fill="#78B6F5"/>
<path d="M209.654 30.5417C209.236 30.5531 209.181 30.0681 209.232 26.834C209.266 24.6699 209.412 24.4349 209.442 26.4953C209.466 28.1932 209.55 28.4711 209.859 27.8711C210.043 27.5123 210.047 27.3977 209.881 27.2937C209.715 27.1904 209.714 27.1222 209.876 26.9592C210.118 26.7145 210.148 26.4278 209.915 26.5727C209.826 26.6288 209.752 26.6005 209.752 26.5097C209.752 26.4189 209.822 26.3008 209.908 26.2472C209.994 26.1935 210.024 26.0221 209.975 25.8661C209.91 25.6637 209.927 25.6427 210.034 25.7924C210.262 26.1112 210.291 27.6779 210.072 27.8145C209.846 27.9554 209.829 29.6788 210.052 29.7541C210.138 29.7828 210.17 29.9513 210.124 30.1282C210.078 30.3052 210.173 30.6544 210.333 30.9041C210.588 31.299 210.59 31.3287 210.352 31.1318C210.108 30.9297 210.077 30.9562 210.065 31.3793C210.058 31.6399 210.023 32.1503 209.988 32.5133L209.924 33.1734L210.223 32.7797C210.406 32.5382 210.564 32.4541 210.63 32.562C210.689 32.6589 210.663 32.7846 210.571 32.8417C210.198 33.0752 210.578 34.1382 211.009 34.0643C211.362 34.0039 211.4 34.116 211.156 34.4935C211.008 34.7204 210.963 34.9061 211.055 34.9061C211.147 34.9061 211.222 34.9858 211.222 35.0831C211.222 35.3047 210.721 35.2141 210.699 34.9886C210.69 34.8978 210.572 34.7415 210.436 34.6412C210.294 34.5366 210.233 34.3429 210.292 34.1874C210.414 33.8668 210.273 33.4209 210.05 33.4209C209.964 33.4209 209.939 33.5881 209.994 33.7922C210.084 34.1242 210.075 34.1316 209.908 33.8623C209.806 33.6967 209.762 33.5207 209.811 33.4714C209.86 33.4221 209.783 33.2638 209.641 33.1199C209.469 32.9467 209.444 32.8369 209.567 32.7957C209.669 32.7613 209.752 32.6608 209.752 32.5724C209.752 32.4838 209.684 32.4539 209.6 32.5061C209.441 32.6052 209.258 32.1679 209.188 31.5212C209.159 31.2566 209.215 31.1661 209.369 31.226C209.526 31.2866 209.56 31.2273 209.484 31.0275C209.395 30.7919 209.44 30.7632 209.747 30.8615C210.021 30.9495 210.098 30.9222 210.041 30.7567C209.999 30.6338 209.824 30.5369 209.654 30.5417Z" fill="#78B6F5"/>
<path d="M210.844 31.8018C210.792 31.9333 210.753 31.8942 210.745 31.7019C210.738 31.528 210.777 31.4306 210.831 31.4854C210.885 31.5402 210.891 31.6826 210.844 31.8018Z" fill="#78B6F5"/>
<path d="M211.798 33.7191C211.748 33.7699 211.616 33.7193 211.505 33.6064C211.345 33.4434 211.364 33.4245 211.597 33.514C211.758 33.576 211.849 33.6683 211.798 33.7191Z" fill="#78B6F5"/>
<path d="M212.212 34.411C212.117 34.411 212.039 34.3368 212.039 34.246C212.039 34.1552 212.071 34.081 212.111 34.081C212.151 34.081 212.229 34.1552 212.284 34.246C212.34 34.3368 212.307 34.411 212.212 34.411Z" fill="#78B6F5"/>
<path d="M211.462 34.8485C211.33 34.8995 211.222 34.8592 211.222 34.7587C211.222 34.4597 211.552 34.5493 212.069 34.9886C212.336 35.2155 212.497 35.4011 212.427 35.4011C212.357 35.4011 212.683 35.6005 213.151 35.8442C213.815 36.1897 213.981 36.3531 213.908 36.5868C213.788 36.9699 214.095 36.9782 214.307 36.5975C214.453 36.3339 214.476 36.3325 214.571 36.5803C214.659 36.8117 214.885 36.8412 216.093 36.7791C217.097 36.7277 217.44 36.756 217.266 36.8763C217.056 37.0224 217.061 37.0466 217.307 37.0488C217.465 37.0501 217.593 37.1627 217.593 37.2988C217.593 37.4805 217.387 37.5532 216.817 37.5724C216.39 37.5866 215.931 37.5813 215.796 37.5607C215.661 37.5399 215.404 37.5092 215.224 37.4924C215.045 37.4754 214.795 37.395 214.668 37.3135C214.501 37.2052 214.475 37.2237 214.571 37.3813C214.667 37.5382 214.64 37.5577 214.474 37.4528C214.348 37.3734 214.104 37.2864 213.934 37.2595C213.763 37.2326 213.518 37.082 213.391 36.9247C213.263 36.7674 213.211 36.7412 213.275 36.8665C213.353 37.0188 213.316 37.0665 213.164 37.0108C213.04 36.965 212.959 36.8349 212.985 36.7216C213.014 36.598 212.934 36.5541 212.786 36.6115C212.65 36.6641 212.444 36.616 212.33 36.5044C212.215 36.3929 211.909 36.1361 211.649 35.9339C211.39 35.7316 211.253 35.5661 211.345 35.5661C211.437 35.5661 211.502 35.4363 211.49 35.2773C211.477 35.1169 211.563 35.0087 211.684 35.0339C211.803 35.0589 211.855 35.0064 211.801 34.9173C211.746 34.8283 211.594 34.7973 211.462 34.8485Z" fill="#78B6F5"/>
</svg>
