<svg width="326" height="38" viewBox="0 0 326 38" fill="none" xmlns="http://www.w3.org/2000/svg">
<path fill-rule="evenodd" clip-rule="evenodd" d="M26.8074 0.247457C22.4648 1.4153 19.7802 4.85321 19.7741 9.25402C19.7685 13.4616 22.3158 16.9391 26.2571 18.1043C27.4862 18.4675 30.1888 18.4787 31.345 18.1252C33.7464 17.3911 36.1287 15.3455 37.189 13.1074C39.2786 8.69576 37.3502 3.1956 32.9296 0.959686C31.0769 0.0226323 28.6803 -0.256221 26.8074 0.247457ZM51.3988 6.30695C50.2842 6.74864 49.0817 7.87238 48.4928 9.02251C47.8906 10.1985 47.8137 12.3659 48.3256 13.7333C49.1163 15.8454 51.173 17.3027 53.3674 17.306C54.9471 17.3083 56.0349 16.9023 57.1471 15.8945C60.2049 13.1248 59.5877 8.24937 55.9525 6.45858C54.6991 5.84122 52.7389 5.7758 51.3988 6.30695ZM89.6773 8.94335C88.4266 9.11866 86.1877 9.78444 85.1034 10.3035C83.4883 11.0766 81.8653 12.7284 81.4176 14.0548C80.7279 16.0984 81.1261 18.4127 82.423 19.897C84.1172 21.8362 86.4797 22.6117 93.538 23.5453C97.9181 24.1247 98.7329 24.4153 99.211 25.5676C99.6707 26.6762 98.8578 27.8433 97.211 28.4395C95.9468 28.8971 91.0296 28.9168 89.5877 28.47C87.9044 27.9487 86.7093 27.1036 86.1651 26.0503C85.9017 25.541 85.656 25.0348 85.619 24.9257C85.5729 24.7896 84.7138 24.8819 82.8888 25.2194L80.2261 25.7115L80.3111 26.3541C80.5771 28.362 82.4881 30.7092 84.7785 31.8409C87.2878 33.0808 88.4373 33.2833 92.9957 33.2878C96.6233 33.2916 97.1767 33.2513 98.4666 32.8904C102.964 31.6318 105.071 29.4076 105.094 25.8922C105.102 24.6653 105.028 24.2915 104.605 23.4233C103.291 20.7289 100.528 19.5851 93.0854 18.6555C88.1089 18.0338 86.7177 17.3967 86.7177 15.7393C86.7177 15.0721 87.7857 14.1251 88.9229 13.7839C90.3025 13.37 92.6867 13.2471 94.2517 13.5095C96.9771 13.9664 98.0694 14.5646 98.7184 15.9558C99.0667 16.7024 99.16 16.7815 99.5945 16.6993C99.8621 16.6487 101.036 16.4687 102.204 16.2992C103.428 16.1215 104.362 15.8994 104.41 15.7747C104.562 15.3742 103.771 13.6106 103.03 12.6993C101.502 10.8194 98.7385 9.44143 95.6285 9.00895C94.2874 8.82245 90.8135 8.78414 89.6773 8.94335ZM108.242 9.58185C108.242 9.60661 108.222 14.8319 108.198 21.1934L108.153 32.7597L110.886 32.8096L113.62 32.8595L113.667 23.5045L113.713 14.1496L117.68 23.4546L121.647 32.7597L125.252 32.8087L128.857 32.8575L129.114 32.3569C129.255 32.0814 129.654 31.1648 130.001 30.3199C130.348 29.475 130.955 28.0518 131.349 27.1573C132.303 24.9904 135.151 18.3871 136.096 16.1517L136.852 14.3631L136.899 23.6066L136.945 32.8501H139.724H142.502V21.1903V9.53053L137.994 9.57878L133.484 9.62703L131.096 15.0488C129.782 18.0307 127.957 22.279 127.04 24.4892C126.123 26.6995 125.332 28.508 125.283 28.508C125.233 28.5082 124.638 27.147 123.959 25.4834C122.365 21.5747 118.474 12.3303 117.76 10.7566L117.207 9.53667H112.725C110.26 9.53667 108.242 9.55709 108.242 9.58185ZM153.129 15.4521C151.54 18.7091 149.014 23.8952 147.517 26.9765C146.02 30.0579 144.759 32.6399 144.714 32.7145C144.67 32.7892 146.052 32.8501 147.786 32.8501H150.938L152.089 30.4103L153.24 27.9705H159.95H166.66L167.747 30.3651L168.835 32.7597L171.991 32.809C173.727 32.8362 175.148 32.8197 175.148 32.7725C175.148 32.7254 172.647 27.4983 169.59 21.1569L164.031 9.62703L160.026 9.5786L156.021 9.52999L153.129 15.4521ZM177.48 21.1934V32.8501H180.35H183.22V28.6934V24.5368H185.984H188.749L192.307 28.6927L195.866 32.8486L199.318 32.8493C201.218 32.8497 202.771 32.8052 202.771 32.7503C202.771 32.6955 201.041 30.769 198.925 28.4695C196.81 26.1698 195.113 24.233 195.154 24.1654C195.196 24.0976 195.628 23.989 196.115 23.9239C197.48 23.7414 199.374 22.695 200.415 21.548C201.599 20.2417 202.103 18.9199 202.099 17.1271C202.089 13.1952 199.473 10.4517 195.042 9.72733C194.367 9.61709 190.505 9.53884 185.686 9.53811L177.48 9.53667V21.1934ZM204.565 11.8861V14.2355H209.496H214.427L214.474 23.4976L214.52 32.7597H217.39H220.26L220.307 23.4976L220.353 14.2355H225.553H230.753V11.8861V9.53667H217.659H204.565V11.8861ZM234.879 21.1934V32.8501H237.658H240.436L240.483 23.5272L240.529 14.2046L243.285 20.5905C244.801 24.1028 246.612 28.2996 247.31 29.9169L248.578 32.8571L252.25 32.8085L255.922 32.7597L256.853 30.591C257.365 29.3982 258.656 26.3892 259.722 23.9042C260.788 21.4193 262.125 18.3031 262.692 16.9792C263.258 15.6556 263.771 14.5237 263.83 14.4643C263.889 14.4047 263.937 18.5172 263.937 23.603V32.8501H266.718H269.498V21.1934V9.53667H264.947H260.396L259.751 11.0276C258.175 14.6667 254.903 22.3453 253.801 24.9886C252.186 28.8656 252.29 28.688 251.983 28.0992C251.847 27.8368 250.822 25.4436 249.705 22.7812C248.589 20.1188 246.875 16.051 245.896 13.7418L244.117 9.54318L239.498 9.53992L234.879 9.53667V21.1934ZM273.624 18.4373C273.624 23.3326 273.597 28.4359 273.565 29.7778C273.532 31.1196 273.541 32.3599 273.585 32.5338C273.66 32.8307 274.348 32.8501 284.855 32.8501H296.045V30.5007V28.1512H287.614H279.184V25.6211V23.091H286.09H292.996V20.9223V18.7536H286.09H279.184V16.4945V14.2355H287.614H296.045V11.8861V9.53667H284.834H273.623L273.624 18.4373ZM299.632 21.1901V32.8703L307.749 32.8074C315.462 32.7478 315.937 32.7248 317.3 32.3457C319.741 31.6672 321.241 30.811 322.879 29.1622C325.104 26.9209 326 24.7121 326 21.4645C326 15.817 322.731 11.6629 317.074 10.1238C315.336 9.65089 315.288 9.64817 307.48 9.57914L299.632 9.50992V21.1901ZM159.722 13.7034C159.722 13.8084 158.754 15.9249 157.57 18.407C156.386 20.889 155.417 22.9583 155.417 23.0053C155.417 23.0525 157.467 23.091 159.972 23.091H164.527L163.379 20.6964C162.747 19.3793 161.727 17.2288 161.111 15.9173C160.097 13.7582 159.722 13.1605 159.722 13.7034ZM183.22 17.0367V19.8379H188.563C193.75 19.8379 193.929 19.826 194.696 19.4313C195.788 18.8689 196.224 18.2118 196.224 17.1271C196.224 15.8076 195.305 14.7417 193.879 14.4084C193.492 14.3181 190.935 14.2422 188.197 14.2398L183.22 14.2355V17.0367ZM305.372 21.1934V27.9705H309.384C311.59 27.9705 313.83 27.8894 314.361 27.79C315.841 27.5135 317.807 26.4636 318.546 25.555C319.69 24.1478 319.992 23.2352 319.986 21.1934C319.982 19.5649 319.929 19.2826 319.46 18.3397C318.502 16.4143 316.425 14.9987 313.982 14.6063C313.341 14.5033 311.141 14.4184 309.094 14.4177L305.372 14.4162V21.1934ZM8.95992 14.9374C5.50198 15.8873 3.07992 17.763 1.44835 20.7548C-1.04044 25.3179 -0.27631 30.7249 3.39059 34.4979C5.32674 36.4902 7.50665 37.5771 10.2367 37.9116C15.589 38.5673 20.5285 35.5295 22.5646 30.3301C23.018 29.1716 23.1115 28.6484 23.1804 26.8815C23.2774 24.3871 23.0238 23.1651 21.9518 20.9615C20.6297 18.2436 18.0519 16.104 14.8941 15.1035C13.2503 14.5827 10.5287 14.5064 8.95992 14.9374ZM40.9443 15.4048C38.0576 16.2057 35.9204 18.5924 35.3963 21.6C34.8643 24.6539 36.5509 27.8662 39.4532 29.3267C40.4528 29.8296 40.6697 29.8681 42.5025 29.8681C44.3346 29.8681 44.559 29.8284 45.642 29.3111C48.5145 27.9396 50.3299 24.5398 49.7827 21.5568C49.2076 18.4225 47.0831 16.0818 44.2176 15.425C42.7565 15.0903 42.0924 15.0862 40.9443 15.4048ZM61.0169 15.93C59.5208 16.492 58.3897 17.6291 58.014 18.9488C57.9177 19.2875 57.8388 20.064 57.8388 20.6745C57.8388 25.1366 63.7208 26.8419 66.2205 23.1045C67.7656 20.7945 66.8411 17.4175 64.312 16.1333C63.4826 15.712 61.863 15.6121 61.0169 15.93Z" fill="#78B6F5"/>
</svg>
