<svg width="188" height="36" viewBox="0 0 188 36" fill="none" xmlns="http://www.w3.org/2000/svg">
<path fill-rule="evenodd" clip-rule="evenodd" d="M29.7437 10.1276C27.5223 10.5336 25.6646 11.5144 23.9295 13.197C21.3909 15.6589 20.2888 18.3213 20.2888 21.9926C20.2888 25.0667 20.9207 27.1636 22.5005 29.3326C24.0694 31.4867 25.9548 32.8526 28.5646 33.7259C29.6353 34.0842 29.8343 34.1059 32.1018 34.1123C34.0012 34.1177 34.6827 34.0695 35.3558 33.8817C37.4431 33.2992 38.8435 32.5241 40.2868 31.1529C42.9117 28.6591 44.0105 26.2481 44.1456 22.6856C44.2998 18.6242 43.3131 16.0211 40.583 13.2872C38.1887 10.8894 35.7026 9.90566 32.1018 9.93115C31.3676 9.93627 30.3066 10.0247 29.7437 10.1276ZM0 22.0515V33.7821H2.33589H4.67177V28.445C4.67177 25.3704 4.72223 23.1268 4.79097 23.1527C4.90483 23.1956 6.20225 24.5931 12.0131 30.932L14.616 33.7714L17.6602 33.7767C20.6303 33.782 20.7001 33.7759 20.5259 33.5246C20.4277 33.383 19.1126 31.9116 17.6036 30.2548C10.4146 22.3623 9.34355 21.1761 9.34355 21.1078C9.34355 21.0515 16.8886 12.7336 18.7919 10.6916L19.1375 10.3208H16.1966H13.2557L8.99703 14.9296L4.73851 19.5386L4.70341 14.9296L4.6683 10.3208H2.33415H0V22.0515ZM47.919 22.0515V33.7821H50.2539H52.5886L52.6231 26.3081L52.6576 18.834L58.5097 26.3081L64.3618 33.7821H66.3516H68.3414V22.0515V10.3208H66.0066H63.6719L63.6373 17.7659L63.6029 25.2109L58.8757 19.1479C56.2758 15.8133 53.6629 12.4644 53.0693 11.7061L51.9902 10.3273L49.9546 10.3241L47.919 10.3208V22.0515ZM73.7696 10.4108C73.7206 10.4601 73.6805 15.7389 73.6805 22.1414V33.7821H76.0821H78.4835L78.5181 26.351L78.5525 18.9199L84.3589 26.3453L90.1652 33.7708L92.134 33.7765L94.1029 33.7821V22.0482V10.3145L91.8003 10.3513L89.4978 10.3882L89.4311 17.751L89.3643 25.1139L85.1597 19.7202C82.8472 16.7535 80.2498 13.4251 79.3877 12.3237L77.8203 10.3208H75.8394C74.75 10.3208 73.8184 10.3613 73.7696 10.4108ZM99.5755 22.0505V33.7821H108.252H116.928V31.6248V29.4674H110.654H104.381V26.4336V23.3998H109.319H114.258V21.3099V19.2199H109.319H104.381V16.9965V14.7731L110.487 14.738L116.594 14.703V12.5456V10.3882L108.085 10.3536L99.5755 10.3188V22.0505ZM121.066 22.0515V33.7821H123.468H125.871L125.876 28.4224L125.882 23.0627L126.885 24.1255C127.827 25.1245 134.117 31.9271 135.281 33.2071L135.815 33.7939L138.853 33.7544L141.891 33.7147L139.2 30.7483C136.347 27.6045 134.968 26.0894 132.235 23.0995C131.304 22.0817 130.543 21.1876 130.543 21.1128C130.543 21.0379 132.69 18.6323 135.315 15.7668C137.939 12.9012 140.106 10.5037 140.131 10.4388C140.155 10.3737 138.891 10.3208 137.308 10.3208H134.441L130.723 14.3304C128.678 16.5356 126.752 18.6137 126.441 18.9485L125.877 19.557L125.874 14.9389L125.871 10.3208H123.468H121.066V22.0515ZM142.319 12.5119L142.356 14.703L145.993 14.7388L149.63 14.7747V24.2784V33.7821H151.966H154.302V24.2784V14.7747L158.006 14.7388L161.71 14.703L161.747 12.5119L161.784 10.3208H152.033H142.282L142.319 12.5119ZM31.2341 14.5058C26.297 15.0961 23.5982 20.9128 25.9816 25.8269C26.9001 27.7208 28.6612 29.0848 30.767 29.5333C31.9412 29.7835 32.5281 29.7836 33.7035 29.5339C36.2439 28.9941 38.274 27.0524 39.0594 24.4111C39.418 23.2049 39.3905 20.8078 39.0037 19.5457C38.2183 16.9836 35.895 14.88 33.5033 14.5656C32.3167 14.4096 32.0895 14.4036 31.2341 14.5058Z" fill="#A2D0FF"/>
<path d="M182.366 4.16409C182.053 4.35934 182.387 0.861715 182.746 0.184572C182.848 -0.00837674 182.928 -0.0491005 182.993 0.0579586C183.046 0.144658 183.184 0.17904 183.299 0.134544C183.425 0.0854641 183.584 0.163 183.7 0.331275C183.806 0.484178 183.931 0.570739 183.977 0.523816C184.077 0.423634 184.939 1.04644 185.371 1.52982C185.685 1.88174 185.706 2.10044 185.677 4.72339C185.671 5.24251 185.648 10.2179 185.626 15.7799C185.603 21.3418 185.536 26.0342 185.476 26.2073C185.393 26.4478 185.339 26.4796 185.248 26.3422C185.171 26.2257 185.158 26.2872 185.21 26.5163C185.267 26.7629 185.17 27.1125 184.892 27.6694C184.448 28.5581 183.472 29.8701 183.256 29.8701C183.179 29.8701 183.21 29.7748 183.326 29.6583C183.584 29.3977 183.585 29.3757 183.341 29.3757C183.234 29.3757 183.175 29.4225 183.21 29.4797C183.245 29.537 183.121 29.6936 182.935 29.8281C182.447 30.1801 181.831 30.73 182.067 30.6034C182.177 30.5443 182.463 30.348 182.701 30.1671C182.94 29.9861 183.135 29.8974 183.135 29.9699C183.135 30.1781 181.673 31.1036 181.507 31.0002C181.422 30.9467 181.396 30.9678 181.446 31.0501C181.545 31.2128 180.41 31.6511 180.254 31.51C180.2 31.4609 180.199 31.4967 180.252 31.5893C180.316 31.7016 180.253 31.7578 180.065 31.7578C179.909 31.7578 179.819 31.8185 179.865 31.8927C179.91 31.9668 179.809 32.0345 179.639 32.0431C179.47 32.0518 179.079 32.072 178.771 32.0881C178.463 32.1042 178.127 32.1876 178.024 32.2734C177.922 32.3593 177.798 32.3898 177.75 32.341C177.702 32.2922 177.662 32.3554 177.662 32.4818C177.662 32.6732 177.709 32.686 177.944 32.5592C178.098 32.4756 178.483 32.428 178.798 32.4533C179.114 32.4787 179.349 32.4615 179.321 32.4153C179.292 32.369 179.555 32.293 179.904 32.2462C180.253 32.1994 180.769 32.0363 181.051 31.8836C181.333 31.7309 181.65 31.6395 181.756 31.6803C181.861 31.7213 181.913 31.6978 181.87 31.6283C181.828 31.5587 181.911 31.4379 182.055 31.3597C182.23 31.2656 182.346 31.2633 182.401 31.3529C182.446 31.4274 182.555 31.4872 182.642 31.4861C182.74 31.4848 182.726 31.4361 182.606 31.3594C182.447 31.2575 182.482 31.1781 182.803 30.9232C183.019 30.752 183.257 30.6117 183.332 30.6117C183.407 30.6117 183.534 30.4904 183.613 30.3421C183.693 30.1938 183.832 30.0891 183.923 30.1095C184.015 30.1298 184.055 30.0911 184.014 30.0236C183.973 29.956 184.022 29.8306 184.125 29.745C184.266 29.6264 184.323 29.6292 184.365 29.7566C184.401 29.8654 184.452 29.8414 184.51 29.6878C184.564 29.5465 184.547 29.4848 184.468 29.534C184.27 29.658 184.31 29.3861 184.515 29.2136C184.614 29.1311 184.744 29.1085 184.804 29.1635C184.864 29.2184 184.87 29.1876 184.817 29.0948C184.675 28.8463 184.872 28.5799 185.026 28.8107C185.126 28.9599 185.144 28.9564 185.127 28.7915C185.083 28.3731 185.145 28.2521 185.404 28.2521C185.552 28.2521 185.671 28.1622 185.671 28.0499C185.671 27.9386 185.619 27.8476 185.555 27.8476C185.491 27.8476 185.566 27.5201 185.722 27.1199C185.877 26.7197 186.043 26.4153 186.089 26.4436C186.135 26.4718 186.191 23.0221 186.214 18.7778C186.25 12.0506 186.279 9.83189 186.356 8.09427C186.366 7.87179 186.34 6.55701 186.299 5.17253C186.237 3.10496 186.256 2.64235 186.408 2.58383C186.509 2.54432 186.624 2.61578 186.664 2.74334C186.704 2.87035 186.903 3.07584 187.105 3.19989C187.362 3.35724 187.475 3.54021 187.481 3.80476C187.485 4.01335 187.535 4.49376 187.591 4.87238C187.672 5.41806 187.649 5.60468 187.483 5.77282C187.252 6.00595 187.193 6.33966 187.406 6.20658C187.482 6.15912 187.54 6.27521 187.54 6.47625C187.54 6.67041 187.493 6.79986 187.435 6.76372C187.377 6.72772 187.33 6.81077 187.33 6.94817C187.33 7.08557 187.371 7.17254 187.421 7.14153C187.47 7.11038 187.47 7.28162 187.42 7.52217C187.371 7.76271 187.355 8.38417 187.386 8.90328C187.478 10.4533 187.442 14.8062 187.334 15.2269C187.277 15.4506 187.285 15.5861 187.353 15.5436C187.422 15.501 187.484 16.5998 187.499 18.1191C187.513 19.5764 187.476 20.6474 187.418 20.4991C187.316 20.2393 187.337 21.2105 187.459 22.3531C187.489 22.6313 187.474 22.8589 187.426 22.8589C187.379 22.859 187.34 23.6327 187.341 24.578C187.343 26.7317 187.295 27.1734 187.058 27.1734C186.956 27.1734 186.872 27.2681 186.872 27.3836C186.872 27.4992 186.932 27.5564 187.006 27.5105C187.079 27.4647 187.139 27.5522 187.139 27.7048C187.139 28.0096 186.934 28.0814 186.827 27.8139C186.779 27.6924 186.757 27.6901 186.749 27.806C186.744 27.8943 186.793 28.0005 186.86 28.0421C187.134 28.2133 186.44 29.8689 186.093 29.8722C185.929 29.8738 185.916 29.9026 186.041 29.983C186.171 30.0665 186.139 30.199 185.902 30.554C185.732 30.8082 185.506 31.0176 185.399 31.0192C185.29 31.021 185.221 31.1237 185.242 31.2509C185.289 31.532 184.617 32.3219 184.43 32.2052C184.356 32.1587 184.334 32.1839 184.381 32.2611C184.428 32.3383 184.366 32.4842 184.242 32.5853C184.065 32.7309 184.04 32.7322 184.124 32.5906C184.211 32.4446 184.182 32.4428 183.963 32.5809C183.816 32.6738 183.726 32.8299 183.763 32.9279C183.827 33.0947 183.642 33.1735 183.335 33.1109C183.262 33.096 183.246 33.1283 183.3 33.1828C183.417 33.3014 183.013 33.6352 182.745 33.6412C182.641 33.6436 182.456 33.7361 182.335 33.847C182.06 34.0983 180.866 34.4718 180.866 34.3065C180.866 34.2396 180.761 34.1897 180.632 34.1955C180.495 34.2017 180.467 34.234 180.564 34.2737C180.845 34.3883 180.458 34.6666 179.864 34.7785C179.214 34.9008 179.15 34.9015 178.73 34.7897C178.479 34.7227 178.445 34.7351 178.593 34.84C178.961 35.1011 178.576 35.1961 177.218 35.1797C174.928 35.1518 174.453 35.1125 174.547 34.9594C174.598 34.8758 174.569 34.8574 174.478 34.9147C174.197 35.0903 171.389 34.109 171.389 33.8351C171.389 33.7891 171.479 33.7864 171.589 33.8292C171.699 33.8718 171.789 33.8409 171.789 33.7604C171.789 33.677 171.666 33.6467 171.502 33.69C171.129 33.7885 170.585 33.5009 169.554 32.6604C168.542 31.8363 168.269 31.4634 168.494 31.2169C168.619 31.0804 168.605 31.0607 168.429 31.1232C168.143 31.2246 167.938 30.9666 168 30.5829C168.035 30.3689 167.995 30.3051 167.859 30.3578C167.739 30.4042 167.588 30.2729 167.449 30.0011C167.328 29.7644 167.284 29.6052 167.351 29.6471C167.418 29.6891 167.473 29.6385 167.473 29.5347C167.473 29.4307 167.411 29.3576 167.336 29.3721C167.26 29.3864 167.026 29.0797 166.816 28.6903C166.605 28.3009 166.498 27.9825 166.578 27.9825C166.663 27.9825 166.633 27.8432 166.505 27.6466C166.385 27.4617 166.234 27.344 166.169 27.3849C166.103 27.4256 166.05 27.3246 166.05 27.1604C166.05 26.8771 166.067 26.8818 166.383 27.2535C166.624 27.5368 166.717 27.584 166.717 27.4238C166.717 27.302 166.622 27.1654 166.505 27.1202C166.336 27.0547 166.312 26.9216 166.384 26.4653C166.469 25.9314 166.462 25.9108 166.271 26.1622C166.08 26.4142 166.073 26.3991 166.176 25.9323C166.251 25.592 166.237 25.4118 166.134 25.3671C166.038 25.3254 166.068 25.2468 166.216 25.152C166.345 25.0699 166.45 24.9414 166.45 24.8666C166.45 24.7917 166.39 24.7683 166.316 24.8144C166.177 24.9009 166.129 24.8055 165.992 24.177C165.926 23.8685 165.95 23.8241 166.144 23.8993C166.348 23.9787 166.352 23.9645 166.179 23.7749C166.071 23.6574 165.95 23.5813 165.909 23.6058C165.869 23.6305 165.839 23.1993 165.842 22.648C165.846 22.0965 165.804 21.6452 165.749 21.6452C165.694 21.6452 165.649 21.5809 165.649 21.5024C165.649 21.4239 165.713 21.3997 165.791 21.4485C165.89 21.51 165.918 21.1247 165.882 20.1995C165.824 18.7193 165.942 17.9914 166.102 18.8497C166.153 19.1265 166.257 19.353 166.332 19.353C166.407 19.353 166.439 19.2469 166.403 19.117C166.367 18.9872 166.297 18.7369 166.246 18.5609C166.184 18.343 166.202 18.27 166.302 18.3326C166.408 18.3985 166.412 18.3246 166.316 18.071C166.144 17.6135 166.148 17.5632 166.35 17.6855C166.461 17.7529 166.455 17.7096 166.332 17.5561C166.172 17.3576 166.177 17.2914 166.365 17.0814C166.485 16.9471 166.584 16.7849 166.584 16.721C166.584 16.6571 166.495 16.7225 166.388 16.8665C166.28 17.0104 166.185 17.0979 166.177 17.0608C166.092 16.6849 166.119 16.1496 166.229 16.0056C166.323 15.8829 166.322 15.7982 166.225 15.7359C166.148 15.6859 166.057 15.1228 166.025 14.4844C165.975 13.4921 165.996 13.3259 166.175 13.3383C166.289 13.3464 166.427 13.4135 166.48 13.4877C166.533 13.5618 166.539 13.3798 166.494 13.0832C166.448 12.7793 166.463 12.5916 166.528 12.6533C166.592 12.7136 166.68 13.8973 166.723 15.284C166.766 16.6705 166.865 17.9203 166.943 18.0613C167.08 18.3079 167.091 18.3063 167.243 18.0192C167.33 17.8553 167.376 17.5877 167.344 17.4246C167.298 17.1842 167.284 17.1998 167.269 17.507C167.259 17.7153 167.204 17.8565 167.147 17.8207C167.09 17.785 167.089 17.1595 167.146 16.4307C167.202 15.7019 167.217 14.863 167.178 14.5664C167.131 14.2121 167.148 14.0965 167.227 14.2293C167.294 14.3405 167.386 15.2946 167.431 16.3496C167.508 18.1682 167.499 18.2751 167.248 18.4106C167.103 18.4891 166.989 18.6575 166.995 18.7847C167.003 18.9716 167.02 18.9771 167.081 18.8137C167.163 18.5969 167.381 18.4146 167.563 18.4112C167.625 18.4101 167.655 18.774 167.63 19.2199C167.596 19.8274 167.626 20.0144 167.751 19.9657C167.843 19.9301 167.918 19.9596 167.918 20.0314C167.918 20.1032 167.858 20.162 167.785 20.162C167.711 20.162 167.651 20.2227 167.651 20.2969C167.651 20.371 167.742 20.4317 167.853 20.4317C168.022 20.4317 168.038 20.2882 167.953 19.5216C167.825 18.3757 167.841 12.4113 167.975 11.3303C168.071 10.5504 168.109 10.4873 169.031 9.57746L169.987 8.63361L170.017 9.03812C170.098 10.1543 170.108 20.3852 170.028 20.2542C169.977 20.1708 169.893 20.1448 169.842 20.1964C169.791 20.248 169.821 20.3775 169.908 20.4841C170.016 20.6155 170.061 21.243 170.047 22.4306C170.034 23.5133 170.088 24.3755 170.19 24.6861C170.289 24.9894 170.328 25.5618 170.288 26.1281C170.251 26.6445 170.264 26.9971 170.316 26.9116C170.488 26.6313 170.778 27.1694 170.756 27.7268C170.745 28.0158 170.791 28.2521 170.858 28.2521C170.925 28.2521 170.941 28.146 170.892 28.0162C170.816 27.8096 170.833 27.8033 171.03 27.9652C171.154 28.067 171.255 28.214 171.255 28.2918C171.255 28.3696 171.355 28.544 171.476 28.6797C171.608 28.8272 171.635 28.9263 171.543 28.9263C171.458 28.9263 171.389 28.8555 171.389 28.769C171.389 28.6825 171.354 28.6469 171.311 28.6901C171.269 28.7331 171.305 28.9031 171.392 29.0677C171.499 29.2701 171.582 29.316 171.648 29.2092C171.714 29.1016 171.985 29.2398 172.499 29.6428C172.913 29.9682 173.214 30.2738 173.166 30.322C173.119 30.3701 173.158 30.4095 173.253 30.4095C173.348 30.4095 173.54 30.5416 173.679 30.7032C173.851 30.9046 173.974 30.9533 174.068 30.8581C174.162 30.7629 174.486 30.7997 175.1 30.9755C175.799 31.176 176.332 31.2229 177.551 31.1914C178.407 31.1693 179.098 31.0969 179.086 31.0305C179.049 30.8268 179.906 30.656 180.191 30.8102C180.348 30.8948 180.479 30.9002 180.526 30.824C180.568 30.7549 180.467 30.6756 180.301 30.6479C180.036 30.6036 180.065 30.5648 180.532 30.3349C180.826 30.1905 181.086 30.0266 181.111 29.9705C181.135 29.9144 181.206 29.9002 181.269 29.9389C181.331 29.9778 181.466 29.8875 181.569 29.7384C181.673 29.5893 181.797 29.4973 181.846 29.5339C181.894 29.5705 181.906 29.5626 181.873 29.5165C181.778 29.3855 182.482 28.5152 182.616 28.5985C182.681 28.6392 182.735 28.5551 182.735 28.4114C182.735 28.2678 182.821 28.0781 182.926 27.9896C183.032 27.9013 183.158 27.6431 183.208 27.4159C183.277 27.0978 183.328 27.0456 183.429 27.1892C183.531 27.3339 183.544 27.3224 183.485 27.1385C183.443 27.0081 183.464 26.7559 183.531 26.578C183.715 26.0903 183.839 24.6116 183.696 24.6116C183.628 24.6116 183.539 24.8999 183.497 25.252C183.456 25.6042 183.347 26.0745 183.256 26.297C183.059 26.7778 183.04 26.8436 183.018 27.1018C183.009 27.213 182.92 27.2681 182.815 27.2274C182.712 27.1876 182.589 27.2192 182.541 27.2975C182.488 27.3842 182.535 27.4086 182.661 27.3598C182.987 27.233 182.909 27.4722 182.322 28.3887C181.909 29.0356 181.748 29.1952 181.657 29.0501C181.549 28.8772 181.477 28.9699 181.517 29.2297C181.526 29.2852 181.428 29.3318 181.3 29.3328C181.1 29.3346 181.095 29.354 181.266 29.4656C181.397 29.5507 181.409 29.5971 181.302 29.5985C181.211 29.5995 180.847 29.7807 180.492 30.0011C180.138 30.2214 179.641 30.4185 179.389 30.4393C179.137 30.4599 178.9 30.5161 178.864 30.5641C178.711 30.7642 177.929 30.7411 177.929 30.5364C177.929 30.4579 178.004 30.4379 178.096 30.4921C178.188 30.5464 178.154 30.4649 178.021 30.3112C177.839 30.1022 177.819 30.0061 177.941 29.9301C178.045 29.8652 178.07 29.8847 178.009 29.9841C177.944 30.0899 178.055 30.1391 178.355 30.1378C178.689 30.1362 178.748 30.104 178.597 30.005C178.419 29.8888 178.419 29.8733 178.597 29.8645C178.707 29.8591 179.019 29.8309 179.29 29.8021C179.679 29.7607 179.768 29.791 179.71 29.9439C179.67 30.0508 179.573 30.099 179.496 30.0508C179.419 30.0023 179.396 30.0274 179.444 30.1069C179.605 30.3703 179.992 30.1986 179.995 29.8623C179.997 29.6676 180.116 29.483 180.298 29.3908C180.462 29.3075 180.564 29.2053 180.522 29.1637C180.481 29.1222 180.512 29.0482 180.59 28.9993C180.668 28.9504 180.732 29.0051 180.732 29.1206C180.732 29.2362 180.796 29.3308 180.874 29.3308C180.951 29.3308 180.976 29.2672 180.929 29.1895C180.881 29.1118 180.878 28.9533 180.922 28.8372C180.982 28.6793 181.047 28.6634 181.179 28.7741C181.311 28.885 181.355 28.8734 181.355 28.7278C181.355 28.621 181.305 28.5649 181.244 28.6031C181.183 28.6413 181.133 28.6082 181.133 28.5297C181.133 28.4513 181.193 28.387 181.266 28.387C181.34 28.387 181.4 28.2912 181.4 28.1742C181.4 28.0234 181.237 28.1019 180.842 28.4439C180.535 28.7092 180.171 28.9263 180.033 28.9263C179.868 28.9263 179.817 28.9839 179.882 29.0948C179.958 29.2213 179.929 29.2197 179.769 29.0884C179.589 28.9413 179.526 28.9561 179.369 29.1824C179.055 29.6343 177.462 29.7991 175.943 29.5368C175.51 29.4621 175.406 29.4017 175.543 29.3042C175.679 29.207 175.648 29.1899 175.427 29.2391C175.261 29.2757 175.126 29.2581 175.126 29.2002C175.126 29.1423 174.986 29.0948 174.814 29.0948C174.643 29.0948 174.244 28.9053 173.927 28.6735C173.61 28.4417 173.446 28.2521 173.562 28.2521C173.678 28.2521 173.865 28.3453 173.977 28.4592C174.09 28.573 174.215 28.6641 174.254 28.6615C174.523 28.6433 174.6 28.67 174.543 28.7626C174.508 28.8209 174.579 28.8774 174.702 28.8882C175.273 28.9382 176.873 29.4094 176.782 29.5008C176.677 29.6064 177.306 29.5563 177.662 29.4305C178.73 29.0536 179.638 28.7692 179.825 28.7532C179.95 28.7425 180.027 28.7083 179.996 28.6773C179.937 28.6177 180.521 28.1173 180.649 28.1173C180.69 28.1173 180.686 28.2183 180.639 28.3417C180.579 28.4997 180.603 28.535 180.721 28.4613C180.814 28.4037 180.862 28.251 180.828 28.1221C180.76 27.8588 181.44 26.9899 181.594 27.1432C181.648 27.1969 181.679 27.1498 181.664 27.0386C181.608 26.6448 181.669 26.5087 181.867 26.5853C181.977 26.628 182.067 26.7439 182.067 26.8428C182.067 26.9418 182.127 27.0598 182.199 27.1051C182.273 27.1511 182.298 27.101 182.257 26.9918C182.216 26.8842 182.247 26.7561 182.325 26.7072C182.403 26.6582 182.468 26.4889 182.468 26.3307C182.468 26.0493 182.464 26.0488 182.276 26.305C182.12 26.5192 182.053 26.5351 181.91 26.3925C181.777 26.2601 181.774 26.1947 181.894 26.1193C181.989 26.0605 182.008 25.9471 181.943 25.8403C181.813 25.628 181.912 25.1509 182.086 25.1509C182.152 25.1509 182.182 24.9235 182.151 24.6453C182.119 24.3673 182.175 23.8994 182.275 23.6056C182.374 23.3119 182.434 23.0494 182.407 23.0224C182.38 22.9953 182.319 23.0991 182.271 23.2531C182.222 23.407 182.119 23.5329 182.042 23.5329C181.95 23.5329 181.955 23.467 182.057 23.3436C182.142 23.2394 182.175 23.0035 182.129 22.8189C182.079 22.6198 182.11 22.4434 182.204 22.3846C182.323 22.3103 182.318 22.2563 182.182 22.1677C182.031 22.0698 182.035 22.0271 182.201 21.9169C182.311 21.844 182.341 21.7833 182.267 21.7821C182.186 21.7809 182.139 21.2361 182.146 20.398C182.162 18.5499 182.178 18.3794 182.334 18.4766C182.407 18.5224 182.468 18.4937 182.468 18.4129C182.468 18.332 182.377 18.2309 182.267 18.1883C181.986 18.0791 182.016 17.8621 182.301 17.9525C182.523 18.0231 182.523 18.0175 182.301 17.8322C182.172 17.7253 182.067 17.5613 182.067 17.4676C182.067 17.3353 182.119 17.3382 182.301 17.4801C182.509 17.6432 182.508 17.6318 182.292 17.3752C182.126 17.1781 182.096 17.0584 182.198 16.9947C182.308 16.9266 182.307 16.8537 182.198 16.7203C182.088 16.5863 182.088 16.4635 182.201 16.2518C182.318 16.0307 182.312 15.9154 182.176 15.7493C182.028 15.5676 182.032 15.5443 182.201 15.6008C182.338 15.6469 182.401 15.8535 182.401 16.2614C182.401 16.7083 182.456 16.8656 182.623 16.8982C182.799 16.9324 182.833 16.8619 182.785 16.563C182.639 15.6554 182.464 15.1731 182.279 15.1731C182.1 15.1731 182.078 13.9995 182.251 13.7162C182.31 13.6205 182.323 13.4509 182.281 13.3394C182.231 13.2095 182.259 13.1708 182.356 13.2319C182.456 13.2943 182.472 13.2668 182.402 13.1521C182.227 12.8662 182.154 10.5437 182.323 10.6494C182.403 10.6989 182.468 10.6752 182.468 10.5967C182.468 10.5182 182.414 10.4539 182.348 10.4539C182.283 10.4539 182.193 10.3598 182.15 10.2446C182.104 10.1246 182.127 10.0706 182.202 10.1177C182.275 10.163 182.334 10.1409 182.334 10.0685C182.334 9.99626 182.275 9.91684 182.204 9.89203C182.133 9.86735 182.109 9.71135 182.152 9.54523C182.197 9.37237 182.296 9.28001 182.383 9.32909C182.472 9.37925 182.465 9.33961 182.367 9.23323C182.127 8.97178 182.161 8.83586 182.468 8.83586C182.79 8.83586 182.763 8.58911 182.401 8.24461C182.214 8.06636 182.184 7.97251 182.301 7.93004C182.393 7.89673 182.468 7.8103 182.468 7.73803C182.468 7.66563 182.407 7.64392 182.334 7.68977C182.162 7.79723 182.165 7.60064 182.342 7.12952C182.455 6.82843 182.442 6.7234 182.275 6.60016C182.036 6.42353 181.986 5.46499 182.216 5.46499C182.305 5.46499 182.341 5.62773 182.305 5.87542C182.272 6.10114 182.287 6.31229 182.339 6.34452C182.391 6.37688 182.429 6.10518 182.423 5.74099C182.418 5.37667 182.372 5.10417 182.322 5.13545C182.272 5.16673 182.2 5.07154 182.162 4.92389C182.123 4.77638 182.147 4.68955 182.213 4.73121C182.28 4.77274 182.334 4.74739 182.334 4.67498C182.334 4.60244 182.374 4.43728 182.424 4.30783C182.482 4.15412 182.462 4.10423 182.366 4.16409Z" fill="#A2D0FF"/>
<path d="M168.066 8.01836C168.168 7.95903 168.372 7.81718 168.519 7.70325C168.863 7.43587 168.888 7.4383 168.736 7.72496C168.509 8.1544 168.089 8.46641 167.98 8.28749C167.925 8.19863 167.964 8.07769 168.066 8.01836Z" fill="#A2D0FF"/>
<path d="M166.879 9.2846C166.637 9.3384 166.692 9.24631 167.146 8.83573C167.4 8.6063 167.598 8.47814 167.722 8.43647C167.728 8.43311 167.733 8.43136 167.736 8.43136C167.737 8.43136 167.737 8.43141 167.738 8.4315C167.968 8.36481 167.915 8.62547 167.453 9.10324C167.168 9.39839 166.902 9.60739 166.863 9.56761C166.824 9.52784 166.88 9.43278 166.988 9.35619C167.141 9.24752 167.117 9.23188 166.879 9.2846Z" fill="#A2D0FF"/>
<path d="M182.334 8.63361C182.261 8.67946 182.201 8.65263 182.201 8.57415C182.201 8.49568 182.261 8.43136 182.334 8.43136C182.407 8.43136 182.468 8.45805 182.468 8.49082C182.468 8.52358 182.407 8.58777 182.334 8.63361Z" fill="#A2D0FF"/>
<path d="M166.183 11.9371C166.038 11.71 166 9.73953 166.139 9.59997C166.256 9.48159 166.288 9.48523 166.594 9.65054C166.799 9.76137 166.825 9.84484 166.719 10.0461C166.644 10.1865 166.576 10.8059 166.566 11.4225C166.553 12.2725 166.525 12.4296 166.45 12.0719C166.396 11.8124 166.343 11.7213 166.332 11.8697C166.316 12.0947 166.291 12.1058 166.183 11.9371Z" fill="#A2D0FF"/>
<path d="M166.183 13.1506C166.11 13.1506 166.05 13.0292 166.05 12.8809C166.05 12.7326 166.11 12.6112 166.183 12.6112C166.257 12.6112 166.317 12.7326 166.317 12.8809C166.317 13.0292 166.257 13.1506 166.183 13.1506Z" fill="#A2D0FF"/>
<path d="M171.882 16.8897C171.848 17.0209 171.818 16.9462 171.815 16.7237C171.813 16.5012 171.84 16.3939 171.877 16.4852C171.913 16.5765 171.916 16.7585 171.882 16.8897Z" fill="#A2D0FF"/>
<path d="M171.217 18.3755C171.187 18.5795 171.162 18.4125 171.162 18.0047C171.162 17.5968 171.187 17.4299 171.217 17.6339C171.248 17.8379 171.248 18.1714 171.217 18.3755Z" fill="#A2D0FF"/>
<path d="M171.59 19.2526C171.615 19.1224 171.647 18.6215 171.662 18.1395C171.689 17.2695 171.69 17.2675 171.789 17.8698C171.895 18.5127 171.823 19.3162 171.649 19.4243C171.592 19.4599 171.566 19.3827 171.59 19.2526Z" fill="#A2D0FF"/>
<path d="M171.453 20.1023C171.427 19.9583 171.435 19.7904 171.473 19.7293C171.612 19.5024 171.727 19.7506 171.705 20.2274C171.681 20.7494 171.529 21.0596 171.512 20.6227C171.506 20.4805 171.48 20.2464 171.453 20.1023Z" fill="#A2D0FF"/>
<path d="M171.309 24.9557C170.967 24.965 170.922 24.5687 170.964 21.9261C170.992 20.1578 171.111 19.9658 171.135 21.6494C171.155 23.0367 171.224 23.2638 171.476 22.7735C171.627 22.4804 171.63 22.3867 171.494 22.3017C171.359 22.2173 171.358 22.1616 171.49 22.0284C171.688 21.8285 171.712 21.5942 171.522 21.7126C171.449 21.7585 171.389 21.7353 171.389 21.6611C171.389 21.587 171.446 21.4904 171.516 21.4466C171.587 21.4028 171.611 21.2627 171.571 21.1353C171.518 20.9698 171.532 20.9527 171.619 21.075C171.805 21.3355 171.829 22.6156 171.65 22.7273C171.466 22.8424 171.452 24.2506 171.634 24.3121C171.704 24.3356 171.73 24.4732 171.693 24.6178C171.655 24.7625 171.732 25.0478 171.864 25.2518C172.072 25.5744 172.074 25.5987 171.879 25.4379C171.68 25.2727 171.655 25.2944 171.645 25.6401C171.639 25.853 171.61 26.2701 171.581 26.5667L171.529 27.106L171.773 26.7843C171.923 26.587 172.052 26.5183 172.106 26.6065C172.154 26.6856 172.133 26.7884 172.058 26.835C171.753 27.0258 172.064 27.8944 172.416 27.834C172.704 27.7847 172.736 27.8762 172.536 28.1847C172.415 28.3701 172.378 28.5218 172.454 28.5218C172.529 28.5218 172.59 28.5869 172.59 28.6665C172.59 28.8476 172.18 28.7735 172.162 28.5892C172.155 28.5151 172.059 28.3874 171.948 28.3054C171.832 28.2199 171.782 28.0616 171.83 27.9346C171.93 27.6726 171.815 27.3083 171.633 27.3083C171.562 27.3083 171.541 27.4449 171.586 27.6117C171.66 27.8829 171.652 27.889 171.516 27.669C171.433 27.5336 171.397 27.3899 171.437 27.3495C171.477 27.3092 171.414 27.1799 171.298 27.0623C171.158 26.9208 171.137 26.8311 171.237 26.7974C171.321 26.7694 171.389 26.6872 171.389 26.615C171.389 26.5426 171.333 26.5182 171.265 26.5608C171.135 26.6418 170.985 26.2845 170.928 25.7561C170.905 25.5398 170.95 25.4659 171.076 25.5148C171.204 25.5643 171.232 25.5159 171.17 25.3526C171.097 25.1601 171.134 25.1366 171.384 25.217C171.609 25.2889 171.671 25.2666 171.625 25.1314C171.59 25.0309 171.448 24.9518 171.309 24.9557Z" fill="#A2D0FF"/>
<path d="M172.281 25.9853C172.238 26.0927 172.207 26.0608 172.2 25.9037C172.194 25.7616 172.226 25.682 172.27 25.7268C172.315 25.7716 172.319 25.8879 172.281 25.9853Z" fill="#A2D0FF"/>
<path d="M173.061 27.5519C173.02 27.5935 172.912 27.5521 172.821 27.4598C172.691 27.3266 172.706 27.3112 172.896 27.3843C173.028 27.435 173.102 27.5104 173.061 27.5519Z" fill="#A2D0FF"/>
<path d="M173.399 28.1173C173.321 28.1173 173.257 28.0566 173.257 27.9825C173.257 27.9083 173.284 27.8476 173.316 27.8476C173.349 27.8476 173.412 27.9083 173.458 27.9825C173.503 28.0566 173.477 28.1173 173.399 28.1173Z" fill="#A2D0FF"/>
<path d="M172.786 28.4747C172.678 28.5164 172.59 28.4835 172.59 28.4014C172.59 28.1571 172.86 28.2303 173.282 28.5892C173.5 28.7746 173.632 28.9263 173.575 28.9263C173.517 28.9263 173.784 29.0892 174.166 29.2883C174.709 29.5707 174.845 29.7042 174.785 29.8951C174.686 30.2082 174.938 30.2149 175.111 29.9039C175.23 29.6885 175.249 29.6873 175.326 29.8898C175.399 30.0789 175.583 30.103 176.57 30.0523C177.39 30.0102 177.67 30.0334 177.529 30.1317C177.357 30.2511 177.361 30.2709 177.562 30.2726C177.691 30.2737 177.796 30.3657 177.796 30.4769C177.796 30.6254 177.627 30.6848 177.162 30.7005C176.813 30.7121 176.438 30.7078 176.328 30.6909C176.217 30.6739 176.007 30.6488 175.86 30.6351C175.714 30.6212 175.509 30.5555 175.406 30.4889C175.269 30.4005 175.248 30.4156 175.326 30.5443C175.405 30.6726 175.383 30.6885 175.247 30.6027C175.144 30.5379 174.945 30.4668 174.806 30.4448C174.666 30.4228 174.466 30.2997 174.362 30.1712C174.258 30.0427 174.215 30.0213 174.267 30.1236C174.331 30.2481 174.301 30.2871 174.177 30.2416C174.075 30.2041 174.009 30.0979 174.03 30.0052C174.054 29.9043 173.989 29.8684 173.868 29.9153C173.756 29.9583 173.589 29.919 173.495 29.8278C173.401 29.7367 173.151 29.5269 172.939 29.3617C172.727 29.1964 172.616 29.0611 172.691 29.0611C172.766 29.0611 172.819 28.955 172.809 28.8252C172.799 28.6941 172.869 28.6057 172.967 28.6263C173.064 28.6467 173.107 28.6038 173.063 28.531C173.018 28.4583 172.894 28.4329 172.786 28.4747Z" fill="#A2D0FF"/>
</svg>
