<svg width="114" height="47" viewBox="0 0 114 47" fill="none" xmlns="http://www.w3.org/2000/svg">
<path fill-rule="evenodd" clip-rule="evenodd" d="M0 7.42677V14.8418H7.54272H15.0854V7.43125V0.0207005L7.54272 0.0160857L0 0.0116075V7.42677ZM27.6797 7.4209V14.8418H35.3644H43.0493L42.9733 7.46272L42.8975 0.0836517L35.2886 0.0418237L27.6797 0V7.4209ZM54.6674 6.2271V12.044H55.4286H56.1898V9.80584V7.56764L57.4008 7.57072L58.6118 7.57379L59.6556 9.00457C60.2297 9.79143 60.9459 10.7965 61.2472 11.238L61.795 12.0407L62.8098 12.0424L63.8247 12.044L62.938 10.89C61.4234 8.91853 60.3418 7.46048 60.3418 7.39026C60.3418 7.35319 60.5152 7.28772 60.7272 7.24492C60.9392 7.20211 61.4193 6.95815 61.794 6.70285C62.7545 6.0486 63.1727 5.18591 63.1668 3.87195C63.16 2.41991 62.578 1.4456 61.3106 0.764626C60.8891 0.538288 60.4259 0.498277 57.7468 0.45729L54.6674 0.410151V6.2271ZM65.1542 6.23871L65.1165 12.0442L68.8879 12.044H72.6592V11.4145V10.7851H69.6837H66.7081V8.54685V6.30865H69.3377H71.9673V5.67916V5.04966H69.3377H66.7081V3.37101V1.69236H69.6837H72.6592V1.06287V0.433371H68.9255H65.1917L65.1542 6.23871ZM56.1898 4.01421V6.33607L58.0236 6.28655C60.2587 6.22626 60.7924 6.02412 61.276 5.05498C61.8927 3.81893 61.5655 2.55756 60.4854 2.00711C59.9375 1.72775 59.6609 1.69236 58.0289 1.69236H56.1898V4.01421ZM54.6674 22.8095V28.271H55.4286H56.1898V24.0044C56.1898 21.6578 56.2365 19.7408 56.2936 19.7444C56.3508 19.7481 57.1222 20.9283 58.008 22.3673C59.3567 24.5584 59.6712 24.9836 59.9436 24.9836C60.29 24.9836 60.2297 25.0669 62.487 21.4722L63.5941 19.7089L63.6307 23.99L63.6674 28.271H64.4957H65.3241V22.8154V17.3598H64.2964H63.2685L61.6928 19.9039C60.8263 21.3032 60.0588 22.4653 59.9873 22.4862C59.9158 22.5071 59.1661 21.378 58.3212 19.9769L56.7849 17.4297L55.7262 17.3889L54.6674 17.348V22.8095ZM67.4632 22.8154L67.4693 28.2709L71.2483 28.271H75.0272L74.985 27.6321L74.9428 26.9934L72.0365 26.9677L69.1301 26.9421L69.0915 25.0886L69.0529 23.2351H71.6864H74.32V22.5356V21.8362H71.6905H69.0609V20.2974V18.7586H72.0389H75.0171L74.9926 18.0592L74.9682 17.3598H71.2126H67.4571L67.4632 22.8154ZM76.6728 22.8154V28.271H79.2264C82.093 28.271 82.894 28.1487 84.045 27.5355C85.0115 27.0207 85.7158 26.2619 86.2036 25.2103C86.5314 24.5037 86.5683 24.2611 86.5683 22.8154C86.5683 21.3418 86.5362 21.1405 86.1861 20.4198C85.7602 19.5434 84.7589 18.5178 83.8935 18.0715C82.7778 17.4963 81.8785 17.3598 79.2041 17.3598H76.6728V22.8154ZM78.3336 22.8017V26.8721H79.9692C82.1548 26.8721 82.853 26.6594 83.7938 25.7064C84.6681 24.8211 84.8916 24.1363 84.8138 22.5809C84.7514 21.331 84.4775 20.6415 83.7523 19.9084C82.9037 19.0507 82.2413 18.8429 80.1674 18.7836L78.3336 18.7312V22.8017ZM0 39.3921V46.5963H7.54272H15.0854V39.3921V32.1879H7.54272H0V39.3921ZM27.6797 39.3921V46.5963H35.3262H42.9728L42.975 39.3921L42.977 32.1879H35.3284H27.6797V39.3921ZM56.3156 34.4948C55.4605 34.7727 54.4387 35.6975 54.2574 36.3576C53.6632 38.5195 54.7312 39.7426 57.7703 40.3812C60.0282 40.8556 60.757 41.3462 60.757 42.3915C60.757 43.5497 59.691 44.1572 57.8477 44.0494C56.8979 43.9937 56.6489 43.9239 56.1634 43.5765C55.8499 43.3524 55.5254 43.0431 55.4419 42.8893C55.3585 42.7354 55.2781 42.5867 55.2631 42.5587C55.2482 42.5309 54.9213 42.5843 54.5365 42.6776C53.6023 42.9041 53.6088 43.2096 54.5679 44.1485C55.5103 45.0711 56.1606 45.2676 58.2658 45.2664C59.6419 45.2655 59.9559 45.2206 60.5849 44.934C62.0582 44.2628 62.6952 42.9256 62.2733 41.3898C61.9425 40.1859 60.8612 39.5016 58.5563 39.0369C56.3908 38.6003 55.7746 38.2023 55.7746 37.2396C55.7746 36.2629 56.3861 35.7165 57.6232 35.5875C58.9178 35.4524 59.9981 35.904 60.6662 36.8591C60.8461 37.1164 60.8703 37.1168 61.5007 36.8734C61.8578 36.7356 62.1794 36.5746 62.2156 36.5156C62.3729 36.2582 61.346 35.1784 60.5717 34.7872C59.8676 34.4317 59.5822 34.3732 58.3573 34.3336C57.3863 34.3023 56.7543 34.3522 56.3156 34.4948ZM99.6778 34.4347C98.9226 34.5853 97.8378 35.181 97.2262 35.7813C95.5786 37.3987 95.1659 40.2591 96.2574 42.497C96.8169 43.6442 97.5303 44.3498 98.6782 44.8913C99.3634 45.2145 99.612 45.2513 101.169 45.2588C102.808 45.2669 102.941 45.2462 103.683 44.8659C104.389 44.5045 105.602 43.4551 105.451 43.3368C105.418 43.3107 105.152 43.1516 104.861 42.9828L104.331 42.6761L103.784 43.1496C102.717 44.073 100.738 44.3419 99.4731 43.7354C98.7616 43.3941 97.9944 42.593 97.667 41.8499C97.2642 40.9349 97.1905 39.2927 97.5066 38.2767C97.8257 37.2515 98.7315 36.2141 99.6003 35.8788C100.964 35.3523 102.739 35.6964 103.748 36.6826L104.181 37.1063L104.825 36.7756L105.468 36.4451L104.964 35.8496C103.893 34.5847 101.773 34.0173 99.6778 34.4347ZM63.9401 39.8817V45.1974H67.6077H71.2753V44.5679V43.9384L68.4035 43.9383H65.5317V42.1547V40.3713L68.0438 40.3332L70.5559 40.2952L70.605 39.6717L70.654 39.0482L68.0929 39.0103L65.5317 38.9724L65.4926 37.3987L65.4534 35.8249H68.3643H71.2753V35.1954V34.5659H67.6077H63.9401V39.8817ZM73.0744 39.8817V45.1974H73.8356H74.5968V43.239V41.2806H75.7595H76.9222L78.2287 43.0641C78.9474 44.0452 79.6332 44.9295 79.7527 45.0295C79.8938 45.1475 80.2731 45.1967 80.8322 45.1694L81.6943 45.1275L80.1523 43.142C79.3043 42.0499 78.6104 41.1215 78.6104 41.0787C78.6104 41.0358 78.759 41.0008 78.9408 41.0008C79.5159 41.0008 80.5708 40.1603 80.9574 39.3942C81.2366 38.8404 81.3056 38.5091 81.2915 37.7855C81.27 36.6837 81 36.0094 80.3488 35.4316C79.5364 34.7106 78.7679 34.5659 75.748 34.5659H73.0744V39.8817ZM82.0843 35.5801C82.8165 37.4581 85.2927 44.0029 85.4981 44.6029L85.7015 45.1974H86.5726H87.4437L87.823 44.1832C89.0753 40.835 91.3824 34.7596 91.4352 34.6709C91.4697 34.6131 91.1046 34.5659 90.6242 34.5659H89.7505L89.4246 35.5102C88.8086 37.2943 86.5954 43.243 86.5614 43.2061C86.524 43.1655 84.8767 38.647 83.9851 36.1397L83.4256 34.5659H82.5572H81.6889L82.0843 35.5801ZM92.5886 39.8817V45.1974H93.419H94.2494V39.8817V34.5659H93.419H92.5886V39.8817ZM106.705 39.8817V45.1974H110.304H113.902V44.5679V43.9384H111.065H108.228V42.1199V40.3013H110.788H113.348V39.6718V39.0424H110.788H108.228V37.4336V35.8249H111.065H113.902V35.1954V34.5659H110.304H106.705V39.8817ZM74.5968 37.9125V40.0216H76.1974C78.0901 40.0216 78.9353 39.7502 79.3741 39.0016C79.7408 38.3762 79.7307 37.2171 79.3541 36.7027C78.858 36.0253 78.4255 35.8989 76.4306 35.8491L74.5968 35.8032V37.9125Z" fill="#A2D0FF"/>
</svg>
