<svg width="113" height="41" viewBox="0 0 113 41" fill="none" xmlns="http://www.w3.org/2000/svg">
<path fill-rule="evenodd" clip-rule="evenodd" d="M13.6191 0.116851C10.1536 0.641228 7.0742 2.11969 4.76191 4.3693C2.35039 6.71542 0.938097 9.20679 0.22 12.3816L0 13.3542V22.3393V31.3243L0.217524 31.9365C0.73762 33.3997 1.72267 34.3321 3.22248 34.7808C3.95982 35.0014 17.2994 35.0592 19.1657 34.8499C20.4969 34.7007 22.2374 34.3126 23.3989 33.9059C26.917 32.6745 30.0875 30.2608 32.1665 27.231C33.5942 25.1507 34.5222 22.672 34.8563 20.0463C35.0767 18.3152 35.0679 5.53207 34.8457 4.57262C34.4356 2.80228 33.3223 1.41033 31.7143 0.657624C30.2858 -0.0110693 30.7596 0.021442 22.1905 0.00337923C15.9844 -0.00968155 14.3086 0.0124575 13.6191 0.116851ZM36.098 6.74478C36.0724 6.8137 36.0364 10.038 36.0181 13.91C35.9815 21.6308 35.9957 21.4188 35.3735 23.494C34.2361 27.2869 31.74 30.5629 28.2824 32.8006C26.3129 34.0753 23.8177 35.0653 21.381 35.539C19.2008 35.9628 18.3293 36.0015 10.9686 36.0019L4.12772 36.0021L4.19458 36.6274C4.32182 37.8168 4.83363 38.7112 5.77163 39.3828C6.86687 40.167 6.33173 40.1242 15.0476 40.1242C21.9922 40.1242 22.8712 40.1076 23.8572 39.9582C28.2638 39.2904 31.8269 37.4793 34.9615 34.314C38.4244 30.8172 40.3884 26.5124 40.7206 21.6909C40.7823 20.7974 40.8094 18.0017 40.789 14.651C40.7505 8.29216 40.7758 8.50493 39.9523 7.62856C39.2518 6.88308 38.7595 6.7019 37.3104 6.65623C36.3908 6.62733 36.1346 6.64604 36.098 6.74478ZM65.7542 7.19496C64.5921 7.3315 63.1611 8.03419 62.4198 8.8321C61.4471 9.87937 61.0072 10.8733 60.9307 12.1967C60.8262 14.0035 61.3368 15.4045 62.5153 16.5446C63.6347 17.6278 64.9891 18.1606 66.6192 18.1593C68.3405 18.1579 69.6728 17.6475 70.8202 16.55C72.3319 15.1041 72.8402 12.6565 72.0535 10.6113C71.1565 8.27966 68.5505 6.86631 65.7542 7.19496ZM96.524 7.19468C93.6444 7.53603 91.5785 9.85242 91.5731 12.7462C91.5682 15.3343 93.2575 17.424 95.8573 18.0457C96.698 18.2467 98.4407 18.1938 99.1907 17.9445C100.121 17.6353 100.789 17.2301 101.481 16.5556C102.58 15.4847 103.094 14.29 103.117 12.7521C103.143 11.097 102.651 9.89688 101.488 8.77467C100.178 7.51102 98.4625 6.96487 96.524 7.19468ZM53.5936 7.40069C53.4749 7.45646 53.2965 7.63079 53.1971 7.78816C53.0671 7.99427 49.9025 15.0615 49.4105 16.2444C49.385 16.3056 49.1644 16.3836 48.9202 16.4175C48.1878 16.5195 47.8178 17.027 48.0475 17.6147C48.2528 18.1398 47.9738 18.1185 54.6821 18.1217L60.8879 18.1246L61.1439 17.8287C61.3513 17.589 61.3896 17.4711 61.3458 17.2084C61.2573 16.6772 60.9247 16.4357 60.1953 16.3725L59.569 16.3183L58.4837 13.9563C57.0795 10.9002 55.7383 8.03428 55.5954 7.78529C55.3495 7.35642 54.1711 7.13003 53.5936 7.40069ZM74.1503 7.52676L73.8573 7.76658V12.7015C73.8573 17.5538 73.8606 17.6405 74.0547 17.8805C74.2309 18.0985 74.3169 18.1246 74.8573 18.1246C75.3977 18.1246 75.4837 18.0985 75.6599 17.8805C75.8482 17.6478 75.8574 17.523 75.8598 15.1711L75.8625 12.7058L76.4075 13.3076C77.1973 14.1797 80.1861 17.2714 80.6714 17.7183C81.1357 18.1459 81.4841 18.2514 81.9862 18.1166C82.3999 18.0055 82.6192 17.726 82.6192 17.3103C82.6192 17.0343 82.4146 16.7915 80.7439 15.0847C79.7124 14.031 78.6961 12.9915 78.4855 12.7748L78.1024 12.3806L80.0166 10.5054C81.0694 9.47393 81.9602 8.53559 81.9961 8.42018C82.1659 7.87561 81.6583 7.28694 81.0192 7.28694C80.6008 7.28694 80.1796 7.6407 78.0001 9.82268C76.9001 10.924 75.968 11.8252 75.9287 11.8254C75.8894 11.8256 75.8573 10.9524 75.8573 9.88493C75.8573 8.65981 75.8183 7.86079 75.7516 7.71832C75.5247 7.23424 74.6375 7.12808 74.1503 7.52676ZM83.1833 7.65033C82.8184 8.00519 82.8065 8.45584 83.1515 8.85452L83.3981 9.13954H84.8658H86.3335V13.4293C86.3335 17.6185 86.3381 17.7239 86.5277 17.9219C86.6858 18.087 86.8281 18.1246 87.2939 18.1246C87.7743 18.1246 87.9034 18.0882 88.0997 17.8972L88.3335 17.6699V13.4047V9.13954H89.8044C91.2171 9.13954 91.2857 9.13083 91.5393 8.91862C91.7598 8.73419 91.8007 8.63081 91.7874 8.29336C91.7746 7.97027 91.7127 7.83791 91.4795 7.63431L91.1876 7.37957H87.3246H83.4617L83.1833 7.65033ZM104.589 7.6394L104.334 7.89913V12.7752V17.6511L104.555 17.9011C104.748 18.1197 104.846 18.1511 105.334 18.1511C105.821 18.1511 105.919 18.1197 106.112 17.9011C106.324 17.6623 106.334 17.5853 106.334 16.1831V14.715L108.072 14.6825L109.81 14.6501L110.505 14.3336C111.449 13.904 112.137 13.1876 112.431 12.3292C112.697 11.5524 112.66 10.4815 112.34 9.67244C112.083 9.02338 111.382 8.25122 110.74 7.91127C109.878 7.45488 109.347 7.37957 106.998 7.37957H104.845L104.589 7.6394ZM16.7308 7.79493C16.1029 7.98556 15.6261 8.3558 15.3225 8.8887L15.0476 9.37111L15.018 11.7563L14.9883 14.1415H12.5299C9.87907 14.1415 9.59287 14.1821 8.96621 14.647C8.79221 14.7761 8.52497 15.1008 8.37249 15.3685C8.11344 15.8232 8.09525 15.9221 8.09525 16.8741C8.09525 18.0194 8.18249 18.2656 8.7924 18.8425C9.50678 19.5181 9.69897 19.5569 12.491 19.5891L14.9819 19.6178L15.0169 22.0901C15.0492 24.3674 15.0677 24.5953 15.252 24.9792C15.681 25.8725 16.6064 26.3687 17.8438 26.3687C18.7619 26.3687 19.4045 26.1459 19.913 25.6513C20.5608 25.0213 20.6191 24.7166 20.6191 21.9587V19.6203L23.1191 19.5901C25.5153 19.5611 25.64 19.5506 26.1227 19.3388C27.1775 18.8757 27.7316 17.8805 27.6455 16.6035C27.5907 15.7914 27.263 15.12 26.7158 14.6984C26.061 14.1941 25.7142 14.1415 23.0384 14.1415H20.6308L20.6011 11.7563C20.5731 9.50061 20.56 9.35027 20.3604 8.98735C20.0737 8.46603 19.4403 7.95962 18.8678 7.79428C18.2872 7.62662 17.2844 7.6269 16.7308 7.79493ZM65.66 9.16761C64.6696 9.44086 63.8479 10.132 63.3939 11.0736C63.1665 11.5454 63.143 11.6983 63.143 12.7058C63.143 13.7158 63.1661 13.8653 63.3963 14.343C64.2935 16.2044 66.5203 16.8796 68.4585 15.8778C69.522 15.328 70.1619 14.3604 70.2927 13.1042C70.4589 11.5069 69.6602 10.0211 68.283 9.36574C67.6531 9.06599 66.3778 8.96966 65.66 9.16761ZM96.0375 9.25968C94.7588 9.78396 94.0896 10.5875 93.7952 11.9519C93.5621 13.0326 93.8153 14.1919 94.4754 15.0666C95.725 16.7222 98.7007 16.7903 100.14 15.1962C100.555 14.7363 100.805 14.2126 100.965 13.4666C101.32 11.8095 100.51 10.1108 99.0265 9.40029C98.471 9.13435 98.2878 9.09507 97.4839 9.0696C96.6973 9.04468 96.498 9.0709 96.0375 9.25968ZM106.334 11.0865V13.0537L107.643 13.0059C108.524 12.9737 109.1 12.9066 109.402 12.801C110.906 12.2756 110.994 10.1371 109.542 9.3976C109.197 9.2217 108.954 9.18928 107.738 9.15686L106.334 9.11935V11.0865ZM53.7674 11.2932C53.2688 12.4542 52.433 14.383 51.7002 16.0636L51.569 16.3647H54.5046H57.4402L57.1488 15.78C56.9884 15.4584 56.3215 14.0003 55.6668 12.5398C55.012 11.0792 54.4533 9.88345 54.4252 9.88243C54.3971 9.88141 54.1011 10.5163 53.7674 11.2932ZM85.7627 21.4753C83.3661 21.8079 81.4844 23.456 80.9407 25.6986C80.6274 26.991 80.9224 28.8191 81.6166 29.8858C82.2978 30.9324 83.4898 31.8457 84.7328 32.2734C85.7489 32.623 87.3308 32.6755 88.3857 32.3948C90.4017 31.8582 91.966 30.3437 92.4776 28.4333C92.6605 27.7501 92.6591 26.2825 92.4749 25.5776C91.8936 23.3532 90.0622 21.8013 87.6192 21.4627C86.8496 21.3561 86.6104 21.3577 85.7627 21.4753ZM48.9525 21.5426C48.8477 21.5866 48.6763 21.7153 48.5715 21.8285C48.3868 22.0282 48.3803 22.184 48.3541 27.018L48.3271 32.0017L48.5448 32.2477C48.9189 32.6708 49.8435 32.6876 50.2355 32.2783C50.4113 32.0948 50.4287 31.9549 50.4287 30.7162V29.3558L52.1191 29.3094C54.0244 29.2571 54.5492 29.1348 55.4522 28.5324C56.0081 28.1616 56.6446 27.3168 56.8273 26.7073C56.8908 26.4956 56.9439 25.8847 56.9453 25.3497C56.9485 24.1679 56.7395 23.5652 56.0792 22.8509C55.5904 22.322 55.1038 22.017 54.2782 21.7216C53.768 21.539 53.4971 21.5171 51.4287 21.4911C50.1715 21.4753 49.0572 21.4985 48.9525 21.5426ZM60.9355 21.6007C59.7862 21.902 58.8016 22.5972 58.3809 23.4049C58.0438 24.0519 57.9051 24.9531 58.0496 25.5575C58.356 26.8391 59.1669 27.5882 60.6348 27.9458L61.0789 28.054L59.9859 29.2639C58.2824 31.1495 58.2207 31.231 58.2096 31.6113C58.1905 32.2669 59.0112 32.6843 59.7099 32.3747C59.9857 32.2525 63.6915 28.2082 64.034 27.6555C64.5142 26.8808 64.0919 26.5539 62.6112 26.5539C61.4661 26.5539 61.0274 26.4447 60.5835 26.0492C59.9544 25.4888 59.9313 24.5846 60.5292 23.9223C60.9929 23.4087 61.4112 23.3028 63.2128 23.2435L64.8096 23.191V27.4722C64.8096 32.5359 64.7756 32.3807 65.8854 32.3866C66.3468 32.3891 66.4757 32.3523 66.6711 32.1622L66.9049 31.9349V27.012V22.0892L66.5811 21.7742L66.2573 21.4593L63.843 21.4654C62.0937 21.4698 61.2929 21.5071 60.9355 21.6007ZM73.2196 21.6353C72.8344 21.8703 72.7218 22.0446 72.2564 23.1266C72.0483 23.6106 71.5337 24.7986 71.1127 25.7666C70.6918 26.7345 70.062 28.1933 69.7131 29.0081C69.3642 29.823 69.029 30.5205 68.968 30.5582C68.9071 30.5959 68.7457 30.6274 68.6093 30.6282C68.2107 30.6305 67.8573 31.0173 67.8573 31.4512C67.8573 31.948 67.9281 32.0947 68.2451 32.2541C68.4732 32.3688 69.4363 32.3896 74.5265 32.3896H80.5386L80.817 32.1188C81.1944 31.7517 81.2007 31.2736 80.8329 30.9158C80.6157 30.7046 80.4577 30.6504 79.9146 30.6011C79.5539 30.5683 79.2521 30.53 79.244 30.5161C79.2006 30.4407 78.04 27.8937 76.812 25.1784C76.0437 23.4793 75.3072 21.9589 75.1756 21.7999C74.952 21.53 74.8894 21.5087 74.23 21.4802C73.6519 21.4552 73.4688 21.4833 73.2196 21.6353ZM94.6055 21.5944C94.467 21.6706 94.3063 21.8651 94.2484 22.0267C94.1768 22.2264 94.143 23.8168 94.143 26.9875C94.143 32.2735 94.1358 32.2131 94.7896 32.3843C95.2768 32.5119 95.6941 32.4256 95.9697 32.1403L96.1907 31.9116V28.3991C96.1907 26.4672 96.2175 24.897 96.2505 24.9097C96.2833 24.9225 96.8571 25.5998 97.5256 26.415C99.1516 28.3978 99.3472 28.5918 99.7209 28.5918C99.8866 28.5918 100.134 28.5063 100.271 28.4017C100.407 28.2972 101.131 27.4596 101.879 26.5405L103.238 24.8694L103.286 28.4988L103.334 32.1282L103.56 32.3064C104.031 32.6776 104.761 32.6435 105.091 32.2347C105.282 31.9992 105.286 31.8885 105.286 27.0926C105.286 22.902 105.265 22.1519 105.142 21.9206C104.959 21.5759 104.731 21.4593 104.24 21.4593C103.486 21.4593 103.33 21.6002 101.189 24.2172C100.385 25.1991 99.6982 25.9911 99.6618 25.9772C99.6255 25.9632 98.8213 25.0106 97.8748 23.8602C96.9283 22.7099 96.0846 21.7126 95.9998 21.6443C95.771 21.4596 94.907 21.4287 94.6055 21.5944ZM86.1093 23.3102C85.2987 23.4147 84.3854 23.8991 83.8961 24.4842C83.2722 25.2303 83.0587 25.8642 83.0587 26.9707C83.0587 28.0032 83.2453 28.6243 83.765 29.3221C84.7361 30.6258 86.8547 31.1034 88.4489 30.3778C89.5906 29.8582 90.3708 28.8202 90.5243 27.6168C90.8663 24.9345 88.8402 22.958 86.1093 23.3102ZM50.4287 25.3863V27.4802H51.7748C53.4 27.4802 53.7567 27.3906 54.3477 26.8336C55.3654 25.8744 55.1401 24.2288 53.9049 23.6004C53.461 23.3746 53.3269 23.356 51.9287 23.3253L50.4287 23.2924V25.3863ZM73.6949 24.9078C73.4746 25.4311 72.8425 26.9184 72.2901 28.2131C71.7377 29.5077 71.2858 30.5706 71.2858 30.5752C71.2858 30.5796 72.5716 30.5833 74.143 30.5833C75.7144 30.5833 77.0001 30.553 77.0001 30.5161C77.0001 30.4646 74.9257 25.7741 74.2126 24.2131C74.0979 23.962 74.0867 23.9771 73.6949 24.9078Z" fill="#A2D0FF"/>
</svg>
