<svg width="287" height="34" viewBox="0 0 287 34" fill="none" xmlns="http://www.w3.org/2000/svg">
<path fill-rule="evenodd" clip-rule="evenodd" d="M23.5222 0.219148C19.7118 1.25339 17.3562 4.29801 17.3508 8.19538C17.3459 11.9216 19.581 15.0013 23.0394 16.0332C24.1178 16.3549 26.4892 16.3648 27.5037 16.0517C29.6109 15.4016 31.7012 13.59 32.6315 11.608C34.4651 7.70098 32.773 2.83003 28.8941 0.8499C27.2684 0.0200432 25.1656 -0.22691 23.5222 0.219148ZM45.1 5.58545C44.122 5.97661 43.0668 6.9718 42.5501 7.99035C42.0218 9.03179 41.9542 10.9513 42.4034 12.1622C43.0972 14.0327 44.9018 15.3233 46.8274 15.3262C48.2135 15.3283 49.1679 14.9687 50.1439 14.0762C52.8269 11.6233 52.2853 7.30566 49.0957 5.71973C47.9958 5.173 46.2759 5.11506 45.1 5.58545ZM78.6876 7.92025C77.5901 8.0755 75.6255 8.66512 74.6741 9.12478C73.257 9.80948 71.8329 11.2723 71.4401 12.4469C70.8349 14.2568 71.1843 16.3064 72.3222 17.6208C73.8088 19.3382 75.8818 20.025 82.0751 20.8518C85.9184 21.3649 86.6334 21.6222 87.0529 22.6427C87.4563 23.6245 86.743 24.6581 85.298 25.1861C84.1887 25.5913 79.8741 25.6088 78.6089 25.2131C77.1319 24.7514 76.0832 24.003 75.6057 23.0702C75.3747 22.6192 75.159 22.1709 75.1266 22.0742C75.0862 21.9537 74.3323 22.0355 72.731 22.3343L70.3945 22.7701L70.4691 23.3393C70.7025 25.1174 72.3794 27.1961 74.3891 28.1984C76.5908 29.2965 77.5995 29.4757 81.5993 29.4797C84.7824 29.4831 85.2679 29.4474 86.3997 29.1278C90.3463 28.0132 92.1945 26.0435 92.2148 22.9302C92.2219 21.8436 92.1569 21.5126 91.7856 20.7437C90.6332 18.3576 88.2084 17.3446 81.678 16.5213C77.3114 15.9707 76.0906 15.4066 76.0906 13.9388C76.0906 13.3479 77.0277 12.5092 78.0256 12.207C79.2361 11.8405 81.3281 11.7317 82.7013 11.9641C85.0927 12.3687 86.0512 12.8984 86.6207 14.1305C86.9263 14.7917 87.0082 14.8618 87.3894 14.7889C87.6242 14.7441 88.6545 14.5847 89.6791 14.4346C90.7533 14.2773 91.5727 14.0806 91.6144 13.9701C91.7481 13.6155 91.0541 12.0535 90.4042 11.2466C89.0632 9.58172 86.6383 8.36134 83.9095 7.97835C82.7327 7.81317 79.6845 7.77925 78.6876 7.92025ZM94.9775 8.4857C94.9775 8.50763 94.9597 13.1351 94.9381 18.7689L94.8988 29.0121L97.2976 29.0562L99.6964 29.1004L99.7371 20.8156L99.7779 12.531L103.259 20.7714L106.74 29.0121L109.903 29.0554L113.066 29.0986L113.291 28.6553C113.415 28.4114 113.765 27.5996 114.07 26.8514C114.374 26.1032 114.906 24.8428 115.252 24.0505C116.089 22.1315 118.589 16.2836 119.418 14.304L120.081 12.72L120.122 20.906L120.163 29.0921H122.601H125.039V18.7662V8.44025L121.083 8.48298L117.126 8.52572L115.031 13.3272C113.878 15.968 112.276 19.7303 111.472 21.6877C110.667 23.6451 109.973 25.2467 109.93 25.2467C109.886 25.2469 109.364 24.0414 108.768 22.5681C107.37 19.1066 103.955 10.9197 103.329 9.52603L102.844 8.44569H98.9107C96.7475 8.44569 94.9775 8.46378 94.9775 8.4857ZM134.364 13.6844C132.969 16.5688 130.752 21.1616 129.439 23.8905C128.125 26.6193 127.019 28.9059 126.98 28.972C126.941 29.0381 128.154 29.0921 129.675 29.0921H132.441L133.451 26.9314L134.461 24.7707H140.348H146.236L147.19 26.8914L148.144 29.0121L150.914 29.0557C152.438 29.0798 153.684 29.0652 153.684 29.0234C153.684 28.9816 151.489 24.3525 148.807 18.7366L143.93 8.52572L140.415 8.48282L136.901 8.43977L134.364 13.6844ZM155.73 18.7689V29.0921H158.248H160.767V25.4109V21.7298H163.192H165.618L168.74 25.4103L171.863 29.0908L174.892 29.0914C176.559 29.0918 177.922 29.0524 177.922 29.0037C177.922 28.9552 176.404 27.2491 174.547 25.2126C172.691 23.176 171.202 21.4608 171.238 21.4009C171.275 21.3409 171.654 21.2447 172.081 21.1871C173.28 21.0254 174.941 20.0987 175.854 19.0829C176.894 17.9261 177.336 16.7555 177.332 15.1678C177.324 11.6857 175.028 9.25602 171.14 8.61454C170.548 8.51691 167.159 8.44761 162.931 8.44697L155.73 8.44569V18.7689ZM179.496 10.5263V12.607H183.823H188.15L188.191 20.8095L188.231 29.0121H190.75H193.268L193.309 20.8095L193.349 12.607H197.912H202.475V10.5263V8.44569H190.986H179.496V10.5263ZM206.095 18.7689V29.0921H208.533H210.971L211.012 20.8358L211.053 12.5796L213.471 18.235C214.802 21.3455 216.391 25.0622 217.003 26.4945L218.115 29.0983L221.337 29.0553L224.56 29.0121L225.376 27.0915C225.825 26.0351 226.958 23.3703 227.894 21.1696C228.829 18.9689 230.002 16.2092 230.499 15.0369C230.997 13.8646 231.446 12.8623 231.498 12.8096C231.55 12.7568 231.592 16.3989 231.592 20.9028V29.0921H234.032H236.471V18.7689V8.44569H232.478H228.485L227.919 9.7661C226.536 12.9889 223.665 19.789 222.699 22.1299C221.281 25.5635 221.372 25.4061 221.103 24.8847C220.984 24.6523 220.084 22.5329 219.104 20.1751C218.125 17.8172 216.621 14.2148 215.762 12.1697L214.201 8.45146L210.148 8.44857L206.095 8.44569V18.7689ZM240.092 16.3281C240.092 20.6634 240.068 25.1829 240.04 26.3712C240.011 27.5596 240.019 28.658 240.058 28.812C240.124 29.075 240.727 29.0921 249.947 29.0921H259.765V27.0114V24.9308H252.368H244.971V22.6901V20.4494H251.03H257.09V18.5288V16.6082H251.03H244.971V14.6076V12.607H252.368H259.765V10.5263V8.44569H249.928H240.091L240.092 16.3281ZM262.913 18.766V29.11L270.035 29.0543C276.802 29.0015 277.219 28.9812 278.416 28.6454C280.557 28.0446 281.874 27.2862 283.31 25.8261C285.264 23.8412 286.049 21.885 286.049 19.009C286.049 14.0076 283.181 10.3287 278.217 8.96569C276.692 8.54684 276.65 8.54444 269.799 8.4833L262.913 8.422V18.766ZM140.149 12.1358C140.149 12.2288 139.299 14.1031 138.26 16.3012C137.221 18.4994 136.371 20.3319 136.371 20.3735C136.371 20.4153 138.17 20.4494 140.368 20.4494H144.364L143.357 18.3288C142.803 17.1623 141.907 15.2579 141.367 14.0964C140.477 12.1843 140.149 11.655 140.149 12.1358ZM160.767 15.0877V17.5685H165.455C170.007 17.5685 170.164 17.558 170.836 17.2084C171.795 16.7103 172.177 16.1284 172.177 15.1678C172.177 13.9993 171.371 13.0553 170.119 12.7601C169.78 12.6801 167.536 12.6129 165.134 12.6108L160.767 12.607V15.0877ZM267.949 18.7689V24.7707H271.469C273.405 24.7707 275.371 24.6989 275.837 24.6109C277.135 24.366 278.86 23.4362 279.509 22.6315C280.513 21.3854 280.777 20.5771 280.772 18.7689C280.768 17.3267 280.723 17.0767 280.311 16.2417C279.47 14.5365 277.647 13.2829 275.504 12.9354C274.942 12.8442 273.012 12.7689 271.215 12.7683L267.949 12.767V18.7689ZM7.8619 13.2286C4.82773 14.0698 2.70248 15.731 1.27086 18.3804C-0.912932 22.4215 -0.242449 27.2101 2.97508 30.5514C4.67395 32.3158 6.58672 33.2783 8.98221 33.5746C13.6786 34.1552 18.0128 31.465 19.7993 26.8603C20.1972 25.8344 20.2792 25.3711 20.3396 23.8063C20.4248 21.5973 20.2022 20.515 19.2617 18.5635C18.1016 16.1566 15.8397 14.2617 13.0688 13.3757C11.6265 12.9144 9.23844 12.8469 7.8619 13.2286ZM35.9266 13.6425C33.3938 14.3518 31.5185 16.4655 31.0586 19.129C30.5917 21.8335 32.0717 24.6784 34.6183 25.9718C35.4954 26.4172 35.6857 26.4513 37.2939 26.4513C38.9015 26.4513 39.0984 26.416 40.0487 25.958C42.5692 24.7434 44.1621 21.7325 43.6819 19.0907C43.1773 16.315 41.3132 14.242 38.7989 13.6604C37.5168 13.364 36.9341 13.3603 35.9266 13.6425ZM53.5394 14.1076C52.2266 14.6054 51.2341 15.6124 50.9045 16.7811C50.82 17.081 50.7508 17.7687 50.7508 18.3094C50.7508 22.261 55.9119 23.7712 58.1053 20.4614C59.4611 18.4157 58.6499 15.425 56.4307 14.2877C55.7029 13.9146 54.2818 13.8261 53.5394 14.1076Z" fill="#A2D0FF"/>
</svg>
