<svg width="302" height="68" viewBox="0 0 302 68" fill="none" xmlns="http://www.w3.org/2000/svg">
<path d="M104.641 53.8066H216.544V62.3892H104.641V53.8066Z" fill="url(#paint0_linear_845_4913)"/>
<path d="M37.631 5.61165L37.631 68L30.3689 62.3883L30.3689 -3.17438e-07L37.631 5.61165Z" fill="url(#paint1_linear_845_4913)"/>
<path d="M37.631 22.7767L37.631 61.398L30.3689 55.7864L30.3689 17.165L37.631 22.7767Z" fill="#A2D0FF"/>
<path d="M27.3981 5.61165L27.3981 68L20.136 62.3883L20.136 -3.17438e-07L27.3981 5.61165Z" fill="url(#paint2_linear_845_4913)"/>
<path d="M17.165 5.61165L17.165 68L9.90284 62.3883L9.90284 -3.17438e-07L17.165 5.61165Z" fill="url(#paint3_linear_845_4913)"/>
<path d="M7.26239 5.61165L7.26239 68L0.000253334 62.3883L0.000256062 -3.17438e-07L7.26239 5.61165Z" fill="url(#paint4_linear_845_4913)"/>
<path d="M27.3981 37.6302L27.3981 53.805L20.136 48.1933L20.136 32.0186L27.3981 37.6302Z" fill="#A2D0FF"/>
<path d="M17.165 29.7083L17.165 45.8831L9.90284 40.2714L9.90284 24.0967L17.165 29.7083Z" fill="#A2D0FF"/>
<path d="M7.26239 22.7767L7.26239 56.1165L0.000254604 50.5048L0.000256062 17.165L7.26239 22.7767Z" fill="#A2D0FF"/>
<path d="M297.694 48.4763C295.768 48.4763 294.22 47.8571 293.05 46.6187C291.881 45.3573 291.296 43.6947 291.296 41.6307V34.8539H289.025V30.2786H291.537L292.706 24.7402H297.763V30.2786H301.478V34.8539H297.763V41.3211C297.763 42.0091 297.947 42.5709 298.313 43.0067C298.703 43.4195 299.219 43.6259 299.861 43.6259C300.366 43.6259 300.939 43.5456 301.581 43.3851V47.8571C300.435 48.2699 299.139 48.4763 297.694 48.4763Z" fill="#A2D0FF"/>
<path d="M278.622 48.6122C275.962 48.6122 273.852 48.0389 272.292 46.8922C270.733 45.7455 269.953 44.1746 269.953 42.1794H275.423C275.423 42.9362 275.721 43.5439 276.317 44.0026C276.936 44.4613 277.75 44.6906 278.759 44.6906C279.516 44.6906 280.135 44.5415 280.617 44.2434C281.099 43.9223 281.339 43.4981 281.339 42.9706C281.339 42.3973 281.064 42.0074 280.514 41.801C279.963 41.5946 279.115 41.4341 277.968 41.3194C275.537 41.09 273.852 40.7575 272.911 40.3218C271.008 39.4962 270.056 37.994 270.056 35.8154C270.056 33.9578 270.813 32.4786 272.327 31.3778C273.863 30.277 275.904 29.7266 278.45 29.7266C280.95 29.7266 283.002 30.277 284.607 31.3778C286.213 32.4556 287.015 33.889 287.015 35.6778H281.305C281.282 35.0586 281.007 34.5655 280.479 34.1986C279.952 33.8087 279.275 33.6138 278.45 33.6138C277.716 33.6138 277.12 33.7628 276.661 34.061C276.202 34.3591 275.973 34.749 275.973 35.2306C275.973 35.758 276.271 36.125 276.867 36.3314C277.487 36.5378 278.438 36.7098 279.723 36.8474C280.044 36.8703 280.285 36.8932 280.445 36.9162C281.225 37.0079 281.901 37.1111 282.475 37.2258C283.048 37.3175 283.679 37.4895 284.367 37.7418C285.078 37.994 285.662 38.3036 286.121 38.6706C286.58 39.0146 286.958 39.4962 287.256 40.1154C287.577 40.7346 287.738 41.4455 287.738 42.2482C287.738 44.2205 286.924 45.7799 285.295 46.9266C283.667 48.0503 281.443 48.6122 278.622 48.6122Z" fill="#A2D0FF"/>
<path d="M255.575 48.4405C253.786 48.4405 252.352 47.9933 251.275 47.0989C250.197 46.1816 249.658 44.9317 249.658 43.3493C249.658 41.6522 250.357 40.3221 251.756 39.3589C253.155 38.3728 255.322 37.6848 258.258 37.2949L261.354 36.9165V36.1253C261.354 35.4602 261.147 34.9328 260.735 34.5429C260.322 34.1301 259.748 33.9237 259.015 33.9237C258.304 33.9237 257.719 34.1416 257.26 34.5773C256.824 35.013 256.607 35.5978 256.607 36.3317H250.38C250.38 34.3594 251.171 32.7885 252.754 31.6189C254.336 30.4263 256.446 29.8301 259.083 29.8301C261.721 29.8301 263.831 30.4263 265.413 31.6189C267.018 32.7885 267.821 34.3709 267.821 36.3661V48.0277H261.354V45.9293H261.01C260.528 46.732 259.794 47.3512 258.808 47.7869C257.845 48.2226 256.767 48.4405 255.575 48.4405ZM258.086 44.5533C259.049 44.5533 259.829 44.2552 260.425 43.6589C261.044 43.0626 261.354 42.3058 261.354 41.3885V40.3221L258.499 40.7349C256.733 40.9642 255.85 41.6293 255.85 42.7301C255.85 43.2805 256.045 43.7277 256.435 44.0717C256.847 44.3928 257.398 44.5533 258.086 44.5533Z" fill="#A2D0FF"/>
<path d="M238.874 48.4749C235.939 48.4749 233.554 47.6264 231.719 45.9293C229.908 44.2093 229.002 41.9504 229.002 39.1525C229.002 36.3088 229.896 34.0498 231.685 32.3757C233.497 30.6786 235.893 29.8301 238.874 29.8301C241.443 29.8301 243.576 30.4607 245.273 31.7221C246.97 32.9834 247.956 34.7149 248.231 36.9165L242.28 37.6733C242.12 36.8936 241.718 36.2514 241.076 35.7469C240.457 35.2424 239.757 34.9901 238.978 34.9901C237.946 34.9901 237.097 35.38 236.432 36.1597C235.767 36.9394 235.434 37.937 235.434 39.1525C235.434 40.368 235.767 41.3656 236.432 42.1453C237.097 42.925 237.934 43.3149 238.943 43.3149C239.746 43.3149 240.457 43.0741 241.076 42.5925C241.695 42.088 242.097 41.4458 242.28 40.6661L248.231 41.3885C247.933 43.5901 246.936 45.3216 245.238 46.5829C243.541 47.8442 241.42 48.4749 238.874 48.4749Z" fill="#A2D0FF"/>
<path d="M217.443 48.4749C214.484 48.4749 212.088 47.6264 210.253 45.9293C208.419 44.2093 207.501 41.9274 207.501 39.0837C207.501 36.2858 208.43 34.0498 210.288 32.3757C212.145 30.6786 214.553 29.8301 217.512 29.8301C220.447 29.8301 222.798 30.6786 224.564 32.3757C226.33 34.0728 227.212 36.3317 227.212 39.1525C227.212 39.9781 227.178 40.5629 227.109 40.9069H214.14C214.347 41.893 214.76 42.6613 215.379 43.2117C216.021 43.7621 216.824 44.0373 217.787 44.0373C219.3 44.0373 220.367 43.3952 220.986 42.1109L226.524 43.1085C226.089 44.7597 225.034 46.0669 223.36 47.0301C221.708 47.9933 219.736 48.4749 217.443 48.4749ZM214.072 37.4669H220.711C220.619 36.5725 220.264 35.8157 219.644 35.1965C219.025 34.5773 218.268 34.2677 217.374 34.2677C216.503 34.2677 215.78 34.5544 215.207 35.1277C214.634 35.701 214.255 36.4808 214.072 37.4669Z" fill="#A2D0FF"/>
<path d="M193.476 48.029V30.2786H199.875V32.7898H200.253C200.643 31.9183 201.205 31.2303 201.939 30.7258C202.672 30.1983 203.487 29.9346 204.381 29.9346C205.092 29.9346 205.746 30.0836 206.342 30.3818V36.0922C205.241 35.6106 204.209 35.3698 203.246 35.3698C202.26 35.3698 201.457 35.7252 200.838 36.4362C200.219 37.1471 199.909 38.0759 199.909 39.2226V48.029H193.476Z" fill="#A2D0FF"/>
<path d="M188.49 45.9981C186.701 47.6493 184.27 48.4749 181.197 48.4749C178.124 48.4749 175.681 47.6378 173.87 45.9637C172.058 44.2896 171.152 42.0192 171.152 39.1525C171.152 36.2629 172.046 33.9925 173.835 32.3413C175.647 30.6671 178.101 29.8301 181.197 29.8301C184.247 29.8301 186.678 30.6671 188.49 32.3413C190.301 34.0154 191.207 36.2858 191.207 39.1525C191.207 42.0421 190.301 44.324 188.49 45.9981ZM178.617 41.9733C179.282 42.7072 180.142 43.0741 181.197 43.0741C182.252 43.0741 183.112 42.7072 183.777 41.9733C184.442 41.2394 184.774 40.2992 184.774 39.1525C184.774 38.0058 184.442 37.0656 183.777 36.3317C183.112 35.5978 182.252 35.2309 181.197 35.2309C180.142 35.2309 179.282 35.5978 178.617 36.3317C177.952 37.0656 177.619 38.0058 177.619 39.1525C177.619 40.2992 177.952 41.2394 178.617 41.9733Z" fill="#A2D0FF"/>
<path d="M150.856 48.0289V23.3984H169.707V29.5904H158.114V33.7185H168.125V39.1537H158.114V48.0289H150.856Z" fill="#A2D0FF"/>
<path d="M137.058 45.9981C135.269 47.6493 132.838 48.4749 129.765 48.4749C126.692 48.4749 124.25 47.6378 122.438 45.9637C120.626 44.2896 119.72 42.0192 119.72 39.1525C119.72 36.2629 120.615 33.9925 122.403 32.3413C124.215 30.6671 126.669 29.8301 129.765 29.8301C132.815 29.8301 135.246 30.6671 137.058 32.3413C138.87 34.0154 139.775 36.2858 139.775 39.1525C139.775 42.0421 138.87 44.324 137.058 45.9981ZM127.185 41.9733C127.85 42.7072 128.71 43.0741 129.765 43.0741C130.82 43.0741 131.68 42.7072 132.345 41.9733C133.01 41.2394 133.343 40.2992 133.343 39.1525C133.343 38.0058 133.01 37.0656 132.345 36.3317C131.68 35.5978 130.82 35.2309 129.765 35.2309C128.71 35.2309 127.85 35.5978 127.185 36.3317C126.52 37.0656 126.187 38.0058 126.187 39.1525C126.187 40.2992 126.52 41.2394 127.185 41.9733Z" fill="#A2D0FF"/>
<path d="M104.457 48.0288L98.6087 30.2783H105.42L108.963 42.6967H109.307L112.85 30.2783H119.696L113.848 48.0288H104.457Z" fill="#A2D0FF"/>
<path d="M95.838 45.9981C94.0492 47.6493 91.6183 48.4749 88.5452 48.4749C85.4721 48.4749 83.0297 47.6378 81.218 45.9637C79.4062 44.2896 78.5004 42.0192 78.5004 39.1525C78.5004 36.2629 79.3948 33.9925 81.1836 32.3413C82.9953 30.6671 85.4492 29.8301 88.5452 29.8301C91.5953 29.8301 94.0263 30.6671 95.838 32.3413C97.6497 34.0154 98.5556 36.2858 98.5556 39.1525C98.5556 42.0421 97.6497 44.324 95.838 45.9981ZM85.9652 41.9733C86.6302 42.7072 87.4902 43.0741 88.5452 43.0741C89.6001 43.0741 90.4601 42.7072 91.1252 41.9733C91.7903 41.2394 92.1228 40.2992 92.1228 39.1525C92.1228 38.0058 91.7903 37.0656 91.1252 36.3317C90.4601 35.5978 89.6001 35.2309 88.5452 35.2309C87.4902 35.2309 86.6302 35.5978 85.9652 36.3317C85.3001 37.0656 84.9676 38.0058 84.9676 39.1525C84.9676 40.2992 85.3001 41.2394 85.9652 41.9733Z" fill="#A2D0FF"/>
<path d="M52.7959 48.0289V23.3984H60.5703L68.6543 38.6721H68.9983V23.3984H75.7751V48.0289H68.0007L59.9167 32.7897H59.5727V48.0289H52.7959Z" fill="#A2D0FF"/>
<path d="M294.615 61.7273V54.2803H299.727V55.1253H295.587V57.4492H299.305V58.2943H295.587V60.8822H299.833V61.7273H294.615Z" fill="#A2D0FF"/>
<path d="M288.469 61.9908C287.49 61.9908 286.719 61.7513 286.156 61.2725C285.593 60.7936 285.311 60.1387 285.311 59.3077H286.262C286.269 59.8852 286.466 60.3359 286.853 60.6598C287.24 60.9838 287.783 61.1457 288.48 61.1457C289.085 61.1457 289.557 61.026 289.895 60.7866C290.233 60.5401 290.402 60.2056 290.402 59.7831C290.402 59.5859 290.36 59.4134 290.276 59.2655C290.191 59.1176 290.092 59.0014 289.98 58.9169C289.867 58.8254 289.698 58.7444 289.473 58.674C289.247 58.6035 289.061 58.5542 288.913 58.5261C288.765 58.4979 288.543 58.4592 288.247 58.4099C287.923 58.3606 287.649 58.3113 287.423 58.262C287.205 58.2057 286.959 58.1247 286.684 58.019C286.409 57.9064 286.188 57.7796 286.019 57.6388C285.857 57.4909 285.716 57.2972 285.596 57.0578C285.483 56.8184 285.427 56.5437 285.427 56.2339C285.427 55.5578 285.674 55.0191 286.166 54.6177C286.666 54.2163 287.36 54.0156 288.247 54.0156C289.163 54.0156 289.881 54.241 290.402 54.6917C290.923 55.1353 291.187 55.7515 291.194 56.5402H290.265C290.265 56.0121 290.089 55.6001 289.737 55.3043C289.385 55.0086 288.888 54.8607 288.247 54.8607C287.656 54.8607 287.198 54.9804 286.874 55.2198C286.55 55.4522 286.388 55.7726 286.388 56.1811C286.388 56.3712 286.427 56.5402 286.504 56.6881C286.589 56.8289 286.688 56.9416 286.8 57.0261C286.913 57.1106 287.071 57.1881 287.276 57.2585C287.487 57.3219 287.67 57.3712 287.825 57.4064C287.987 57.4346 288.205 57.4698 288.48 57.512C288.761 57.5613 288.99 57.6036 289.166 57.6388C289.349 57.674 289.568 57.7303 289.821 57.8078C290.075 57.8782 290.279 57.9662 290.434 58.0719C290.596 58.1704 290.754 58.2937 290.909 58.4416C291.064 58.5894 291.177 58.7725 291.247 58.9908C291.325 59.2021 291.364 59.4451 291.364 59.7197C291.364 60.4239 291.106 60.9802 290.592 61.3887C290.085 61.7901 289.378 61.9908 288.469 61.9908Z" fill="#A2D0FF"/>
<path d="M281.091 61.7273V54.2803H282.052V61.7273H281.091Z" fill="#A2D0FF"/>
<path d="M271.952 61.7273V54.2803H275.194C276.004 54.2803 276.652 54.488 277.138 54.9035C277.631 55.3119 277.877 55.8577 277.877 56.5408C277.877 57.1675 277.656 57.6851 277.212 58.0936C276.768 58.502 276.198 58.7238 275.501 58.759H275.374L278.078 61.7273H276.863L274.286 58.8118H272.913V61.7273H271.952ZM272.913 57.9668H275.194C275.73 57.9668 276.149 57.84 276.451 57.5865C276.761 57.326 276.916 56.9774 276.916 56.5408C276.916 56.1042 276.761 55.7591 276.451 55.5056C276.149 55.2521 275.73 55.1253 275.194 55.1253H272.913V57.9668Z" fill="#A2D0FF"/>
<path d="M263.214 61.7273V54.2803H266.182C266.999 54.2803 267.651 54.4845 268.137 54.8929C268.623 55.3014 268.862 55.8577 268.855 56.5619C268.855 57.2591 268.608 57.8154 268.116 58.2309C267.63 58.6393 266.985 58.8435 266.182 58.8435H264.154V61.7273H263.214ZM264.154 57.9879H266.182C266.718 57.9879 267.137 57.8612 267.439 57.6077C267.749 57.3471 267.904 56.9985 267.904 56.5619C267.904 56.1183 267.749 55.7697 267.439 55.5162C267.137 55.2556 266.718 55.1253 266.182 55.1253H264.154V57.9879Z" fill="#A2D0FF"/>
<path d="M254.075 61.7273V54.2803H257.317C258.127 54.2803 258.775 54.488 259.261 54.9035C259.754 55.3119 260 55.8577 260 56.5408C260 57.1675 259.779 57.6851 259.335 58.0936C258.891 58.502 258.321 58.7238 257.624 58.759H257.497L260.201 61.7273H258.986L256.409 58.8118H255.036V61.7273H254.075ZM255.036 57.9668H257.317C257.853 57.9668 258.272 57.84 258.574 57.5865C258.884 57.326 259.039 56.9774 259.039 56.5408C259.039 56.1042 258.884 55.7591 258.574 55.5056C258.272 55.2521 257.853 55.1253 257.317 55.1253H255.036V57.9668Z" fill="#A2D0FF"/>
<path d="M245.678 61.7273V54.2803H250.79V55.1253H246.65V57.4492H250.368V58.2943H246.65V60.8822H250.896V61.7273H245.678Z" fill="#A2D0FF"/>
<path d="M239.464 61.7273V55.1253H237.003V54.2803H242.897V55.1253H240.425V61.7273H239.464Z" fill="#A2D0FF"/>
<path d="M228.255 61.7273V54.2803H229.639L233.167 60.4597H233.262V54.2803H234.223V61.7273H232.85L229.322 55.5478H229.216V61.7273H228.255Z" fill="#A2D0FF"/>
<path d="M219.858 61.7273V54.2803H224.97V55.1253H220.83V57.4492H224.548V58.2943H220.83V60.8822H225.076V61.7273H219.858Z" fill="#A2D0FF"/>
<defs>
<linearGradient id="paint0_linear_845_4913" x1="110.087" y1="58.0979" x2="216.544" y2="58.0979" gradientUnits="userSpaceOnUse">
<stop stop-color="#A2D0FF" stop-opacity="0"/>
<stop offset="1" stop-color="#A2D0FF"/>
</linearGradient>
<linearGradient id="paint1_linear_845_4913" x1="34" y1="10.068" x2="34" y2="65.8544" gradientUnits="userSpaceOnUse">
<stop stop-color="#A2D0FF" stop-opacity="0"/>
<stop offset="0.509615" stop-color="#A2D0FF" stop-opacity="0.519881"/>
<stop offset="1" stop-color="#A2D0FF" stop-opacity="0"/>
</linearGradient>
<linearGradient id="paint2_linear_845_4913" x1="23.7671" y1="22.7767" x2="23.7671" y2="62.3884" gradientUnits="userSpaceOnUse">
<stop stop-color="#A2D0FF" stop-opacity="0"/>
<stop offset="0.509615" stop-color="#A2D0FF" stop-opacity="0.519881"/>
<stop offset="1" stop-color="#A2D0FF" stop-opacity="0"/>
</linearGradient>
<linearGradient id="paint3_linear_845_4913" x1="13.5339" y1="14.0291" x2="13.5339" y2="58.7573" gradientUnits="userSpaceOnUse">
<stop stop-color="#A2D0FF" stop-opacity="0"/>
<stop offset="0.509615" stop-color="#A2D0FF" stop-opacity="0.519881"/>
<stop offset="1" stop-color="#A2D0FF" stop-opacity="0"/>
</linearGradient>
<linearGradient id="paint4_linear_845_4913" x1="3.63132" y1="12.7745" x2="3.63132" y2="63.3786" gradientUnits="userSpaceOnUse">
<stop stop-color="#A2D0FF" stop-opacity="0"/>
<stop offset="0.509615" stop-color="#A2D0FF" stop-opacity="0.519881"/>
<stop offset="1" stop-color="#A2D0FF" stop-opacity="0"/>
</linearGradient>
</defs>
</svg>
