<svg width="99" height="28" viewBox="0 0 99 28" fill="none" xmlns="http://www.w3.org/2000/svg">
<path fill-rule="evenodd" clip-rule="evenodd" d="M15.0784 20.8229H10.7997C4.12502 20.8229 8.9742 6.6462 14.5935 6.6462H21.3538C22.4377 6.6462 24.3489 6.8459 25.2902 4.16457L26.7449 0H17.4745C12.4542 0 8.5463 1.76852 5.72239 4.73507C0.844698 9.8124 -0.80972 17.7422 0.359786 21.536C1.47224 25.0445 4.49584 27.355 9.23088 27.412L12.9106 27.4405H17.4459L18.5584 24.1032C19.3856 21.7357 17.5315 20.8229 15.0784 20.8229ZM67.1642 14.9468L68.5617 10.4114H53.6435C51.1619 10.4114 50.0495 11.096 49.6216 12.5222L48.2239 17.0576H63.1422C65.6238 17.0576 66.7363 16.3731 67.1642 14.9468ZM45.999 22.9337L44.6013 27.4691H59.5196C61.9727 27.4691 63.1137 26.7845 63.5416 25.3583L64.9393 20.8229H50.021C47.5679 20.8229 46.4554 21.5075 45.999 22.9337ZM70.6441 4.56392L72.0421 0.0285241H57.1236C54.642 0.0285241 53.5295 0.71311 53.1016 2.13934L51.7039 6.67473H66.6222C69.0756 6.67473 70.1876 5.99014 70.6441 4.56392ZM48.1098 5.4767C47.4823 1.25508 45.2288 0.0285241 39.7521 0.0285241H29.7686L23.9496 17.0576H27.6292C29.8256 17.0576 30.9381 17.0862 32.1076 13.9485L34.5322 6.6462H38.2403C41.4066 6.6462 40.6934 10.6111 39.0961 14.4619C37.6699 17.8563 35.1882 20.8514 32.1931 20.8514H26.0033C23.5217 20.8514 22.3807 21.536 21.9243 22.9622L20.384 27.4976H24.9194L29.3692 27.4691C33.3056 27.4405 36.5289 27.1553 40.2941 23.7609C44.2875 20.1383 48.9085 10.8393 48.1098 5.4767ZM98.2561 0H89.6133L81.4836 8.64291C80.542 9.64126 79.5723 10.6396 78.6307 11.8092H78.5452L82.5956 0H75.5506L66.0517 27.4691H73.0974L76.1207 18.8262L79.2582 16.1734L81.7402 23.9891C82.5101 26.4136 83.3094 27.4691 85.0208 27.4691H90.4119L84.8778 12.1229L98.2561 0Z" fill="#A2D0FF"/>
</svg>
