<svg width="206" height="33" viewBox="0 0 206 33" fill="none" xmlns="http://www.w3.org/2000/svg">
<path fill-rule="evenodd" clip-rule="evenodd" d="M10.4673 0.382381C5.83201 1.53711 2.21376 4.91982 0.620118 9.58858C0.116216 11.0649 0.0869201 11.3481 0.0179973 15.4078C-0.068539 20.505 0.120421 21.7265 1.39817 24.3306C2.88939 27.3694 4.7482 29.2502 7.72988 30.737C10.2921 32.0143 11.744 32.2444 16.5937 32.1408C21.0147 32.0463 21.9552 31.8502 24.5777 30.4763C26.4185 29.5118 29.1155 26.7799 30.0704 24.9125C31.4965 22.1232 31.6614 21.2092 31.6614 16.0867C31.6614 11.8499 31.6298 11.4257 31.213 10.0735C30.4382 7.55942 29.5478 6.07804 27.647 4.14082C26.1782 2.64392 25.6439 2.24298 24.099 1.47911C21.5671 0.227006 20.1735 -0.0164317 15.6353 0.000832022C12.6927 0.0120825 11.642 0.0896742 10.4673 0.382381ZM48.5074 5.49282C44.9156 6.19016 41.938 8.97523 41.122 12.4012C40.9625 13.0712 40.8739 14.5867 40.8836 16.4747C40.897 19.0371 40.9616 19.6659 41.3207 20.7316C42.39 23.905 44.9916 26.2544 48.1835 26.9289C49.6487 27.2385 53.1078 27.1968 54.4072 26.8538C57.0102 26.167 59.2261 24.3822 60.3817 22.0419C61.3636 20.0535 61.3757 20.076 59.1826 19.7885C58.1561 19.6539 57.0853 19.4981 56.8034 19.4427C56.3468 19.3525 56.2392 19.4442 55.8173 20.2843C54.8897 22.1307 53.4762 22.9483 51.1895 22.961C48.7962 22.9743 47.1476 21.9798 46.2286 19.9683C45.8794 19.2039 45.8288 18.7255 45.8288 16.1837C45.8288 13.407 45.852 13.2299 46.3375 12.3042C47.3649 10.3451 48.7946 9.50149 51.0938 9.4978C52.2004 9.49586 52.7493 9.59925 53.4869 9.94801C54.5298 10.4411 55.6534 11.5724 56.0403 12.5189L56.2856 13.1189L58.6195 12.6431C59.9032 12.3814 60.9863 12.1358 61.0265 12.0972C61.0665 12.0586 60.9134 11.5628 60.6859 10.9953C59.7495 8.65751 57.468 6.58916 54.9515 5.79658C53.3167 5.28177 50.3224 5.14056 48.5074 5.49282ZM70.6699 5.51358C68.3168 6.17968 66.6108 7.58696 65.5486 9.73794C64.6007 11.6579 64.6214 11.7335 66.1706 12.01C66.8815 12.1366 67.9004 12.2873 68.4351 12.3446C69.3792 12.4456 69.4144 12.4313 69.6529 11.8478C69.9841 11.0376 71.3517 9.79167 72.2335 9.49683C73.2754 9.14845 75.525 9.31061 76.4612 9.80137C77.414 10.301 78.0339 11.3772 78.2016 12.8235L78.3269 13.9024L74.5221 13.9984C71.7348 14.0686 70.3646 14.1873 69.3972 14.4424C67.0597 15.0585 64.8015 16.9757 64.3128 18.7587C64.2038 19.1562 64.1142 20.1439 64.1137 20.9535C64.1127 22.2099 64.1987 22.6006 64.6999 23.617C65.6673 25.5782 67.3065 26.7244 69.7636 27.158C72.7236 27.6803 76.5044 26.7153 78.0291 25.0483L78.4714 24.5649V25.6601V26.7553H80.7688H83.0663V19.619C83.0663 11.8682 82.9981 11.218 81.9671 9.13449C81.3001 7.78695 79.7266 6.33952 78.3272 5.78688C77.4058 5.42279 76.7759 5.34229 74.4509 5.2907C72.4363 5.24608 71.3992 5.30719 70.6699 5.51358ZM126.018 5.42279C122.542 6.05941 119.525 8.59078 118.565 11.6763C118.159 12.982 117.977 17.8591 118.274 19.4741C118.937 23.0733 121.694 26.0065 125.204 26.8445C126.657 27.1917 130.456 27.2392 131.925 26.9289C135.585 26.1555 138.592 23.0174 139.155 19.3843C139.405 17.771 139.405 14.7964 139.156 13.1771C138.622 9.70574 136.037 6.74143 132.652 5.71802C131.398 5.33861 127.439 5.16248 126.018 5.42279ZM173.231 5.42997C169.332 6.01151 166.394 8.74731 165.488 12.6377C165.103 14.2934 165.105 18.5498 165.492 20.055C165.927 21.7445 166.831 23.3105 168.056 24.4943C170.031 26.4034 172.073 27.145 175.338 27.1403C178.825 27.1355 181.038 26.3532 183.104 24.3946C184.182 23.3733 185.302 21.6615 185.302 21.0356C185.302 20.9165 184.382 20.6684 183.202 20.4696L181.102 20.1157L180.142 21.1791C178.499 23.0009 175.998 23.6907 173.697 22.9573C171.646 22.3038 169.985 20.1251 169.985 18.0881V17.6385H177.835H185.685V15.6425C185.685 12.1566 184.771 9.71039 182.765 7.82923C182.111 7.2155 181.119 6.50148 180.56 6.24233C178.696 5.37779 175.762 5.0525 173.231 5.42997ZM87.8526 16.1837V26.7553H90.0543H92.256L92.2588 18.7539C92.2607 13.6731 92.3276 10.8579 92.4421 11.0414C92.5412 11.2003 93.94 14.8032 95.5503 19.0477L98.4781 26.765L100.95 26.7116L103.421 26.6583L106.406 18.7622L109.391 10.8661L109.441 18.8107L109.491 26.7553H111.882H114.273V16.1837V5.61211L110.683 5.61503L107.093 5.61774L104.615 12.3556C103.251 16.0613 101.926 19.6479 101.669 20.3254L101.202 21.5577L98.234 13.5848L95.2662 5.61211H91.5593H87.8526V16.1837ZM144.976 12.9346C144.799 19.9092 144.77 20.2959 144.368 21.0751C143.847 22.0854 143.607 22.2184 141.986 22.3936L140.693 22.533V24.6441V26.7553H142.777C148.408 26.7553 149.489 24.8367 149.501 14.8259C149.503 13.0122 149.558 11.2011 149.623 10.8009L149.742 10.0735H152.971H156.201V18.4144V26.7553H158.69H161.179V16.1837V5.61211H153.17H145.162L144.976 12.9346ZM187.025 7.84281V10.0735H190.567H194.108V18.4144V26.7553H196.502H198.895V18.4144V10.0735H202.437H205.978V7.84281V5.61211H196.502H187.025V7.84281ZM11.4622 7.45584L9.84255 9.10559L12.7086 12.0142C14.2848 13.6139 15.6638 14.9229 15.773 14.9229C16.0827 14.9229 18.9298 11.9426 18.9298 11.6185C18.9298 11.2998 13.5854 5.80609 13.2753 5.80609C13.169 5.80609 12.3533 6.54843 11.4622 7.45584ZM173.378 9.57636C172.364 9.94258 171.462 10.606 170.953 11.359C170.465 12.0808 169.975 13.3911 170.111 13.613C170.16 13.6933 172.614 13.759 175.564 13.759H180.929L180.794 13.1286C180.443 11.4779 179.264 10.1449 177.668 9.59401C176.617 9.23128 174.358 9.22197 173.378 9.57636ZM126.716 9.67276C125.294 10.1111 124.109 11.1803 123.478 12.5952C123.148 13.3331 123.088 13.8731 123.085 16.0867C123.083 17.527 123.171 19.0305 123.28 19.4279C123.788 21.2796 125.797 22.8104 127.985 23.0114C130.517 23.244 132.613 22.2652 133.685 20.3489C134.253 19.3346 134.283 19.1736 134.346 16.7338C134.432 13.4186 134.155 12.3498 132.88 11.0711C131.732 9.9195 130.548 9.48383 128.632 9.5073C127.842 9.517 126.98 9.59149 126.716 9.67276ZM15.0481 18.1803C12.234 21.0387 9.93158 23.4672 9.93158 23.577C9.93158 23.687 10.6694 24.5065 11.5714 25.3984L13.2112 27.0201L18.5092 21.6524L23.8073 16.2846L22.1864 14.6338C21.295 13.7259 20.4754 12.9831 20.3651 12.9831C20.2551 12.9831 17.8623 15.3219 15.0481 18.1803ZM73.2065 17.6373C70.1117 17.8505 69.0903 18.5515 69.0903 20.4624C69.0903 22.3183 70.2763 23.1633 72.8236 23.1223C74.3387 23.0981 75.4905 22.7398 76.4585 21.9919C77.3326 21.3162 78.28 19.3893 78.28 18.2864V17.4445L76.7005 17.475C75.8319 17.4917 74.2595 17.5648 73.2065 17.6373Z" fill="#A2D0FF"/>
</svg>
