<svg width="237" height="44" viewBox="0 0 237 44" fill="none" xmlns="http://www.w3.org/2000/svg">
<path fill-rule="evenodd" clip-rule="evenodd" d="M0.130351 0.199488C0.130351 0.347741 0.450617 0.637613 0.842242 0.84395C1.23387 1.05029 1.80276 1.61508 2.10645 2.09884C2.63545 2.94161 2.65877 3.53877 2.65877 16.3098C2.65877 24.8847 2.55595 29.8298 2.37082 30.1706C2.21237 30.4618 1.61426 31.0137 1.04143 31.397L0 32.0937L5.19225 32.0907L10.3845 32.0877L9.43747 31.353C7.92126 30.1767 7.71562 29.3411 7.71562 24.358V19.9237H10.8874C14.2637 19.9237 16.4555 19.513 18.4642 18.504C22.0521 16.702 23.988 13.7843 24.0442 10.0934C24.1161 5.37451 21.4126 1.97659 16.5651 0.692377C14.5735 0.164918 0.130351 -0.268227 0.130351 0.199488ZM140.945 0.205025C140.727 0.284407 140.945 0.569296 141.507 0.938268C143.454 2.21833 143.424 1.95888 143.341 16.6937L143.267 29.9211L142.084 31.0073L140.901 32.0937H149.554C157.211 32.0937 158.454 32.0318 160.347 31.5549C163.392 30.7882 165.386 29.7383 167.559 27.7576C170.826 24.7801 172.332 21.1045 172.34 16.0913C172.352 8.3711 168.005 2.68217 160.684 0.838691C158.971 0.407486 157.217 0.302661 149.968 0.19894C145.201 0.130898 141.14 0.133665 140.945 0.205025ZM7.71562 10.1048V17.711H10.3738C13.7698 17.711 15.6251 17.082 17.2039 15.3957C18.6238 13.8791 19.0812 12.5567 19.0814 9.96647C19.082 7.51255 18.4162 5.81595 16.8747 4.34199C15.4526 2.98227 13.7729 2.49851 10.475 2.49851H7.71562V10.1048ZM51.239 3.30699C49.1674 5.34685 51.1373 8.66096 53.89 7.76646C55.0915 7.37619 55.7556 6.43219 55.7556 5.11451C55.7556 3.72132 54.5083 2.49851 53.0868 2.49851C52.3268 2.49851 51.847 2.70845 51.239 3.30699ZM148.464 16.1613V29.881H152.287C158.789 29.881 162.02 28.6001 164.671 24.9723C166.059 23.0738 166.748 20.7604 166.917 17.4344C167.174 12.3971 165.946 8.92731 162.797 5.79243C160.109 3.11586 158.88 2.709 153.03 2.55881L148.464 2.44154V16.1613ZM31.7356 11.9966C29.6747 12.6715 28.3127 13.5218 27.0134 14.9448C25.1283 17.009 24.4813 18.8732 24.4698 22.2748C24.4574 25.9695 25.1331 27.7305 27.4042 29.9222C29.7202 32.1573 31.392 32.7542 35.3878 32.7717C38.1443 32.7838 38.645 32.7078 40.0232 32.0688C44.1662 30.1479 46.3592 26.3987 46.1547 21.5869C45.9808 17.4972 43.9412 14.3759 40.3342 12.6798C38.704 11.9131 38.1362 11.7961 35.6687 11.7176C33.8485 11.66 32.4635 11.7582 31.7356 11.9966ZM63.7294 12.2904C61.7258 13.2089 60.7361 14.5615 60.5875 16.5842C60.4984 17.7979 60.6049 18.4279 61.0429 19.2729C61.7292 20.5972 63.4322 22.1658 65.0841 22.9944C67.5656 24.2394 69.8331 25.8176 70.2326 26.5782C70.7191 27.5051 70.7677 28.8626 70.3418 29.6459C69.9584 30.3509 68.4365 30.9874 67.1335 30.9874C65.0316 30.9874 63.0872 29.7007 61.7005 27.3917L60.953 26.147L60.8709 28.6314C60.7762 31.4888 60.7917 31.5118 63.3145 32.284C64.304 32.5869 65.83 32.7689 67.4344 32.7753C69.7255 32.7841 70.1497 32.7011 71.637 31.9521C74.3528 30.5849 75.5462 28.2627 74.8534 25.6943C74.4025 24.0225 72.2971 22.0933 68.8579 20.2003C65.0046 18.0797 63.9118 16.6854 64.6391 14.8193C64.915 14.1117 66.2826 13.5621 67.7671 13.5621C69.4409 13.5621 71.3745 14.6663 72.3098 16.1563C72.6556 16.707 73.0231 17.1581 73.1265 17.1584C73.2296 17.1589 73.2728 16.1651 73.2225 14.9504L73.1312 12.7418L71.2967 12.1839C68.6703 11.3851 65.61 11.4283 63.7294 12.2904ZM84.7803 12.1225C80.1701 13.7453 77.7394 17.6159 78.0013 22.9167C78.142 25.7634 78.9567 27.7858 80.723 29.6722C84.8359 34.0653 93.1249 34.0014 97.194 29.5455C99.0375 27.5272 99.6864 25.645 99.7061 22.2604C99.7215 19.5868 99.6814 19.399 98.6607 17.3658C97.453 14.96 96.0404 13.5851 93.682 12.52C91.5547 11.5591 86.9631 11.3541 84.7803 12.1225ZM111.728 12.4461C110.76 12.8969 109.654 13.5998 109.27 14.0077L108.572 14.7493V13.4642V12.1792H105.308H102.045L103.061 13.2864L104.077 14.3936V22.3032V30.2129L103.121 31.1533L102.166 32.0937H106.241H110.315L109.444 31.116L108.572 30.1382V23.6157V17.0928L109.625 16.0636C111.73 14.0075 114.364 13.6407 116.187 15.1506C117.725 16.4246 117.927 17.2895 118.065 23.164C118.134 26.0873 118.108 28.9074 118.008 29.4313C117.907 29.9626 117.434 30.7619 116.938 31.2388L116.05 32.0937H120.232H124.414L123.446 31.111L122.478 30.1283L122.332 23.2973C122.199 17.1158 122.13 16.348 121.596 15.2217C120.443 12.7894 118.376 11.6257 115.208 11.6263C113.885 11.6263 113.082 11.8155 111.728 12.4461ZM184.424 11.9198C183.538 12.2843 181.615 14.1098 181.615 14.5864C181.615 14.7836 181.494 14.9451 181.347 14.9451C181.191 14.9451 181.149 14.3687 181.246 13.5621L181.412 12.1792L177.932 12.188L174.451 12.1966L175.231 12.7697C176.78 13.9071 176.839 14.26 176.839 22.3984V29.8794L175.823 30.9865L174.807 32.0937H178.968H183.13L182.232 31.1815L181.334 30.2696V24.5063C181.334 18.2313 181.526 17.0527 182.763 15.7489C183.746 14.7136 185.064 14.6727 186.391 15.6366C186.914 16.0169 187.499 16.3281 187.689 16.3281C188.29 16.3281 189.2 14.9078 189.2 13.9704C189.2 12.5169 188.423 11.8329 186.648 11.7242C185.811 11.673 184.811 11.761 184.424 11.9198ZM197.428 12.0273C192.439 13.5624 189.665 18.2224 190.359 23.9025C191.143 30.3119 197.453 34.2348 204.197 32.5056C208.76 31.3353 211.541 27.9191 211.886 23.0611C212.139 19.5014 210.46 15.6346 207.8 13.6479C205.394 11.8509 200.491 11.0847 197.428 12.0273ZM223.638 12.1828C222.878 12.4749 221.772 13.0975 221.18 13.566L220.103 14.4179V13.2986V12.1792L216.662 12.1811L213.22 12.1828L214.044 12.7174C215.617 13.7386 215.588 13.451 215.596 27.8066C215.605 42.3594 215.679 41.6801 213.923 43.1175L213.22 43.692L217.938 43.7014L222.655 43.7106L221.52 42.6471L220.384 41.5836L220.328 38.4291C220.298 36.694 220.251 34.7144 220.225 34.0299C220.199 33.3453 220.234 32.5197 220.303 32.195C220.42 31.6459 220.483 31.6316 221.214 31.9906C222.48 32.6126 225.123 32.9821 226.873 32.7822C230.022 32.4223 233.383 30.2328 234.706 27.6793C236.777 23.6815 236.387 17.8239 233.842 14.7291C232.92 13.6078 230.873 12.2813 229.514 11.9242C227.793 11.4722 225.189 11.5867 223.638 12.1828ZM49.7062 13.1564L50.6988 14.1339V22.1733V30.2129L49.7436 31.1533L48.7884 32.0937H53.0339H57.2794L56.3068 31.2947L55.3342 30.4953L55.253 21.3374L55.1719 12.1792H51.9428H48.7134L49.7062 13.1564ZM32.8324 13.8315C31.8193 14.2348 30.3242 16.2315 29.7831 17.9038C28.2183 22.7414 29.6368 28.7517 32.7226 30.3581C35.7277 31.9228 39.1209 30.6043 40.6295 27.286C41.1779 26.0801 41.2742 25.3991 41.2804 22.6896C41.2855 20.3356 41.1571 19.1415 40.7863 18.0957C40.2219 16.504 38.6815 14.5811 37.4805 13.9698C36.6161 13.5295 33.8013 13.446 32.8324 13.8315ZM85.7691 14.2445C83.7588 15.5893 82.7345 18.2166 82.7289 22.0427C82.7213 27.1242 84.8275 30.4906 88.265 30.8914C90.9339 31.2026 93.0934 29.92 94.2705 27.3245C94.8304 26.0895 94.931 25.4119 94.938 22.8279C94.9479 19.2099 94.3928 17.1985 92.9159 15.4999C91.5873 13.9718 90.6673 13.5621 88.5639 13.5621C87.1401 13.5621 86.5872 13.6971 85.7691 14.2445ZM198.539 14.0191C197.311 14.6149 196.056 16.3565 195.497 18.241C195.155 19.3935 195.069 20.5339 195.159 22.7356C195.268 25.3764 195.376 25.8776 196.197 27.5178C197.282 29.6893 198.54 30.6466 200.628 30.89C204.743 31.3699 207.473 27.4813 207.106 21.6607C207.022 20.3251 206.719 18.6276 206.434 17.8886C205.833 16.3305 204.383 14.5554 203.233 13.9698C202.181 13.4341 199.69 13.4601 198.539 14.0191ZM222.984 14.6602C222.329 14.9534 221.475 15.5049 221.088 15.8863L220.384 16.5795V23.1054V29.6315L221.578 30.1651C223.92 31.2117 227.155 30.7443 228.908 29.1057C231.896 26.3135 232.061 19.102 229.212 15.8247C227.7 14.0866 225.281 13.6341 222.984 14.6602Z" fill="#A2D0FF"/>
</svg>
