<svg width="306" height="23" viewBox="0 0 306 23" fill="none" xmlns="http://www.w3.org/2000/svg">
<path fill-rule="evenodd" clip-rule="evenodd" d="M102.221 0.366351C100.274 0.911539 99.2663 1.42201 97.9974 2.50686C95.4896 4.65001 94.286 7.49456 94.286 11.2767C94.286 18.3257 98.7551 22.5926 106.127 22.5823C113.238 22.5726 117.537 18.3686 117.561 11.4035C117.578 6.40497 114.991 2.39246 110.689 0.743218C108.696 -0.0210452 104.304 -0.216446 102.221 0.366351ZM156.149 0.334785C151.288 1.73103 148.277 5.92527 148.277 11.2996C148.277 15.8399 150.521 19.4806 154.542 21.4654L156.545 22.454H159.983C163.206 22.454 163.513 22.4085 164.906 21.7255C167.05 20.6743 169.012 18.3823 169.715 16.11C169.881 15.5703 169.804 15.5504 167.391 15.5054C164.906 15.4591 164.894 15.462 164.512 16.195C163.947 17.2798 163.024 18.0454 161.734 18.5001C160.197 19.0416 159.111 19.0082 157.393 18.3662C155.582 17.6896 154.242 16.2539 153.69 14.4005C153.159 12.6138 153.156 9.19167 153.684 7.9293C155.01 4.75915 158.155 3.25903 161.518 4.19161C162.63 4.5001 164.232 5.7801 164.479 6.55909C164.624 7.01644 164.899 7.06877 167.158 7.06877H169.675L169.504 6.21404C169.054 3.96622 166.478 1.46988 163.696 0.586214C161.929 0.0252459 157.716 -0.1152 156.149 0.334785ZM180.013 0.332947C177.071 1.04829 174.592 2.95764 173.281 5.51921C170.745 10.473 171.949 17.051 175.973 20.2277C178.182 21.9706 179.753 22.4203 183.7 22.4382C187.071 22.4537 187.151 22.4403 188.951 21.5622C193.262 19.4585 195.431 15.4262 195.08 10.1697C194.746 5.17784 191.171 1.17216 186.212 0.233007C184.387 -0.112831 181.665 -0.0689097 180.013 0.332947ZM249.604 0.236691C246.121 1.11694 244.201 3.53728 244.464 6.71294C244.722 9.81313 246.623 11.2099 252.631 12.7142C256.457 13.6721 257.088 13.9124 258.036 14.7743C258.679 15.3597 258.813 16.4887 258.343 17.3653C257.893 18.2053 256.065 18.8912 254.259 18.8978C251.43 18.908 249.203 17.901 248.599 16.3393C248.383 15.7831 248.22 15.7476 245.856 15.7476H243.343L243.508 16.4708C244.479 20.7348 248.53 22.8698 254.976 22.515C258.857 22.3017 261.36 20.9994 262.63 18.533C263.053 17.7098 263.139 17.1241 263.062 15.5909C262.98 13.9748 262.841 13.5001 262.169 12.5425C261.108 11.0318 258.952 9.97566 255.005 9.03361C250.277 7.9051 249.147 7.32467 249.147 6.02574C249.147 3.52255 254.479 2.87848 256.719 5.11104C257.189 5.58022 257.575 6.21272 257.575 6.51648C257.575 7.03432 257.715 7.06877 259.813 7.06877H262.052V6.19536C262.052 5.71514 261.726 4.67946 261.328 3.89416C260.545 2.3509 258.886 1.01463 257.095 0.484429C255.771 0.0928293 250.821 -0.0710129 249.604 0.236691ZM290.891 0.484429C290.022 0.769778 288.877 1.36179 288.347 1.8002C285.527 4.13165 285.626 8.49894 288.544 10.5035C289.937 11.4605 290.866 11.8001 295.051 12.881C298.991 13.8985 300.167 14.455 300.421 15.422C301.045 17.7948 299.222 19.0645 295.5 18.8494C293.081 18.7095 291.302 17.8445 290.763 16.5466L290.432 15.7476H287.969H285.505L285.662 16.6023C286.174 19.3898 288.832 21.6027 292.545 22.332C294.687 22.7527 299.16 22.5274 300.89 21.9114C302.676 21.275 304.504 19.4211 304.965 17.7787C305.456 16.0259 305.177 14.0429 304.253 12.7311C302.944 10.8709 301.578 10.2697 294.612 8.48816C292.265 7.888 291.178 7.16372 291.076 6.13173C290.909 4.44488 293.505 3.28874 296.195 3.85234C298.113 4.2542 298.885 4.77809 299.415 6.0402L299.845 7.06352L302.018 7.06614L304.191 7.06877V6.19536C304.191 4.73232 302.912 2.57972 301.472 1.61873C299.723 0.451559 298.721 0.197503 295.368 0.0731059C292.99 -0.0152604 292.188 0.058377 290.891 0.484429ZM0 11.2767V22.3422L2.39929 22.2667L4.79858 22.191L4.75749 18.6161L4.71614 15.0412L6.18258 13.5534C6.98902 12.7353 7.69616 12.0657 7.75384 12.0657C7.93635 12.0657 14.7268 21.4333 14.9325 21.969C15.0347 22.2349 15.7784 22.3225 17.9373 22.3225C19.5151 22.3225 20.8061 22.2628 20.8061 22.1897C20.8061 22.1166 19.588 20.4302 18.0992 18.442C16.6107 16.4538 14.4742 13.5887 13.352 12.0752L11.3114 9.32316L15.8585 4.77704L20.4056 0.230904H17.4279H14.4505L9.59005 5.16206L4.72957 10.0932L4.75855 5.22781L4.78752 0.362402L2.39376 0.286661L0 0.211177V11.2767ZM27.1462 10.4254C24.9118 16.0285 22.9231 21.002 22.7274 21.4775L22.3713 22.3417L24.9165 22.2665L27.462 22.191L28.358 19.8388C28.851 18.5451 29.3827 17.3319 29.5397 17.1431C29.9413 16.6599 39.1126 16.6463 39.4213 17.1283C39.5369 17.3093 40.0508 18.5222 40.5633 19.824L41.4945 22.191L44.0447 22.2662L46.5949 22.3412L46.0326 20.9512C45.7235 20.1867 44.148 16.3656 42.5314 12.4602C40.9149 8.5547 39.1379 4.20555 38.5825 2.79511L37.5727 0.230904L34.391 0.234324L31.2092 0.237478L27.1462 10.4254ZM49.5133 11.2509V22.3225H51.8837H54.254V18.2461V14.1696H56.855H59.4558L60.7708 16.4708C61.4937 17.7366 62.5261 19.571 63.0647 20.5473L64.0439 22.3225H66.6705C68.1151 22.3225 69.2486 22.2339 69.1891 22.1252C69.1298 22.0166 67.9968 20.0749 66.6715 17.81C65.3463 15.5454 64.262 13.6365 64.262 13.5684C64.262 13.5003 64.6146 13.2986 65.0455 13.1203C66.1229 12.6748 67.8106 10.7836 68.2104 9.57353C68.4074 8.97785 68.4906 7.86828 68.4164 6.83445C68.2104 3.96833 66.9552 2.14024 64.3937 0.975177C63.1543 0.411316 62.6776 0.370294 56.2951 0.27772L49.5133 0.179097V11.2509ZM72.9532 11.2496V22.3225H75.3235H77.6938V18.3776V14.4326H81.0623C84.963 14.4326 86.9259 14.0211 88.6391 12.8439C90.9989 11.2228 91.941 8.13942 90.9944 5.13444C90.3555 3.10649 89.0953 1.71683 87.2346 0.989118C85.8553 0.449452 85.1814 0.389493 79.3398 0.287977L72.9532 0.176994V11.2496ZM118.516 0.4989C118.516 0.760054 123.003 12.6364 125.544 19.1008L126.81 22.3225H129.87H132.93L133.348 21.2048C133.578 20.5901 135.383 15.8265 137.36 10.6192C139.337 5.41191 141.017 0.939941 141.093 0.681153C141.221 0.248527 141.025 0.216967 138.631 0.286661L136.03 0.362402L134.536 4.57032C133.714 6.88468 132.364 10.7015 131.535 13.0519C130.705 15.4026 129.956 17.3253 129.868 17.3248C129.781 17.3245 129.369 16.348 128.953 15.1551C128.537 13.9621 127.123 10.1161 125.812 6.60853L123.428 0.230904H120.972C119.479 0.230904 118.516 0.336106 118.516 0.4989ZM198.365 8.318C198.445 16.1111 198.471 16.453 199.054 17.7201C200.675 21.2361 203.995 22.788 209.345 22.5308C211.65 22.4201 212.218 22.2933 213.716 21.5572C214.917 20.9665 215.716 20.3461 216.36 19.504C217.944 17.4329 218.069 16.5826 218.069 7.94139V0.230904H215.699H213.329V7.60318C213.329 13.6426 213.255 15.1506 212.924 15.9438C212.378 17.2477 211.816 17.8342 210.563 18.4089C207.98 19.5937 204.63 18.5217 203.559 16.1681C203.119 15.1995 203.068 14.3369 203.063 7.66051L203.057 0.230904H200.67H198.282L198.365 8.318ZM222.283 11.2504V22.3225H224.522H226.761V18.2461V14.1696L229.592 14.1767L232.423 14.1838L234.662 18.249L236.9 22.3141L239.468 22.3183C240.88 22.3206 242.036 22.262 242.036 22.1878C242.036 22.1139 240.9 20.1517 239.511 17.8274C238.123 15.503 237.026 13.57 237.075 13.5321C237.124 13.494 237.666 13.1868 238.279 12.8494C241.107 11.2943 242.027 7.26997 240.324 3.91178C239.59 2.46584 238.463 1.50064 236.75 0.849731C235.803 0.489691 234.333 0.384757 228.933 0.292183L222.283 0.178302V11.2504ZM266.002 11.2767V22.3225H274.43H282.858V20.35V18.3776H276.801H270.743V15.6161V12.8547H275.726H280.71L280.664 11.014L280.619 9.173H275.681L270.743 9.17273V6.67428V4.17583H276.537H282.331V2.20337V0.230904H274.167H266.002V11.2767ZM102.977 4.46092C101.421 5.16548 100.699 5.86636 99.8834 7.46327C98.6184 9.94121 98.8046 13.6918 100.301 15.8723C102.668 19.3217 107.825 19.8627 110.726 16.9658C112.097 15.5961 112.722 13.9016 112.72 11.5586C112.718 9.36182 112.394 8.21228 111.332 6.6372C109.63 4.11324 105.895 3.14016 102.977 4.46092ZM180.521 4.53903C178.052 5.68674 176.713 8.06001 176.729 11.2578C176.745 14.4992 177.97 16.8098 180.292 17.9812C183.92 19.8114 187.942 18.5372 189.651 15.0167C190.526 13.2137 190.526 9.8581 189.651 7.91352C188.08 4.42094 184.009 2.91661 180.521 4.53903ZM33.7589 5.53841C33.4671 6.30767 32.6851 8.33299 32.0212 10.039C31.3572 11.7451 30.8141 13.195 30.8141 13.2607C30.8141 13.3267 32.4141 13.3807 34.3696 13.3807C36.4149 13.3807 37.9251 13.2755 37.9251 13.1332C37.9251 12.8313 34.6267 4.47617 34.4297 4.27971C34.3525 4.20265 34.0507 4.76915 33.7589 5.53841ZM54.254 7.33177V10.4877H57.7038C62.5153 10.4877 63.7352 9.84942 63.7352 7.33177C63.7352 4.79624 62.5459 4.17583 57.6862 4.17583H54.254V7.33177ZM77.6933 7.39752L77.6927 10.6192L81.1829 10.484C85.0181 10.3354 85.5888 10.1392 86.2533 8.7409C86.7921 7.60713 86.7492 6.63615 86.1145 5.61073C85.3834 4.42936 84.4471 4.17583 80.815 4.17583H77.6938L77.6933 7.39752ZM226.761 7.33177V10.4877H230.324C234.182 10.4877 235.318 10.2218 236.076 9.14196C236.608 8.38243 236.631 6.75896 236.122 5.77615C235.451 4.48038 234.351 4.17583 230.342 4.17583H226.761V7.33177ZM140.639 19.824V22.3225H143.141H145.643V19.824V17.3256H143.141H140.639V19.824Z" fill="#A2D0FF"/>
</svg>
