<svg width="237" height="42" viewBox="0 0 237 42" fill="none" xmlns="http://www.w3.org/2000/svg">
<path fill-rule="evenodd" clip-rule="evenodd" d="M12.7938 0.359689C7.34482 1.57742 2.83314 5.5882 1.00076 10.8433C-1.59825 18.2959 0.786994 25.2591 9.07199 34.4043C11.3076 36.8722 16.5361 41.4189 17.1382 41.4189C17.8962 41.4189 26.3224 32.86 28.7102 29.6648C32.8559 24.1174 34.2222 20.4573 33.9748 15.5598C33.8112 12.3207 33.1352 10.1507 31.5208 7.68154C29.3884 4.42053 26.6462 2.27436 22.8664 0.908671C20.2473 -0.0374665 15.6841 -0.286373 12.7938 0.359689ZM13.4334 5.5752C11.6016 6.16374 9.95866 7.22576 8.50848 8.75822C5.91451 11.4993 4.95873 15.3909 5.95284 19.1635C6.9089 22.7918 8.97995 25.3537 12.1612 26.843C13.9329 27.6727 14.2479 27.7288 17.1306 27.7288C19.8841 27.7288 20.3768 27.6508 21.8082 26.9876C28.8893 23.707 30.6581 14.2567 25.2592 8.55134C24.5547 7.80682 23.1929 6.78048 22.2333 6.27049C20.6124 5.40925 20.2792 5.3379 17.5503 5.26959C15.6312 5.22175 14.2037 5.32767 13.4334 5.5752ZM16.2213 7.57921C15.7462 7.77557 15.7795 8.64067 16.2778 9.04944C16.9574 9.607 17.8766 9.13297 17.7764 8.27616C17.6908 7.54353 17.0271 7.24595 16.2213 7.57921ZM12.2342 11.8262V13.4856H17.1306H22.027V11.8262V10.1668H17.1306H12.2342V11.8262ZM51.2096 11.2169C48.3224 12.2385 46.2673 14.2793 45.4598 16.9264C44.9769 18.5103 45.0625 21.6645 45.6344 23.351C46.2788 25.2502 47.9746 27.1018 49.9466 28.059C51.4309 28.7795 51.7874 28.8351 54.9312 28.8351C58.2498 28.8351 58.355 28.816 60.2473 27.8638L62.1776 26.8922V22.7473V18.6021L58.4703 18.5249L54.763 18.4478V20.3918V22.3358H56.4505H58.1382L58.0699 23.3358C57.9946 24.4429 57.4513 24.9255 55.9264 25.2403C53.549 25.7309 50.9782 24.4847 50.1047 22.4182C49.1238 20.0975 49.9908 16.5422 51.8087 15.4315C53.7205 14.2636 56.6869 14.4538 58.3679 15.8519L59.2003 16.5441L60.5984 15.3607C61.3673 14.7097 62.0058 14.0326 62.017 13.8559C62.0475 13.3835 60.4045 12.0967 58.9636 11.4639C57.1309 10.6591 53.145 10.5321 51.2096 11.2169ZM203.986 11.2161C199.963 12.6346 197.807 16.0837 198.075 20.6725C198.276 24.095 199.835 26.4884 202.914 28.1022C204.203 28.7776 204.577 28.8351 207.671 28.8351C210.588 28.8351 211.217 28.7507 212.47 28.1904C215.044 27.0391 215.114 26.8834 215.024 22.4475L214.945 18.6021H211.308H207.671L207.588 20.4689L207.505 22.3358H209.146H210.786L210.627 23.5112C210.479 24.6089 210.389 24.7115 209.268 25.0622C206.993 25.7738 204.385 24.8716 203.272 22.9879C202.99 22.5108 202.69 21.3288 202.606 20.3613C202.476 18.8742 202.553 18.4099 203.103 17.3597C204.61 14.4821 208.248 13.7895 211.028 15.8513L211.868 16.4736L213.407 15.0952L214.945 13.7165L213.966 12.9009C212.162 11.3978 210.703 10.887 207.951 10.7926C206.042 10.7274 205.083 10.8297 203.986 11.2161ZM69.0325 19.8466V28.6968H75.8875H82.7425V26.8991V25.1014H77.986H73.2295V23.442V21.7826H77.4264H81.6233V19.9849V18.1872H77.4264H73.2295V16.5278V14.8684H77.8461H82.4627V12.9325V10.9965H75.7476H69.0325V19.8466ZM86.6596 12.9325V14.8684H89.3177H91.9757V21.7826V28.6968H94.2141H96.4524V21.7826V14.8684H99.2504H102.048V12.9325V10.9965H94.354H86.6596V12.9325ZM117.157 12.7942V14.5919H123.453H129.748V12.7942V10.9965H123.453H117.157V12.7942ZM136.183 19.8466V28.6968H138.282H140.38V23.567V18.4375L142.801 21.4236C144.132 23.0662 146.04 25.3747 147.042 26.5534C148.851 28.6844 148.869 28.6968 150.217 28.6968H151.572V19.8466V10.9965H149.48H147.388L147.312 15.741L147.235 20.4858L143.361 15.741L139.487 10.9965H137.835H136.183V19.8466ZM158.567 19.8466V28.6968H165.422H172.277V26.8991V25.1014H167.66H163.044V23.442V21.7826H167.101H171.158V19.9849V18.1872H167.101H163.044V16.5278V14.8684H167.52H171.997V12.9325V10.9965H165.282H158.567V19.8466ZM178.152 19.8466V28.6968H180.251H182.349V26.4843V24.2717L183.958 24.2883L185.567 24.3046L187.205 26.5009L188.844 28.6968H191.332C192.701 28.6968 193.819 28.6036 193.818 28.4894C193.816 28.3752 192.94 27.1638 191.871 25.797C190.188 23.6442 189.992 23.2788 190.406 23.0628C192.28 22.0838 193.261 20.2416 193.261 17.7038C193.261 15.2238 192.496 13.6731 190.678 12.4722C188.88 11.2847 187.251 10.9965 182.336 10.9965H178.152V19.8466ZM219.086 11.2039C219.15 11.3181 220.68 13.883 222.486 16.904L225.77 22.3963L225.757 25.5467L225.744 28.6968H227.982H230.22L230.176 25.5489L230.132 22.4007L233.451 16.9062C235.276 13.8838 236.811 11.3181 236.863 11.2039C236.914 11.0897 235.877 10.9965 234.558 10.9965H232.16L231.508 12.0336C231.149 12.6042 230.26 14.1599 229.531 15.4907C228.803 16.8218 228.118 17.9096 228.011 17.9085C227.904 17.9074 226.959 16.3517 225.912 14.4514L224.008 10.9965H221.489C220.103 10.9965 219.022 11.0897 219.086 11.2039ZM182.349 17.7724V20.6763H184.462C187.637 20.6763 188.785 19.9056 188.785 17.7724C188.785 15.6707 187.55 14.8684 184.317 14.8684H182.349V17.7724ZM12.2342 16.8044V18.4638H17.1306H22.027V16.8044V15.145H17.1306H12.2342V16.8044ZM117.157 19.7084V21.506H123.453H129.748V19.7084V17.9107H123.453H117.157V19.7084ZM12.2342 21.7826V23.442H17.1306H22.027V21.7826V20.1232H17.1306H12.2342V21.7826ZM117.157 26.9044V28.7073L123.523 28.6329L129.888 28.5585L129.929 26.83L129.97 25.1014H123.563H117.157V26.9044Z" fill="#A2D0FF"/>
</svg>
