<svg width="109" height="38" viewBox="0 0 109 38" fill="none" xmlns="http://www.w3.org/2000/svg">
<path fill-rule="evenodd" clip-rule="evenodd" d="M0 3.55165V7.10329L8.01133 7.11823C12.4176 7.12638 16.2194 7.14299 16.4598 7.1551C18.0843 7.2369 19.1791 7.83702 19.9857 9.08804C21.1936 10.9615 20.5878 13.7924 18.7385 14.9164C17.6926 15.5519 17.5686 15.5646 12.3547 15.5646H7.61473V12.3639V9.16325L7.05135 9.2207C3.43752 9.58913 0.643867 12.0204 0.111576 15.2605C0.0407169 15.6922 0.00126866 19.6711 0.000845617 26.4582L0 36.9861L9.7035 36.955L19.407 36.9237L20.4171 36.6492C24.4995 35.5399 27.116 32.8723 27.9319 28.9877C28.1853 27.7817 28.2011 25.6014 27.9647 24.4654C27.5186 22.3214 26.1642 20.3214 24.4512 19.277L23.8012 18.8808L24.5228 18.3801C27.7427 16.1467 28.9945 11.4705 27.5346 7.1292C26.4879 4.0166 23.9547 1.51989 20.8348 0.525747C19.242 0.018175 18.8562 0.000835452 9.12182 0.000417611L0 0V3.55165ZM57.7098 0.0696741C57.671 0.107907 57.6393 8.42816 57.6393 18.5591V36.9789H61.4336H65.2278L65.1878 30.1629C65.1658 26.414 65.1762 23.1235 65.2109 22.8507L65.2739 22.3545H73.7777H82.2814V18.9595V15.5646H73.7815H65.2815L65.2275 15.0909C65.1978 14.8305 65.1797 12.9384 65.1873 10.8864L65.2012 7.15552L73.7942 7.12878L82.3872 7.10204V3.55102V0H70.0838C63.3168 0 57.7486 0.0313372 57.7098 0.0696741ZM84.4672 0.0696741C84.4284 0.107907 84.3966 1.70615 84.3966 3.62132V7.10329L88.0189 7.10277L91.6412 7.10225L91.6388 4.25623C91.6375 2.69089 91.6257 1.09286 91.6123 0.705106L91.5883 0H88.063C86.124 0 84.5059 0.0313372 84.4672 0.0696741ZM95.5873 6.55488C95.5596 7.05764 95.5409 8.27951 95.5457 9.27032L95.5543 11.0716L89.9763 11.0723L84.3983 11.0728L84.371 24.0258L84.3438 36.9789H87.8069H91.27L91.297 27.1858L91.3239 17.3926L94.9462 17.3651C96.9385 17.35 98.5685 17.3778 98.5685 17.427C98.5685 17.4761 98.3663 17.5761 98.119 17.6492C97.0525 17.9644 95.6919 19.1947 95.1826 20.3041C94.6809 21.3972 94.6359 21.9421 94.6813 26.385C94.7206 30.2322 94.7356 30.4919 94.9604 31.2308C95.47 32.9055 96.409 34.2689 97.6525 35.1399C99.7336 36.5975 101.441 36.9735 105.998 36.9768L108.721 36.9789V33.854V30.7289L106.418 30.6941C104.19 30.6602 104.097 30.6504 103.59 30.3922C102.933 30.0581 102.43 29.4186 102.28 28.7259C102.205 28.3801 102.164 26.2958 102.164 22.7672V17.3404H105.445H108.725L108.697 14.2327L108.669 11.125L105.416 11.0974L102.164 11.0698V8.35535V5.64085H98.9009H95.6376L95.5873 6.55488ZM41.1936 10.3402C35.2764 10.9376 30.6184 15.275 29.4404 21.2847C29.2129 22.4453 29.1771 25.6624 29.3816 26.5851C29.88 28.8354 30.7283 30.8022 31.8263 32.2533C34.5438 35.845 38.9409 37.7223 43.6943 37.3206C44.4711 37.255 45.5105 37.0981 46.004 36.972C49.8064 36.0005 53.0429 33.3323 54.5594 29.9188C54.787 29.4067 55.0053 28.8808 55.0449 28.7503L55.1168 28.5128L51.3594 28.5202L47.6018 28.5275L47.2798 28.9293C46.8215 29.5008 45.6568 30.2526 44.7439 30.5662C43.7108 30.9211 42.3356 31.003 41.2465 30.7747C39.251 30.3563 37.6386 28.985 37.0242 27.1835C36.9033 26.8292 36.8045 26.491 36.8045 26.4318C36.8045 26.3585 39.8026 26.324 46.1596 26.324H55.5145L55.5961 25.9322C55.7643 25.1247 55.6632 22.2589 55.4267 21.1272C54.5142 16.7622 52.1091 13.4845 48.4911 11.675C46.3253 10.592 43.6136 10.096 41.1936 10.3402ZM41.1553 16.88C39.485 17.241 38.0398 18.3412 37.3282 19.7935C37.0983 20.2625 36.9103 20.7485 36.9103 20.8735V21.101H42.4766H48.0428L47.9799 20.7179C47.8065 19.6626 46.5344 18.0657 45.3853 17.4607C44.0948 16.7814 42.5762 16.5729 41.1553 16.88ZM7.61473 26.3801V30.4056L12.6648 30.3757L17.7148 30.3457L18.315 30.0678C19.5064 29.5162 20.3723 28.3923 20.6213 27.0743C20.7518 26.3833 20.5974 25.1951 20.2976 24.5835C20.0035 23.9833 19.3181 23.2393 18.7634 22.9182C17.8355 22.3811 17.5629 22.3571 12.4004 22.3557L7.61473 22.3545V26.3801Z" fill="#A2D0FF"/>
</svg>
