<svg width="162" height="43" viewBox="0 0 162 43" fill="none" xmlns="http://www.w3.org/2000/svg">
<path fill-rule="evenodd" clip-rule="evenodd" d="M18.0998 0.197881C12.5967 1.17301 7.42441 4.19213 4.27083 8.27006C2.36107 10.7395 0.852116 14.2338 0.276822 17.5194C-0.271507 20.6502 0.0150099 25.0188 0.957016 27.8926C2.7704 33.4245 6.9601 38.1585 12.2425 40.644C15.0864 41.9823 17.4152 42.5274 20.9702 42.687C27.341 42.9728 32.8568 40.9261 37.379 36.5982C40.2542 33.8462 42.0972 30.9582 43.1303 27.5857C43.8319 25.2955 44.0172 24.0266 44.0188 21.5018C44.0224 15.8908 42.0243 10.9517 38.0666 6.78822C34.988 3.54944 31.4747 1.50302 27.2255 0.473491C25.2387 -0.00775284 20.1313 -0.1621 18.0998 0.197881ZM19.3175 10.1905C18.0784 10.4284 15.8482 11.6218 14.6877 12.668C12.4843 14.6543 10.3539 18.1693 9.67809 20.9338C8.8222 24.434 8.93597 28.1712 9.966 30.3948C10.4171 31.3689 11.5572 32.6358 12.3368 33.029C14.6604 34.2015 17.6821 33.0855 20.9956 29.8313L22.7661 28.0925L22.9645 29.1383C23.4275 31.578 24.2739 32.9883 25.521 33.3982C27.5459 34.0636 30.4995 32.5933 32.2647 30.0409C32.8253 29.2302 33.7564 27.1034 33.7564 26.6332C33.7564 26.5468 33.3644 26.8664 32.8855 27.3433C30.8425 29.3778 29.2614 29.1061 28.5488 26.5982C28.3676 25.9598 28.0837 24.6663 27.9179 23.7236L27.6166 22.0096L28.3091 21.0731C28.6901 20.5581 29.6277 19.2401 30.393 18.1444C31.1583 17.0487 32.6977 14.8526 33.8141 13.2642C34.9305 11.6758 35.8439 10.331 35.8439 10.2759C35.8439 10.1445 33.858 10.1497 32.1029 10.2856L30.7105 10.3937L28.9008 13.4045C27.9055 15.0605 27.0585 16.383 27.0188 16.3433C26.979 16.3036 26.8287 15.6987 26.685 14.999C26.129 12.2936 25.0376 10.7866 23.2512 10.2583C22.3137 9.98109 20.5659 9.95095 19.3175 10.1905ZM127.348 11.0316V12.0606L123.999 12.1143C120.167 12.1756 119.656 12.3154 118.852 13.5241C118.396 14.2094 118.388 14.2718 118.335 17.6018C118.274 21.4249 118.423 22.162 119.405 22.8874C120.347 23.5836 120.978 23.6879 124.243 23.6879H127.348V25.0738V26.4596H129.175H131.001V25.0738V23.6879L134.002 23.6868C137.239 23.6858 138.074 23.5486 138.979 22.8681C140.047 22.0649 140.213 21.4029 140.217 17.9223C140.221 14.6371 140.1 14.0029 139.3 13.1499C138.458 12.2517 138.107 12.1768 134.437 12.1114L131.001 12.0499V11.0262V10.0024H129.175H127.348V11.0316ZM59.0355 13.3325C56.3995 18.2778 52.1964 26.2945 52.1964 26.3772C52.1964 26.4226 53.2537 26.4596 54.5459 26.4596H56.8955L57.8039 24.6407L58.7123 22.8217H62.8081H66.9039L67.8123 24.6407L68.7207 26.4596H70.9977C72.2501 26.4596 73.2488 26.4013 73.2168 26.3297C73.1849 26.2582 72.3035 24.5627 71.2578 22.5619C70.2123 20.561 68.3996 17.092 67.2295 14.853L65.1023 10.782L62.7743 10.734L60.4464 10.686L59.0355 13.3325ZM82.5326 11.2583C82.3731 11.5681 81.5212 13.1856 80.6394 14.853C77.1751 21.4045 74.6375 26.2734 74.6375 26.369C74.6375 26.4243 75.7051 26.4477 77.01 26.4212L79.3825 26.373L82.1854 20.4467C83.7271 17.1873 85.0292 14.5172 85.0793 14.5134C85.1294 14.5096 86.4612 17.1765 88.0392 20.4397L90.9081 26.373L93.2106 26.4213C94.4769 26.4478 95.513 26.4451 95.513 26.4149C95.513 26.3848 94.2967 24.0243 92.8102 21.1696C91.3235 18.3147 89.5047 14.7901 88.7681 13.3372L87.429 10.6953H85.1259H82.8226L82.5326 11.2583ZM98.6496 18.5775L98.664 26.4596H105.407C112.83 26.4596 113.456 26.3888 114.361 25.4478C115.063 24.7188 115.345 23.5713 115.344 21.4516C115.343 19.3752 115.152 18.4803 114.536 17.6678C113.671 16.5267 113.55 16.5046 107.821 16.4438L102.645 16.3888V13.5421V10.6953H100.64H98.6351L98.6496 18.5775ZM146.919 15.3314C145.579 17.8785 143.719 21.4244 142.785 23.2111L141.087 26.4596H143.41H145.733L146.626 24.6407L147.518 22.8217H151.583H155.647L156.502 24.6362L157.357 26.4504L159.575 26.4551C160.795 26.4576 161.793 26.4094 161.793 26.3479C161.793 26.2864 159.944 22.7394 157.685 18.4657L153.578 10.6953L151.466 10.6978L149.354 10.7002L146.919 15.3314ZM18.0946 13.9255C16.3532 15.4922 15.1657 19.8445 15.3717 23.906C15.5358 27.1392 16.5425 28.5558 18.303 28.0305C19.195 27.7643 20.6295 26.3649 21.7147 24.7018L22.4595 23.5609L22.2747 20.7228C22.1013 18.0567 21.7587 15.6928 21.4157 14.7944C21.333 14.5777 21.0549 14.1514 20.7978 13.8472C20.4023 13.3791 20.2124 13.2938 19.5635 13.2938C18.9256 13.2938 18.6786 13.4 18.0946 13.9255ZM61.4395 16.9458C60.7371 18.415 60.123 19.7144 60.075 19.8334C60.0071 20.0011 60.5998 20.05 62.7025 20.05C64.1958 20.05 65.4127 19.9916 65.4067 19.92C65.401 19.8485 64.7934 18.5492 64.0564 17.0324L62.7168 14.2747L61.4395 16.9458ZM150.104 17.2782L148.774 20.05H151.544H154.314L152.921 17.2782C152.154 15.7538 151.506 14.5065 151.48 14.5065C151.454 14.5065 150.835 15.7538 150.104 17.2782ZM123.003 15.0754C122.304 15.4276 122.135 15.9934 122.132 17.9911C122.13 19.5914 122.176 19.8892 122.49 20.2864C122.846 20.7375 122.877 20.7429 125.099 20.7429H127.348V17.7979V14.853L125.391 14.8556C124.171 14.8571 123.271 14.9399 123.003 15.0754ZM131.001 17.8113V20.7698L133.344 20.7129C136.359 20.64 136.287 20.7017 136.366 18.1257C136.462 15.043 136.262 14.8557 132.871 14.854L131.001 14.853V17.8113ZM102.645 21.3375V23.3414L106.603 23.3359C109.658 23.3317 110.632 23.2768 110.872 23.0954C111.571 22.5672 111.642 20.6284 110.991 19.8272C110.688 19.4544 110.566 19.4421 106.662 19.3886L102.645 19.3336V21.3375ZM52.1964 33.2158V34.0819H54.023H55.8496V37.46V40.8381H56.8934H57.9371V37.46V34.0819H59.7638H61.5904V33.2158V32.3496H56.8934H52.1964V33.2158ZM63.2924 36.594L63.243 40.8384L67.2006 40.8382L71.1583 40.8381V39.9719V39.1057H68.1919H65.2253L65.278 38.1962L65.3305 37.2868L67.5486 37.2382L69.7666 37.1897V36.4154V35.641H67.5051H65.2436V34.8615V34.0819H68.2009H71.1583V33.2158V32.3496H67.25H63.3418L63.2924 36.594ZM74.9964 34.4109L77.0229 36.4722L74.8308 38.6551L72.6387 40.8381H74.0422H75.4456L76.889 39.3656C77.6827 38.5557 78.3527 37.8931 78.3777 37.8931C78.4028 37.8931 79.0727 38.5557 79.8665 39.3656L81.3098 40.8381H82.7115H84.1133L81.9507 38.6794L79.7882 36.5207L80.9096 35.3476C81.5263 34.7025 82.4488 33.7639 82.9597 33.262L83.8883 32.3496H82.5114H81.1345L79.7576 33.7587L78.3805 35.1676L77.0539 33.7587L75.7272 32.3496H74.3486H72.9699L74.9964 34.4109ZM85.5972 36.5938V40.8381H86.6409H87.6847V39.1923V37.5466H90.2941H92.9036V39.1923V40.8381H93.9473H94.9911V36.5938V32.3496H93.9473H92.9036V34.0819V35.8143H90.2941H87.6847V34.0819V32.3496H86.6409H85.5972V36.5938ZM98.5574 32.5148C98.366 32.5937 98.0137 32.8676 97.7745 33.1236C97.3542 33.5735 97.3377 33.6818 97.2843 36.3397C97.2377 38.6503 97.2763 39.1896 97.5252 39.7119C98.0341 40.7799 98.4535 40.8843 102.304 40.903C106.093 40.9214 106.34 40.8602 106.947 39.7538C107.406 38.9172 107.402 34.2023 106.942 33.5028C106.246 32.4462 105.846 32.3499 102.211 32.3612C100.393 32.3669 98.7487 32.436 98.5574 32.5148ZM112.387 32.5218C112.387 32.6164 111.493 34.5263 110.4 36.766L108.413 40.8381H109.586H110.758L112.383 37.46C113.491 35.1556 114.096 34.0819 114.285 34.0819C114.477 34.0819 115.049 35.1307 116.128 37.4581L117.693 40.8342L118.855 40.8361L120.017 40.8381L118.49 37.6765C117.651 35.9376 116.745 34.0279 116.479 33.4323L115.993 32.3496H114.19C113.112 32.3496 112.387 32.4187 112.387 32.5218ZM121.854 32.6708C120.991 33.204 120.825 33.8519 120.825 36.6804C120.825 38.987 120.857 39.2438 121.217 39.8215C121.837 40.814 122.313 40.9252 125.869 40.9084C130.321 40.8874 130.539 40.736 130.694 37.5466C130.742 36.5462 130.731 35.239 130.668 34.6416C130.571 33.7287 130.463 33.4663 129.991 32.9959L129.43 32.4362L125.91 32.388C122.699 32.344 122.343 32.3688 121.854 32.6708ZM132.741 36.5938V40.8381H133.785H134.828V37.46V34.0819H137.525H140.221V33.2158V32.3496H136.481H132.741V36.5938ZM141.783 34.3851C141.781 35.5045 141.761 37.4146 141.74 38.6295L141.7 40.8382L142.744 40.837L143.788 40.8356L146.18 37.9691L148.572 35.1026V37.9703V40.8381H149.615H150.659V36.5938V32.3496H149.543H148.428L146.321 34.92C145.163 36.3338 144.102 37.6396 143.963 37.8217C143.74 38.115 143.711 37.8208 143.706 35.2513L143.701 32.3496H142.744H141.787L141.783 34.3851ZM152.747 36.5938V40.8381L153.834 40.8346L154.921 40.8311L157.27 37.9816L159.618 35.1319L159.666 37.9851L159.713 40.8381H160.753H161.793V36.5938V32.3496H160.681H159.569L157.472 34.9048C156.319 36.3101 155.217 37.6549 155.024 37.8931L154.672 38.3262L154.666 35.3379L154.66 32.3496H153.703H152.747V36.5938ZM99.4152 34.509C99.054 35.0578 99.113 38.366 99.4919 38.8197C99.848 39.246 104.574 39.2457 104.929 38.8192C105.101 38.6132 105.168 37.9764 105.168 36.5533C105.168 33.9965 105.274 34.0819 102.094 34.0819C99.7373 34.0819 99.6912 34.0892 99.4152 34.509ZM123.098 34.3541C122.882 34.5694 122.825 35.0349 122.825 36.5793C122.825 39.178 122.74 39.1057 125.818 39.1057C127.803 39.1057 128.213 39.0603 128.414 38.818C128.591 38.6049 128.644 38.0098 128.619 36.5275C128.591 34.8459 128.537 34.4892 128.282 34.3033C127.801 33.9536 123.458 33.9962 123.098 34.3541Z" fill="#A2D0FF"/>
</svg>
