<svg width="118" height="138" viewBox="0 0 118 138" fill="none" xmlns="http://www.w3.org/2000/svg">
<rect width="118" height="138" rx="12.6429" fill="#E9F1FF"/>
<path d="M46.4795 46.3615C47.326 45.8913 48.3557 45.8912 49.2021 46.3615L68.8213 57.2619C69.7111 57.7562 70.2627 58.6942 70.2627 59.712V72.713C70.2627 82.8919 64.7446 92.2707 55.8467 97.214L49.2021 100.905C48.3556 101.376 47.326 101.376 46.4795 100.905L39.835 97.214C30.937 92.2707 25.418 82.8919 25.418 72.713V59.712C25.418 58.6943 25.9698 57.7562 26.8594 57.2619L46.4795 46.3615ZM55.6133 66.5411C54.7924 65.7203 53.4606 65.7203 52.6396 66.5411L48.1807 71.0001L43.7217 66.5411C42.9007 65.7206 41.5699 65.7214 40.749 66.5421C39.9282 67.3629 39.9274 68.6938 40.748 69.5148L45.207 73.9738L40.748 78.4328C39.9274 79.2537 39.9282 80.5846 40.749 81.4054C41.5699 82.2262 42.9007 82.227 43.7217 81.4064L48.1807 76.9474L52.6396 81.4064C53.4606 82.2272 54.7924 82.2273 55.6133 81.4064C56.4341 80.5855 56.4341 79.2537 55.6133 78.4328L51.1543 73.9738L55.6133 69.5148C56.4341 68.6939 56.4341 67.362 55.6133 66.5411Z" fill="white"/>
<circle cx="72.6192" cy="96.169" r="23.4316" transform="rotate(180 72.6192 96.169)" fill="#A7C7FF" fill-opacity="0.2"/>
<path opacity="0.4" fill-rule="evenodd" clip-rule="evenodd" d="M92.2762 115.826C92.9986 115.104 94.1699 115.104 94.8923 115.826L99.8252 120.759C100.548 121.481 100.548 122.653 99.8252 123.375C99.1028 124.097 97.9315 124.097 97.2091 123.375L92.2762 118.442C91.5538 117.72 91.5538 116.548 92.2762 115.826Z" fill="#2176FF" stroke="#2176FF" stroke-width="1.66748" stroke-linecap="round" stroke-linejoin="round"/>
<rect x="11.8008" y="16.8564" width="93.5571" height="2.52857" rx="1.26429" fill="white"/>
<rect x="11.8008" y="23.5996" width="93.5571" height="2.52857" rx="1.26429" fill="white"/>
</svg>
