<svg width="209" height="34" viewBox="0 0 209 34" fill="none" xmlns="http://www.w3.org/2000/svg">
<path d="M57.9199 26.0272C55.5183 26.0272 53.5118 25.2097 51.9002 23.5747C50.2887 21.924 49.4829 19.896 49.4829 17.4906C49.4829 15.101 50.2887 13.0809 51.9002 11.4302C53.5118 9.77946 55.5578 8.9541 58.0384 8.9541C59.4761 8.9541 60.6927 9.1742 61.6881 9.61439C62.6992 10.0546 63.6472 10.6913 64.532 11.5245L62.6597 13.6704C61.1746 12.3027 59.6262 11.6188 58.0147 11.6188C56.4347 11.6188 55.1233 12.1848 54.0806 13.3167C53.0536 14.4486 52.5401 15.8399 52.5401 17.4906C52.5401 19.1256 53.0615 20.5169 54.1043 21.6646C55.147 22.7965 56.4505 23.3625 58.0147 23.3625C58.9626 23.3625 59.8 23.1895 60.5268 22.8437C61.2536 22.4821 62.004 21.9397 62.7782 21.2165L64.6505 23.1031C63.7183 24.0778 62.7308 24.8088 61.6881 25.2961C60.6453 25.7835 59.3892 26.0272 57.9199 26.0272Z" fill="black"/>
<path d="M81.4 23.5275C79.7568 25.194 77.6792 26.0272 75.167 26.0272C72.6549 26.0272 70.5852 25.2018 68.9578 23.5511C67.3305 21.9004 66.5168 19.8802 66.5168 17.4906C66.5168 15.1325 67.3384 13.1202 68.9815 11.4538C70.6247 9.78732 72.7023 8.9541 75.2144 8.9541C77.7266 8.9541 79.7963 9.77946 81.4237 11.4302C83.051 13.0809 83.8647 15.101 83.8647 17.4906C83.8647 19.8488 83.0431 21.8611 81.4 23.5275ZM71.1619 21.6646C72.2362 22.7965 73.5871 23.3625 75.2144 23.3625C76.8418 23.3625 78.1769 22.7965 79.2196 21.6646C80.2782 20.5327 80.8075 19.1413 80.8075 17.4906C80.8075 15.8556 80.2703 14.4722 79.1959 13.3403C78.1374 12.1926 76.7944 11.6188 75.167 11.6188C73.5397 11.6188 72.1967 12.1848 71.1382 13.3167C70.0954 14.4486 69.574 15.8399 69.574 17.4906C69.574 19.1256 70.1033 20.5169 71.1619 21.6646Z" fill="black"/>
<path d="M87.3866 25.7442V9.23708H90.0884L98.9756 20.6506V9.23708H101.843V25.7442H99.4022L90.2542 14.0006V25.7442H87.3866Z" fill="black"/>
<path d="M111.916 25.98C109.278 25.98 106.971 25.0996 104.996 23.3389L106.75 21.2637C108.409 22.6943 110.155 23.4096 111.987 23.4096C112.888 23.4096 113.599 23.221 114.12 22.8437C114.658 22.4506 114.926 21.9318 114.926 21.2873C114.926 20.6742 114.673 20.1868 114.168 19.8252C113.662 19.4479 112.667 19.0863 111.182 18.7405C109.254 18.2846 107.848 17.7107 106.963 17.019C106.094 16.3116 105.66 15.2347 105.66 13.7883C105.66 12.3734 106.189 11.2258 107.248 10.3454C108.306 9.44931 109.665 9.00126 111.324 9.00126C113.599 9.00126 115.606 9.69299 117.343 11.0764L115.779 13.2695C114.247 12.1376 112.746 11.5717 111.276 11.5717C110.439 11.5717 109.776 11.7603 109.286 12.1376C108.812 12.5149 108.575 12.9944 108.575 13.5761C108.575 14.2207 108.835 14.7237 109.357 15.0853C109.894 15.4312 110.945 15.7928 112.509 16.1701C114.342 16.6103 115.685 17.1998 116.538 17.9387C117.407 18.6776 117.841 19.7152 117.841 21.0515C117.841 22.5764 117.296 23.7791 116.206 24.6594C115.116 25.5398 113.686 25.98 111.916 25.98Z" fill="black"/>
<path d="M128.071 26.0036C125.875 26.0036 124.145 25.3826 122.881 24.1406C121.633 22.8987 121.009 21.0986 121.009 18.7405V9.23708H123.924V18.6226C123.924 20.1318 124.295 21.2951 125.037 22.1126C125.78 22.9301 126.807 23.3389 128.118 23.3389C129.43 23.3389 130.449 22.9458 131.176 22.1598C131.918 21.3737 132.289 20.234 132.289 18.7405V9.23708H135.204V18.599C135.204 21.0043 134.572 22.8437 133.309 24.1171C132.045 25.3747 130.299 26.0036 128.071 26.0036Z" fill="black"/>
<path d="M139.206 25.7442V9.23708H142.121V23.1031H150.842V25.7442H139.206Z" fill="black"/>
<path d="M155.595 25.7442V11.9254H150.333V9.23708H163.795V11.9254H158.533V25.7442H155.595Z" fill="black"/>
<path d="M167.052 25.7442V9.23708H169.967V25.7442H167.052Z" fill="black"/>
<path d="M174.408 25.7442V9.23708H177.109L185.997 20.6506V9.23708H188.864V25.7442H186.423L177.275 14.0006V25.7442H174.408Z" fill="black"/>
<path d="M200.999 26.0272C198.44 26.0272 196.362 25.2254 194.766 23.6219C193.186 22.0026 192.396 19.9588 192.396 17.4906C192.396 15.1325 193.202 13.1202 194.814 11.4538C196.441 9.78732 198.487 8.9541 200.952 8.9541C202.342 8.9541 203.527 9.14275 204.507 9.52006C205.486 9.88164 206.426 10.4397 207.327 11.1944L205.478 13.3874C204.783 12.79 204.08 12.3498 203.369 12.0669C202.674 11.7682 201.829 11.6188 200.833 11.6188C199.316 11.6188 198.037 12.1926 196.994 13.3403C195.967 14.4879 195.453 15.8714 195.453 17.4906C195.453 19.2042 195.975 20.6191 197.018 21.7353C198.06 22.8358 199.419 23.386 201.094 23.386C202.642 23.386 203.977 22.9694 205.099 22.1362V19.047H200.857V16.5238H207.919V23.4568C205.913 25.1704 203.606 26.0272 200.999 26.0272Z" fill="black"/>
<path d="M18.0941 12.2063L18.7054 11.9614C18.8295 12.1839 18.9448 12.4116 19.0511 12.644C19.575 13.7904 19.8669 15.0283 19.9101 16.287C19.9149 16.4268 19.9166 16.5665 19.9153 16.7061L18.0941 12.2063Z" fill="#2176FF"/>
<path d="M26.423 32.785L23.716 26.0967C24.5358 24.9464 25.2048 23.6931 25.7043 22.3669C26.4635 20.3512 26.8163 18.2063 26.7425 16.0549C26.7332 15.785 26.7173 15.5157 26.6947 15.2471L33.7929 32.785H26.423Z" fill="#2176FF"/>
<path d="M39.6986 2.6814e-05H47.0685L33.7991 32.785H26.4292L39.6986 2.6814e-05Z" fill="#2176FF"/>
<path d="M24.631 10.1194C25.459 12.1082 25.8851 14.2398 25.8851 16.3925C25.8851 18.5452 25.459 20.6768 24.631 22.6656C23.8031 24.6545 22.5896 26.4616 21.0599 27.9838C19.5301 29.5059 17.714 30.7134 15.7152 31.5372C13.7164 32.361 11.5742 32.785 9.41074 32.785V25.9826C10.6764 25.9826 11.9297 25.7346 13.099 25.2526C14.2684 24.7707 15.3309 24.0643 16.2258 23.1737C17.1208 22.2832 17.8307 21.226 18.3151 20.0625C18.7994 18.899 19.0487 17.6519 19.0487 16.3925C19.0487 15.1331 18.7994 13.886 18.3151 12.7225C17.8307 11.559 17.1208 10.5018 16.2258 9.61126C15.3309 8.72074 14.2684 8.01434 13.099 7.53239C11.9297 7.05044 10.6764 6.80238 9.41074 6.80238V0C11.5742 2.16242e-07 13.7164 0.424004 15.7152 1.2478C17.714 2.07161 19.5301 3.27907 21.0599 4.80125C22.5896 6.32344 23.8031 8.13053 24.631 10.1194Z" fill="#2176FF"/>
<path d="M0 6.48726e-07L9.41074 0V6.80238L0 6.80238V6.48726e-07Z" fill="#2176FF"/>
<path d="M9.41074 25.9826L0 25.9826V32.785L9.41074 32.785V25.9826Z" fill="#2176FF"/>
</svg>
