<svg width="224" height="36" viewBox="0 0 224 36" fill="none" xmlns="http://www.w3.org/2000/svg">
<path d="M62.3993 28.042C59.812 28.042 57.6503 27.1612 55.9141 25.3998C54.1779 23.6214 53.3098 21.4366 53.3098 18.8452C53.3098 16.2708 54.1779 14.0944 55.9141 12.316C57.6503 10.5376 59.8546 9.64844 62.527 9.64844C64.0759 9.64844 65.3866 9.88555 66.4589 10.3598C67.5483 10.834 68.5696 11.52 69.5228 12.4176L67.5058 14.7295C65.9057 13.256 64.2376 12.5193 62.5014 12.5193C60.7993 12.5193 59.3865 13.129 58.2631 14.3484C57.1567 15.5679 56.6035 17.0668 56.6035 18.8452C56.6035 20.6066 57.1652 22.1056 58.2886 23.342C59.412 24.5614 60.8163 25.1712 62.5014 25.1712C63.5227 25.1712 64.4249 24.9848 65.2078 24.6122C65.9908 24.2227 66.7994 23.6384 67.6334 22.8593L69.6505 24.8917C68.6462 25.9418 67.5823 26.7294 66.4589 27.2544C65.3355 27.7794 63.9823 28.042 62.3993 28.042Z" fill="white"/>
<path d="M87.6954 25.349C85.9251 27.1443 83.6868 28.042 80.9804 28.042C78.274 28.042 76.0442 27.1528 74.291 25.3744C72.5377 23.596 71.6611 21.4196 71.6611 18.8452C71.6611 16.3047 72.5462 14.1367 74.3165 12.3414C76.0867 10.5461 78.325 9.64844 81.0315 9.64844C83.7379 9.64844 85.9677 10.5376 87.7209 12.316C89.4741 14.0944 90.3507 16.2708 90.3507 18.8452C90.3507 21.3857 89.4656 23.5537 87.6954 25.349ZM76.6655 23.342C77.8229 24.5614 79.2783 25.1712 81.0315 25.1712C82.7847 25.1712 84.223 24.5614 85.3464 23.342C86.4869 22.1225 87.0571 20.6236 87.0571 18.8452C87.0571 17.0838 86.4784 15.5933 85.3209 14.3738C84.1804 13.1374 82.7336 12.5193 80.9804 12.5193C79.2272 12.5193 77.7804 13.129 76.6399 14.3484C75.5165 15.5679 74.9548 17.0668 74.9548 18.8452C74.9548 20.6066 75.525 22.1056 76.6655 23.342Z" fill="white"/>
<path d="M94.1451 27.7371V9.9533H97.0558L106.63 22.2495V9.9533H109.72V27.7371H107.09L97.2345 15.0852V27.7371H94.1451Z" fill="white"/>
<path d="M120.572 27.9912C117.729 27.9912 115.244 27.0427 113.117 25.1457L115.006 22.9101C116.793 24.4513 118.674 25.222 120.649 25.222C121.619 25.222 122.385 25.0187 122.946 24.6122C123.525 24.1888 123.815 23.6299 123.815 22.9355C123.815 22.2749 123.542 21.7499 122.998 21.3603C122.453 20.9539 121.38 20.5643 119.78 20.1917C117.704 19.7005 116.189 19.0823 115.236 18.3371C114.3 17.5749 113.831 16.4147 113.831 14.8565C113.831 13.3322 114.402 12.0958 115.542 11.1474C116.683 10.182 118.146 9.69925 119.934 9.69925C122.385 9.69925 124.546 10.4445 126.419 11.9349L124.734 14.2976C123.083 13.0782 121.466 12.4684 119.883 12.4684C118.98 12.4684 118.266 12.6717 117.738 13.0782C117.227 13.4847 116.972 14.0012 116.972 14.6279C116.972 15.3223 117.253 15.8643 117.814 16.2538C118.393 16.6265 119.525 17.016 121.21 17.4225C123.185 17.8967 124.632 18.5319 125.551 19.3279C126.487 20.1239 126.955 21.2418 126.955 22.6814C126.955 24.3243 126.368 25.62 125.193 26.5685C124.019 27.5169 122.478 27.9912 120.572 27.9912Z" fill="white"/>
<path d="M137.976 28.0166C135.61 28.0166 133.746 27.3476 132.384 26.0095C131.04 24.6715 130.367 22.7322 130.367 20.1917V9.9533H133.508V20.0647C133.508 21.6906 133.908 22.9439 134.708 23.8247C135.508 24.7054 136.614 25.1457 138.027 25.1457C139.44 25.1457 140.538 24.7223 141.321 23.8755C142.121 23.0286 142.521 21.8007 142.521 20.1917V9.9533H145.661V20.0393C145.661 22.6306 144.98 24.6122 143.619 25.9841C142.257 27.3391 140.376 28.0166 137.976 28.0166Z" fill="white"/>
<path d="M149.972 27.7371V9.9533H153.112V24.8917H162.508V27.7371H149.972Z" fill="white"/>
<path d="M167.628 27.7371V12.8495H161.96V9.9533H176.462V12.8495H170.794V27.7371H167.628Z" fill="white"/>
<path d="M179.972 27.7371V9.9533H183.112V27.7371H179.972Z" fill="white"/>
<path d="M187.896 27.7371V9.9533H190.807L200.382 22.2495V9.9533H203.471V27.7371H200.841L190.986 15.0852V27.7371H187.896Z" fill="white"/>
<path d="M216.545 28.042C213.787 28.042 211.549 27.1782 209.83 25.4506C208.127 23.7061 207.276 21.5043 207.276 18.8452C207.276 16.3047 208.144 14.1367 209.881 12.3414C211.634 10.5461 213.838 9.64844 216.493 9.64844C217.991 9.64844 219.268 9.85168 220.323 10.2582C221.379 10.6477 222.391 11.249 223.362 12.062L221.37 14.4247C220.621 13.7811 219.864 13.3068 219.098 13.002C218.349 12.6802 217.438 12.5193 216.366 12.5193C214.732 12.5193 213.353 13.1374 212.23 14.3738C211.123 15.6102 210.57 17.1007 210.57 18.8452C210.57 20.6913 211.132 22.2157 212.255 23.4182C213.379 24.6038 214.842 25.1966 216.647 25.1966C218.315 25.1966 219.753 24.7477 220.962 23.8501V20.522H216.391V17.8036H224V25.2728C221.838 27.1189 219.353 28.042 216.545 28.042Z" fill="white"/>
<path d="M19.4935 13.1504L20.1521 12.8865C20.2858 13.1262 20.4101 13.3716 20.5245 13.622C21.089 14.857 21.4035 16.1906 21.45 17.5466C21.4552 17.6973 21.457 17.8478 21.4556 17.9982L19.4935 13.1504Z" fill="#2176FF"/>
<path d="M28.4666 35.3206L25.5502 28.115C26.4334 26.8758 27.1542 25.5256 27.6923 24.0968C28.5103 21.9251 28.8903 19.6144 28.8108 17.2966C28.8008 17.0058 28.7836 16.7157 28.7593 16.4264L36.4066 35.3206H28.4666Z" fill="#2176FF"/>
<path d="M42.7689 2.88878e-05H50.7088L36.4132 35.3206H28.4733L42.7689 2.88878e-05Z" fill="#2176FF"/>
<path d="M26.5361 10.902C27.428 13.0447 27.8871 15.3411 27.8871 17.6603C27.8871 19.9795 27.428 22.276 26.5361 24.4186C25.6441 26.5613 24.3368 28.5081 22.6887 30.1481C21.0406 31.788 19.084 33.0888 16.9306 33.9763C14.7773 34.8639 12.4693 35.3206 10.1386 35.3206V27.9922C11.5022 27.9922 12.8524 27.7249 14.1121 27.2057C15.3719 26.6865 16.5166 25.9254 17.4808 24.966C18.445 24.0066 19.2098 22.8677 19.7316 21.6141C20.2534 20.3606 20.522 19.0171 20.522 17.6603C20.522 16.3035 20.2534 14.96 19.7316 13.7065C19.2098 12.453 18.445 11.314 17.4808 10.3546C16.5166 9.39522 15.3719 8.63418 14.1121 8.11495C12.8524 7.59573 11.5021 7.32849 10.1386 7.32849V0C12.4693 2.32966e-07 14.7773 0.456797 16.9306 1.34431C19.084 2.23183 21.0406 3.53268 22.6887 5.17259C24.3368 6.8125 25.6441 8.75936 26.5361 10.902Z" fill="#2176FF"/>
<path d="M0 6.98899e-07L10.1386 0V7.32849L0 7.32849V6.98899e-07Z" fill="#2176FF"/>
<path d="M10.1386 27.9922L0 27.9921V35.3206L10.1386 35.3206V27.9922Z" fill="#2176FF"/>
</svg>
