<svg width="369" height="81" viewBox="0 0 369 81" fill="none" xmlns="http://www.w3.org/2000/svg">
<path d="M19.008 32.3836C20.68 31.0196 21.692 30.0076 22.616 28.9076C24.684 26.5316 26.268 24.2436 28.424 21.6916C29.128 20.8556 30.58 19.2276 31.856 19.2276C32.34 19.2276 32.736 19.5796 32.736 20.1516C32.736 21.5156 31.196 23.8916 30.932 24.3756C29.084 27.8076 27.72 30.0516 25.388 34.1436C24.508 35.6396 24.068 38.0156 22.704 38.0156C22.22 38.0156 21.78 37.6636 21.78 37.0916C21.78 36.4316 22.132 35.5516 22.44 35.0676C24.024 32.2956 26.356 29.3036 27.544 26.2676C26.972 26.3996 26.444 26.9716 26.048 27.4116C23.848 29.8316 21.692 32.8236 19.008 35.0676C18.568 35.4196 16.852 36.5196 15.796 36.5196C15.4 36.5196 15.004 36.2996 15.004 35.7716C15.004 34.5396 16.588 32.2516 16.896 31.5916C17.732 30.0076 19.36 27.4116 19.844 25.6956C18.436 26.3556 16.72 28.9956 15.576 30.1396C14.212 31.5036 12.672 33.7036 10.076 33.7036C9.9 33.7036 9.68 33.7036 9.504 33.6596C8.8 33.5716 8.14 32.6916 7.436 32.6916C6.644 32.6916 5.148 34.8036 4.576 35.4636C4.004 36.1236 2.42 37.7516 1.232 37.7516C0.219998 37.7516 -2.02656e-06 36.7396 -2.02656e-06 35.7276C-2.02656e-06 34.0556 1.892 28.0276 4.268 28.0276C5.412 28.0276 6.38 29.1716 6.996 29.3036C7.568 29.4356 9.636 26.0916 10.12 25.2996C10.604 24.5516 11 23.9796 11.44 23.1876C11.836 22.6156 12.628 21.1636 12.628 20.8116C12.628 20.2396 11.264 20.5916 9.68 20.3716C6.996 20.0196 4.312 18.7876 2.904 17.2916C1.98 16.3676 1.188 14.6076 1.188 12.8036C1.188 11.9676 1.364 11.1316 1.76 10.3396C3.08 7.74358 6.512 5.49958 10.472 5.49958C14.344 5.49958 19.624 7.47958 24.024 8.31558C25.696 8.62358 27.544 8.79958 29.348 8.79958C32.604 8.79958 35.904 8.27158 38.456 7.25958C39.468 6.86358 40.304 6.11558 41.8 5.49958C42.372 5.27958 43.164 5.49958 43.296 6.20358C43.516 7.43558 41.888 8.13958 40.656 8.66758C37.532 10.0756 33.704 10.7356 29.348 10.7356C25.828 10.7356 22.308 10.2076 18.744 9.10758C16.148 8.31558 13.2 7.47958 10.472 7.47958C8.888 7.47958 7.348 7.78758 5.984 8.57958C4.532 9.41558 3.168 11.0876 3.168 12.9356C3.168 15.0476 4.972 16.5436 6.864 17.3796C7.964 17.9076 10.164 18.6556 11.528 18.2156C11.924 18.0836 12.54 16.3676 13.552 15.1796C13.904 14.7836 15.224 13.4636 16.28 13.4636C16.896 13.4636 17.248 13.9036 17.248 14.5636C17.248 15.4876 16.72 16.7196 16.544 17.4236C16.456 17.7756 16.588 17.8636 16.896 17.8636C17.6 17.8636 19.008 17.2476 19.888 17.1156C21.076 16.8956 22.088 16.3236 22.616 16.3236C22.836 16.3236 23.056 16.8516 23.056 16.8956C23.056 17.7756 20.68 18.6996 19.8 18.9636C18.48 19.4916 16.764 19.9756 15.752 20.1956C15.356 20.2836 14.476 22.1756 14.08 22.8356C12.98 24.9036 11.924 26.3996 10.604 28.2476C10.164 28.8636 8.888 30.0956 8.888 30.8876C8.888 31.3716 9.46 31.6356 10.032 31.6356C11.616 31.6356 13.596 29.5236 14.344 28.8196C17.336 26.0036 20.152 22.6156 22.88 19.4916C23.276 19.0516 23.76 18.0396 24.64 18.0396C25.168 18.0396 25.608 18.3916 25.608 19.0516C25.608 19.8876 25.036 21.0316 24.728 21.6476C24.068 23.0116 23.012 24.7716 22.616 25.5196C21.296 27.9396 19.888 29.9196 19.008 32.3836ZM14.476 16.7636C13.992 16.6316 13.288 17.5556 13.288 18.0396C13.288 18.2156 13.376 18.3476 13.552 18.3476C13.948 18.3476 14.256 17.9516 14.388 17.4236C14.432 17.2036 14.476 16.9836 14.476 16.7636ZM2.112 35.0676C2.992 34.8476 3.52 34.0996 4.136 33.3076C4.444 32.9116 5.324 31.9876 5.324 31.2396C5.324 30.8876 5.016 30.5356 4.62 30.5356C4.136 30.5356 3.52 30.9316 3.256 31.2836C2.684 32.0316 2.024 33.4396 2.024 34.4956C2.024 34.7156 2.068 34.8916 2.112 35.0676ZM38.3243 32.3836C39.0723 31.9436 41.0523 29.6556 42.1083 28.5116C44.9243 25.5196 48.7963 21.5156 52.6683 20.5036C53.0203 20.4156 53.3723 20.3716 53.6803 20.3716C54.7363 20.3716 55.6603 20.9436 55.6603 22.1756C55.6603 23.1436 55.2203 24.2876 54.9123 24.9916C53.9003 27.4116 52.4923 29.6116 51.5683 31.6796C51.3483 32.2076 50.8643 33.2636 50.8643 33.6596C50.8643 33.9236 51.1283 34.0556 51.4363 34.0556C52.0963 34.0556 53.1523 33.6596 53.6363 33.4396C55.2643 32.6916 56.8923 31.1956 58.9163 29.2156C59.7083 28.4676 60.9403 29.6556 60.2363 30.4036C57.9043 32.8236 55.3083 34.8916 52.8003 35.7716C52.1843 35.9916 51.3483 36.2116 50.6003 36.2116C49.3243 36.2116 48.6203 35.4636 48.6203 34.0556C48.6203 32.3396 49.7203 30.0956 50.7763 28.0716C51.3043 27.0596 52.8003 24.3756 52.8003 23.7156C52.8003 23.4956 52.6243 23.3636 52.3163 23.3636C51.5243 23.3636 49.9403 24.1116 49.1483 24.6396C45.5843 27.1476 42.4163 30.4036 39.4683 33.6156C36.2563 37.1356 33.7923 40.6556 30.9763 44.7036C30.4483 45.4956 29.7003 46.8596 28.5563 46.8596C28.2043 46.8596 27.8963 46.4196 27.8963 46.0236C27.8963 45.4076 28.4243 44.7036 28.7323 44.2636C32.1203 38.9396 36.3883 31.7676 39.1603 25.8276C38.5003 25.8276 35.3323 29.6556 34.3643 30.4036C33.4403 31.2396 32.4283 30.1396 33.1763 29.1716C34.8043 27.8956 36.3883 26.1356 37.9283 24.3316C39.5563 22.4396 40.6563 21.2516 42.4163 20.2396C42.7683 20.0636 43.0763 19.9316 43.3403 19.9316C44.0003 19.9316 44.4403 20.6356 44.4403 21.3396C44.4403 22.4836 43.7363 23.4076 43.0323 24.2876C41.4483 26.2676 39.2483 29.5676 38.3243 32.3836ZM70.7035 22.8796C70.7035 26.3556 66.3475 27.9396 63.0475 29.7876C62.0795 30.3156 60.4515 30.7116 60.3635 31.1516C60.3195 31.5036 60.2755 31.8116 60.2755 32.1196C60.2755 34.6716 62.1235 35.5076 63.6635 35.5076C66.5235 35.5076 70.6595 31.6796 72.9915 29.3476C73.8275 28.5116 75.0155 29.6996 74.1355 30.6236C70.5275 34.3196 67.2715 37.4876 62.8275 37.4876C59.4835 37.4876 57.8995 34.7156 57.8995 31.9876C57.8995 27.7636 63.1795 20.3276 68.0195 20.3276C69.4275 20.3276 70.7035 21.2516 70.7035 22.8796ZM67.5355 22.3076C65.5115 22.3076 62.2555 26.1796 61.6835 27.7196C61.6395 27.8516 61.5955 27.9396 61.5955 28.0276C61.5955 28.2476 61.7275 28.3356 61.9915 28.3356C63.3995 28.3356 68.1515 25.1236 68.1515 23.2316C68.1515 22.8796 67.9755 22.3076 67.5355 22.3076ZM113.871 1.31958C113.871 2.55158 112.331 2.94758 110.131 2.94758C106.083 2.94758 103.179 3.51958 99.791 4.26758C95.171 5.32358 90.331 6.73158 88.351 10.0316C87.119 12.1436 87.031 15.5756 87.031 17.8636C87.031 19.2276 86.899 20.6796 86.899 21.9116C86.899 27.9836 82.543 33.4396 79.463 35.7276C78.495 36.4316 76.251 38.0596 74.183 38.0596C72.291 38.0596 71.323 36.8716 71.323 35.0236C71.323 27.6316 77.351 22.3076 80.871 22.3076C81.487 22.3076 81.971 22.7036 81.971 23.5396C81.971 24.5516 80.871 24.7716 79.067 25.2556C76.075 26.0916 73.611 31.8996 73.611 34.4956C73.611 35.3756 73.919 35.9036 74.623 35.9036C78.319 35.9036 84.655 29.6996 85.183 22.7036C85.227 22.0436 85.227 21.4276 85.227 20.8116C85.227 18.9196 85.051 17.2916 85.051 15.6196C85.051 6.81958 91.343 4.13558 98.559 2.28758C102.475 1.27558 106.655 0.527576 111.055 0.175576C111.979 0.0435774 113.871 -0.000424623 113.871 1.31958ZM100.103 21.2516C102.039 21.2516 102.875 23.0556 102.875 24.8596C102.875 30.3156 97.2871 37.8396 91.3911 37.8396C88.8391 37.8396 88.1791 35.3756 88.1791 33.4836C88.1791 32.6476 88.4431 31.8556 88.4431 31.2836C88.4431 30.7556 88.0031 30.6676 88.0031 29.9636C88.0031 29.1276 89.0591 28.7756 89.8511 27.9396C91.5231 26.2236 92.0511 24.6836 94.8231 22.9236C95.2191 22.7036 96.0111 22.1756 96.5831 22.1756C96.9791 22.1756 97.2431 22.4396 97.2431 23.0556C97.2431 24.8156 94.5591 26.7516 93.7671 27.3236C92.1831 28.4676 90.4231 30.3596 90.4231 33.6156C90.4231 34.7596 91.1271 35.6836 92.2271 35.6836C96.0551 35.6836 100.807 29.1716 100.807 25.2996C100.807 24.6836 100.631 24.1116 99.8391 23.8476C99.2231 23.6276 98.6951 23.2756 98.6951 22.5716C98.6951 21.8236 99.2671 21.2516 100.103 21.2516ZM137.988 32.4716C137.944 32.8676 137.944 33.2636 137.944 33.5716C137.944 34.8916 138.296 35.5516 139.792 35.5516C141.42 35.5516 146.04 31.1516 148.416 29.0836C149.076 28.5116 150.308 29.7436 149.472 30.4916C146.524 33.1316 142.652 37.4436 138.56 37.4436C136.316 37.4436 136.096 35.5956 135.964 34.3196C134.952 34.7156 133.192 36.0356 132.708 36.3436C131.476 37.0916 129.408 38.4116 127.472 38.4116C126.68 38.4116 126.02 38.2356 125.404 37.7516C124.656 37.2236 124.172 35.4196 123.336 35.4196C122.192 35.4196 120.696 35.9476 119.332 35.9476C116.516 35.9476 116.208 34.4956 115.284 34.1876C112.908 36.6516 109.652 38.7196 107.936 38.7196C105.164 38.7196 104.02 36.6076 104.02 33.6596C104.02 31.1516 104.856 27.9836 106.308 24.9916C109.916 17.6876 120.388 6.24758 128.88 6.24758C131.124 6.24758 131.916 7.03958 131.916 8.13958C131.916 9.72358 130.332 11.9236 129.188 13.2436C123.644 19.8436 116.34 24.1116 108.156 29.2596C106.968 30.0076 106.352 30.3596 106.352 32.8236C106.352 35.1116 106.968 36.3876 108.244 36.3876C110.928 36.3876 113.656 33.0876 114.404 32.5156C113.524 27.9836 115.548 24.3756 118.628 24.3756C119.728 24.3756 119.86 25.3436 119.86 26.2236C119.86 28.9956 117.044 31.4596 117.044 32.4276C117.044 33.1756 118.32 34.2316 119.816 34.2316C121.576 34.2316 123.512 33.6596 123.996 33.0876C124.436 32.5596 124.436 31.5036 124.7 30.7996C125.448 28.6436 126.548 27.0596 128.044 25.2556C129.584 23.4076 133.368 20.5476 136.36 20.5476C137.196 20.5476 138.384 20.7676 138.384 22.3076C138.384 23.4956 136.448 26.0916 135.436 27.1916C132.18 30.7556 130.2 31.9876 126.152 34.3196C126.064 35.7276 126.856 36.2116 127.56 36.2116C129.012 36.2116 131.3 34.9796 131.828 34.6716C133.412 33.7036 135.656 32.2956 136.404 30.9756C136.888 30.0956 137.24 29.4356 137.636 28.4236C138.428 26.3116 141.42 21.5156 143.884 21.5156C144.544 21.5156 144.632 21.7356 144.632 22.0876C144.632 26.0036 139.176 29.3476 137.988 32.4716ZM129.408 8.75558C129.408 8.35958 129.232 8.09558 128.704 8.09558C125.448 8.09558 118.892 12.5836 115.9 15.6636C114.008 17.6436 108.376 23.8036 108.244 26.6636C108.244 27.4116 109.916 26.0036 110.004 25.9596C115.944 22.7476 123.292 16.8956 127.032 13.0236C127.736 12.3196 129.408 9.94358 129.408 8.75558ZM135.656 23.2316C135.656 23.0116 135.524 22.8796 135.172 22.8796C133.104 22.8796 129.936 25.6956 128.396 27.9836C128.132 28.4236 126.768 30.2716 126.768 31.1516C126.768 31.3716 126.9 31.5476 127.12 31.5476C127.78 31.5476 129.188 30.4036 129.716 30.0076C131.124 28.9956 135.656 25.3876 135.656 23.2316ZM117.572 26.3996C117.088 26.4876 116.208 27.9836 116.208 28.8636C116.208 29.1276 116.164 29.8756 116.428 29.8756C116.912 29.8756 118.056 27.8516 118.056 26.9276C118.056 26.5756 117.924 26.3996 117.572 26.3996ZM175.001 29.2596C175.925 28.6876 177.025 29.6996 175.969 30.6676C173.505 33.0436 168.973 37.5756 166.113 37.5756C164.749 37.5756 164.133 36.4756 164.133 35.1116C164.133 33.9676 164.485 32.6036 164.837 31.5036C163.869 31.9876 162.945 32.2516 162.109 32.2516C161.537 32.2516 160.965 32.1196 160.437 31.8556C159.249 31.2396 158.457 29.1716 157.005 29.1716C155.905 29.1716 155.069 30.3156 154.497 30.9756C152.869 32.8676 151.945 33.9676 150.713 36.2996C150.229 37.1796 149.261 37.9276 148.513 37.9276C148.117 37.9276 147.633 37.5756 147.633 37.0916C147.633 36.2996 148.997 35.0676 149.305 34.5836C150.889 32.2956 153.133 28.1596 154.233 25.6516C154.981 23.9356 150.361 29.1276 148.953 30.4036C148.029 31.2396 146.973 30.2276 147.721 29.2596C148.469 28.5116 151.549 25.5636 153.881 22.8356C154.761 21.8236 156.081 19.8436 157.181 19.8436C157.753 19.8436 158.149 20.3716 158.149 20.9876C158.149 22.6156 156.125 25.6516 155.113 27.9396C156.081 27.4116 157.225 27.0156 157.797 27.0156C159.909 27.0596 160.085 30.2276 162.373 30.2276C164.133 30.2276 165.673 28.5556 166.597 27.3676C167.125 26.7076 168.181 25.2996 168.709 24.1556C169.061 23.3636 169.501 22.3516 170.337 22.3516C170.909 22.3516 171.525 22.7916 171.525 23.4516C171.525 24.0236 171.217 24.7716 170.777 25.3876C169.325 27.5436 168.269 29.0396 167.345 31.5916C166.861 32.9996 166.641 33.9676 166.641 34.5396C166.641 35.0676 166.817 35.2876 167.125 35.2876C167.961 35.2876 169.677 33.8356 171.613 32.2516C172.273 31.7236 174.341 29.9196 175.001 29.2596ZM198.987 29.2596C199.911 28.6876 201.187 29.6116 200.175 30.6236C198.547 32.2076 194.895 35.5516 193.575 36.2116C192.959 36.5196 192.255 36.6956 191.639 36.6956C190.583 36.6956 189.791 36.2116 189.791 35.0236C189.791 32.6476 190.671 31.0636 191.419 28.7756C191.463 28.6876 191.419 28.5996 191.375 28.5996C191.067 28.5996 189.175 30.7556 188.603 31.3276C187.151 32.8676 183.675 37.0916 180.991 37.0916C179.759 37.0916 179.363 36.1676 179.363 34.8916C179.363 32.9996 180.287 30.3596 180.771 29.2156C181.563 27.2796 182.707 25.3876 183.235 23.6276C182.311 23.5836 181.299 24.5956 180.683 25.1676C179.407 26.3556 176.899 29.3036 175.579 30.6236C174.611 31.0636 173.863 30.0956 174.479 29.2156C175.975 27.6756 179.319 23.9796 181.915 21.9556C182.707 21.2956 183.807 20.4596 184.995 20.4596C185.875 20.4596 186.227 21.0756 186.227 21.9116C186.227 23.8036 184.819 25.4316 183.851 27.6316C183.323 28.7756 182.707 30.0076 182.223 31.1956C181.915 31.9876 181.651 32.8236 181.651 33.8796C181.651 34.1876 181.695 34.5836 182.047 34.5836C182.883 34.5836 184.907 32.4276 185.787 31.5916C188.515 28.9956 191.287 26.0916 194.059 23.1436C194.455 22.7036 195.115 21.9556 195.731 21.9556C196.171 21.9556 196.567 22.3516 196.567 22.8356C196.567 23.6276 195.907 24.6836 195.643 25.1676C195.071 26.2236 194.587 27.1476 194.147 27.9836C193.267 29.6996 192.167 31.7676 192.167 33.6156C192.167 33.8356 192.167 34.5836 192.519 34.5836C193.531 34.5836 196.567 31.8556 198.987 29.2596ZM212.347 2.50758C215.691 2.50758 218.023 5.14758 218.023 8.71158C218.023 9.32758 217.979 9.94358 217.847 10.6476C217.451 12.7596 216.483 13.5076 215.647 13.5076C215.251 13.5076 214.855 13.2436 214.855 12.7596C214.855 12.2316 215.163 11.4836 215.339 10.9556C215.647 10.0756 215.823 9.19558 215.823 8.35958C215.823 6.15958 214.679 4.31158 211.599 4.31158C209.047 4.31158 205.967 6.55558 204.119 8.35958C202.975 9.50358 202.491 10.4276 201.963 10.4276C201.699 10.4276 201.391 10.1636 201.391 9.85558C201.391 9.19558 202.183 8.09558 202.711 7.52358C204.779 5.41158 208.343 2.50758 212.347 2.50758ZM203.723 28.1156L203.943 27.6756C204.251 27.0596 204.647 26.1796 204.647 26.0476C204.647 26.0036 204.603 25.9596 204.559 25.9596C204.119 25.9596 201.303 28.9956 200.467 29.9196C200.379 30.0516 199.675 30.7996 199.103 30.7996C198.707 30.7996 198.355 30.3156 198.355 29.8756C198.355 29.1716 199.235 28.5996 199.499 28.3796C200.951 27.0156 204.163 23.6276 205.703 21.8236C206.187 21.2516 207.331 19.4916 208.343 19.4916C209.003 19.4916 209.311 20.1076 209.311 20.7676C209.311 21.7796 208.739 23.1436 208.519 23.6276C207.287 26.2236 206.099 28.0716 204.999 30.7556C204.559 31.8556 203.987 32.9556 203.987 34.5836C203.987 34.8916 204.163 35.0676 204.427 35.0676C205.395 35.0676 207.595 33.2196 208.519 32.3396C211.027 30.0516 213.447 27.3676 215.823 24.5956C216.483 23.8476 217.891 21.8236 219.255 21.8236C219.915 21.8236 220.355 22.3076 220.355 23.0556C220.355 23.7596 220.047 24.5516 219.783 25.1236C218.991 26.7076 218.067 28.6436 217.319 30.4036C216.791 31.6356 215.867 33.5716 215.867 34.8036C215.867 35.1116 216.043 35.2436 216.307 35.2436C216.967 35.2436 218.111 34.5396 218.551 34.1876C219.959 33.0876 221.983 30.8876 223.523 29.4356C223.831 29.1276 224.095 28.9956 224.315 28.9956C224.711 28.9956 225.107 29.3916 225.107 29.8316C225.107 30.2276 224.843 30.5796 224.711 30.7116C222.907 32.3836 220.487 34.9356 218.551 36.2996C217.715 36.9156 216.483 37.7076 215.647 37.7076C213.975 37.7076 213.447 36.7836 213.447 35.5956C213.447 34.3196 214.063 32.7356 214.503 31.6356C215.075 30.1836 216.043 28.5556 216.263 27.1476C215.163 27.6316 214.063 29.2156 213.183 30.1396C211.511 31.9436 209.927 33.3956 207.903 35.1556C206.803 36.1236 205.615 37.3996 203.899 37.3996C202.447 37.3996 201.655 36.2556 201.655 34.4076C201.655 32.3396 202.755 30.0956 203.723 28.1156ZM267.606 29.3036C268.486 28.5996 269.586 29.6116 268.838 30.5356C266.946 32.3836 261.578 37.2676 259.642 37.2676C257.838 37.2676 257.046 36.8276 257.046 34.2316C257.046 32.6916 258.014 30.2276 259.334 27.1916C259.818 26.0916 258.586 27.4116 257.882 28.2916C256.43 29.9636 251.59 36.6956 249.038 36.6956C247.938 36.6956 247.674 35.8596 247.674 34.8476C247.586 32.4276 249.742 27.7196 250.754 25.0796C250.842 24.8596 250.886 24.6836 250.886 24.5956C250.886 24.5516 250.842 24.5076 250.842 24.5076C247.146 28.2476 243.054 37.5316 238.786 37.5316C234.386 37.5316 236.454 29.1276 238.918 29.1276C239.49 29.1276 240.062 29.8316 239.622 30.6236C238.61 32.4716 237.73 35.3316 239.094 35.5076C241.294 35.7716 246.53 26.9716 248.818 23.9796C250.534 21.7796 250.842 20.1956 252.866 20.1956C253.834 20.1956 254.142 20.7676 254.142 21.5596C254.098 23.4076 252.47 26.2676 251.942 27.8516C251.15 29.9196 250.71 31.3716 250.402 32.9556C250.05 34.7596 252.69 31.9876 253.834 30.5796C255.682 28.3356 256.694 26.8836 258.85 24.5956C259.422 24.0236 260.698 22.8356 261.842 22.8356C262.502 22.8356 262.81 23.2316 262.81 23.9796C262.766 25.1676 257.574 34.9796 260.17 34.9796C261.886 34.9796 266.726 30.2276 267.606 29.3036ZM294.575 29.2596C295.499 28.6876 296.599 29.6996 295.543 30.6676C293.079 33.0436 288.547 37.5756 285.687 37.5756C284.323 37.5756 283.707 36.4756 283.707 35.1116C283.707 33.9676 284.059 32.6036 284.411 31.5036C283.443 31.9876 282.519 32.2516 281.683 32.2516C281.111 32.2516 280.539 32.1196 280.011 31.8556C278.823 31.2396 278.031 29.1716 276.579 29.1716C275.479 29.1716 274.643 30.3156 274.071 30.9756C272.443 32.8676 271.519 33.9676 270.287 36.2996C269.803 37.1796 268.835 37.9276 268.087 37.9276C267.691 37.9276 267.207 37.5756 267.207 37.0916C267.207 36.2996 268.571 35.0676 268.879 34.5836C270.463 32.2956 272.707 28.1596 273.807 25.6516C274.555 23.9356 269.935 29.1276 268.527 30.4036C267.603 31.2396 266.547 30.2276 267.295 29.2596C268.043 28.5116 271.123 25.5636 273.455 22.8356C274.335 21.8236 275.655 19.8436 276.755 19.8436C277.327 19.8436 277.723 20.3716 277.723 20.9876C277.723 22.6156 275.699 25.6516 274.687 27.9396C275.655 27.4116 276.799 27.0156 277.371 27.0156C279.483 27.0596 279.659 30.2276 281.947 30.2276C283.707 30.2276 285.247 28.5556 286.171 27.3676C286.699 26.7076 287.755 25.2996 288.283 24.1556C288.635 23.3636 289.075 22.3516 289.911 22.3516C290.483 22.3516 291.099 22.7916 291.099 23.4516C291.099 24.0236 290.791 24.7716 290.351 25.3876C288.899 27.5436 287.843 29.0396 286.919 31.5916C286.435 32.9996 286.215 33.9676 286.215 34.5396C286.215 35.0676 286.391 35.2876 286.699 35.2876C287.535 35.2876 289.251 33.8356 291.187 32.2516C291.847 31.7236 293.915 29.9196 294.575 29.2596ZM305.712 21.2516C307.648 21.2516 308.484 23.0556 308.484 24.8596C308.484 30.3156 302.896 37.8396 297 37.8396C294.448 37.8396 293.788 35.3756 293.788 33.4836C293.788 32.6476 294.052 31.8556 294.052 31.2836C294.052 30.7556 293.612 30.6676 293.612 29.9636C293.612 29.1276 294.668 28.7756 295.46 27.9396C297.132 26.2236 297.66 24.6836 300.432 22.9236C300.828 22.7036 301.62 22.1756 302.192 22.1756C302.588 22.1756 302.852 22.4396 302.852 23.0556C302.852 24.8156 300.168 26.7516 299.376 27.3236C297.792 28.4676 296.032 30.3596 296.032 33.6156C296.032 34.7596 296.736 35.6836 297.836 35.6836C301.664 35.6836 306.416 29.1716 306.416 25.2996C306.416 24.6836 306.24 24.1116 305.448 23.8476C304.832 23.6276 304.304 23.2756 304.304 22.5716C304.304 21.8236 304.876 21.2516 305.712 21.2516ZM327.317 13.2436C328.109 13.2436 329.561 13.6396 329.561 15.8836C329.561 18.4356 326.041 22.8796 323.181 26.5316C322.257 27.7196 319.441 31.7676 319.441 33.3516C319.441 34.2316 319.793 34.7156 320.673 34.7156C323.621 34.7156 327.405 31.1956 329.429 29.2596C330.309 28.5116 331.365 29.7436 330.529 30.5796C327.141 33.9676 322.125 36.9596 319.705 36.9596C317.945 36.9596 317.153 35.8596 317.153 34.4076C317.153 31.5476 319.749 27.7636 321.157 25.8716C322.433 24.1556 326.877 18.5676 326.877 16.7196C326.877 15.6636 326.525 15.3996 325.909 15.3996C325.029 15.3996 323.137 17.0276 321.861 18.4796C317.989 22.8356 315.701 26.5756 311.257 30.6236C311.125 30.7556 310.949 30.7996 310.817 30.7996C310.333 30.7996 309.849 30.2716 309.849 29.7876C309.849 29.6116 309.893 29.4356 310.069 29.3036C313.721 26.1356 317.505 20.8116 320.937 17.1156C323.137 14.7396 325.073 13.2436 327.317 13.2436ZM340.582 21.2516C342.518 21.2516 343.354 23.0556 343.354 24.8596C343.354 30.3156 337.766 37.8396 331.87 37.8396C329.318 37.8396 328.658 35.3756 328.658 33.4836C328.658 32.6476 328.922 31.8556 328.922 31.2836C328.922 30.7556 328.482 30.6676 328.482 29.9636C328.482 29.1276 329.538 28.7756 330.33 27.9396C332.002 26.2236 332.53 24.6836 335.302 22.9236C335.698 22.7036 336.49 22.1756 337.062 22.1756C337.458 22.1756 337.722 22.4396 337.722 23.0556C337.722 24.8156 335.038 26.7516 334.246 27.3236C332.662 28.4676 330.902 30.3596 330.902 33.6156C330.902 34.7596 331.606 35.6836 332.706 35.6836C336.534 35.6836 341.286 29.1716 341.286 25.2996C341.286 24.6836 341.11 24.1116 340.318 23.8476C339.702 23.6276 339.174 23.2756 339.174 22.5716C339.174 21.8236 339.746 21.2516 340.582 21.2516ZM346.611 36.9596C346.391 36.8276 346.171 36.5196 346.171 36.1236C346.215 34.8916 347.183 34.1876 348.019 34.1876C348.635 34.1876 349.163 34.5396 349.163 35.4196C349.163 35.7716 349.075 36.2556 348.855 36.7836C346.919 41.4916 342.299 45.8916 338.911 48.1356C338.691 48.2676 338.471 48.3116 338.295 48.3116C337.987 48.3116 337.811 48.1356 337.811 47.9156C337.811 47.6956 337.987 47.4316 338.339 47.1236C342.475 43.7796 344.983 40.5236 346.611 36.9596ZM29.7 63.2596C30.624 62.6876 31.724 63.6996 30.668 64.6676C28.204 67.0436 23.672 71.5756 20.812 71.5756C19.448 71.5756 18.832 70.4756 18.832 69.1116C18.832 67.9676 19.184 66.6036 19.536 65.5036C18.568 65.9876 17.644 66.2516 16.808 66.2516C16.236 66.2516 15.664 66.1196 15.136 65.8556C13.948 65.2396 13.156 63.1716 11.704 63.1716C10.604 63.1716 9.768 64.3156 9.196 64.9756C7.568 66.8676 6.644 67.9676 5.412 70.2996C4.928 71.1796 3.96 71.9276 3.212 71.9276C2.816 71.9276 2.332 71.5756 2.332 71.0916C2.332 70.2996 3.696 69.0676 4.004 68.5836C5.588 66.2956 7.832 62.1596 8.932 59.6516C9.68 57.9356 5.06 63.1276 3.652 64.4036C2.728 65.2396 1.672 64.2276 2.42 63.2596C3.168 62.5116 6.248 59.5636 8.58 56.8356C9.46 55.8236 10.78 53.8436 11.88 53.8436C12.452 53.8436 12.848 54.3716 12.848 54.9876C12.848 56.6156 10.824 59.6516 9.812 61.9396C10.78 61.4116 11.924 61.0156 12.496 61.0156C14.608 61.0596 14.784 64.2276 17.072 64.2276C18.832 64.2276 20.372 62.5556 21.296 61.3676C21.824 60.7076 22.88 59.2996 23.408 58.1556C23.76 57.3636 24.2 56.3516 25.036 56.3516C25.608 56.3516 26.224 56.7916 26.224 57.4516C26.224 58.0236 25.916 58.7716 25.476 59.3876C24.024 61.5436 22.968 63.0396 22.044 65.5916C21.56 66.9996 21.34 67.9676 21.34 68.5396C21.34 69.0676 21.516 69.2876 21.824 69.2876C22.66 69.2876 24.376 67.8356 26.312 66.2516C26.972 65.7236 29.04 63.9196 29.7 63.2596ZM40.8372 55.2516C42.7732 55.2516 43.6092 57.0556 43.6092 58.8596C43.6092 64.3156 38.0212 71.8396 32.1252 71.8396C29.5732 71.8396 28.9132 69.3756 28.9132 67.4836C28.9132 66.6476 29.1772 65.8556 29.1772 65.2836C29.1772 64.7556 28.7372 64.6676 28.7372 63.9636C28.7372 63.1276 29.7932 62.7756 30.5852 61.9396C32.2572 60.2236 32.7852 58.6836 35.5572 56.9236C35.9532 56.7036 36.7452 56.1756 37.3172 56.1756C37.7132 56.1756 37.9772 56.4396 37.9772 57.0556C37.9772 58.8156 35.2932 60.7516 34.5012 61.3236C32.9172 62.4676 31.1572 64.3596 31.1572 67.6156C31.1572 68.7596 31.8612 69.6836 32.9612 69.6836C36.7892 69.6836 41.5412 63.1716 41.5412 59.2996C41.5412 58.6836 41.3652 58.1116 40.5732 57.8476C39.9572 57.6276 39.4292 57.2756 39.4292 56.5716C39.4292 55.8236 40.0012 55.2516 40.8372 55.2516ZM75.713 61.1476C75.669 61.6316 75.625 62.2476 75.625 62.9076C75.669 64.2276 75.581 66.1636 76.681 66.1636C77.825 66.1636 79.981 64.4916 81.257 63.2596C81.389 63.1276 81.609 63.0396 81.829 63.0396C82.181 63.0396 82.621 63.3036 82.621 63.7876C82.621 64.0956 82.489 64.4476 82.225 64.6676C80.201 66.4716 77.781 68.0116 76.153 68.0116C74.305 68.0116 74.041 65.7236 73.865 64.2276C73.821 64.0516 73.777 63.9636 73.689 63.9636C73.293 63.9636 72.413 65.7236 71.885 66.2956C70.345 68.1876 67.265 71.4876 64.449 71.4876C62.601 71.4876 62.117 69.5956 62.117 67.4836C62.117 66.3836 62.249 65.2836 62.381 64.3596C62.425 64.0076 62.425 63.8756 62.337 63.8756C62.205 63.8756 61.853 64.2716 61.457 64.6236C60.533 65.3716 59.433 63.9636 60.269 63.3476C61.501 62.4236 62.953 60.8396 63.173 60.2236C65.109 54.5476 68.761 49.4876 73.117 45.4836C75.845 42.9756 81.697 38.5756 85.173 38.5756C86.317 38.5756 86.669 39.1916 86.669 40.0276C86.669 41.2156 85.921 42.7996 85.393 43.7676C82.357 49.2236 75.053 53.6676 68.585 57.5396C66.825 58.5956 65.989 59.9596 65.505 61.1916C65.065 62.3356 64.449 64.7996 64.449 67.0876C64.449 67.6596 64.493 68.2756 64.581 68.8036C64.625 69.1116 64.933 69.2436 65.285 69.2436C68.145 69.2436 71.929 63.3036 73.337 61.0156C73.821 58.5516 74.569 57.4516 75.801 57.4516C76.417 57.4516 76.593 57.8916 76.593 58.4196C76.593 59.2996 76.021 60.6196 75.713 61.1476ZM84.469 40.9076C84.469 40.7316 84.337 40.6876 84.161 40.6876C82.885 40.6876 78.969 43.2396 77.385 44.4276C73.381 47.5076 69.597 51.6876 67.881 54.8996C67.661 55.3396 67.573 55.6476 67.573 55.8236C67.573 55.9996 67.661 56.0876 67.793 56.0876C68.013 56.0876 68.365 55.9116 68.629 55.7356C72.105 53.6676 76.725 50.5436 80.157 47.1116C81.081 46.1876 84.469 42.4476 84.469 40.9076ZM93.8197 57.4076C93.8197 59.3436 92.2797 61.7636 90.6517 61.7636C90.1677 61.7636 89.6397 61.3676 89.6397 60.9716C89.6397 59.3876 91.3997 58.6836 91.3997 57.6716C91.3997 57.1436 90.9597 57.0116 90.7837 57.0116C86.7797 57.0116 82.6437 62.0716 82.6437 66.1636C82.6437 67.7476 83.4357 68.9796 85.5037 68.9796C88.0117 68.9796 91.1797 67.0436 95.0517 63.2596C95.6677 62.6876 96.9877 63.5236 96.1517 64.5356C95.3597 65.5036 93.4677 67.2196 91.4437 68.5396C89.8157 69.6396 87.1757 71.2676 84.7117 71.2676C81.7637 71.2676 80.1797 68.8916 80.1797 65.8996C80.1797 61.2356 85.7237 55.1196 90.9157 55.1196C92.5437 55.1196 93.8197 55.7356 93.8197 57.4076ZM106.809 56.8796C106.809 60.3556 102.453 61.9396 99.1533 63.7876C98.1853 64.3156 96.5573 64.7116 96.4693 65.1516C96.4253 65.5036 96.3813 65.8116 96.3813 66.1196C96.3813 68.6716 98.2293 69.5076 99.7693 69.5076C102.629 69.5076 106.765 65.6796 109.097 63.3476C109.933 62.5116 111.121 63.6996 110.241 64.6236C106.633 68.3196 103.377 71.4876 98.9333 71.4876C95.5893 71.4876 94.0053 68.7156 94.0053 65.9876C94.0053 61.7636 99.2853 54.3276 104.125 54.3276C105.533 54.3276 106.809 55.2516 106.809 56.8796ZM103.641 56.3076C101.617 56.3076 98.3613 60.1796 97.7893 61.7196C97.7453 61.8516 97.7013 61.9396 97.7013 62.0276C97.7013 62.2476 97.8333 62.3356 98.0973 62.3356C99.5053 62.3356 104.257 59.1236 104.257 57.2316C104.257 56.8796 104.081 56.3076 103.641 56.3076ZM135.264 55.2516C137.2 55.2516 138.036 57.0556 138.036 58.8596C138.036 64.3156 132.448 71.8396 126.552 71.8396C124 71.8396 123.34 69.3756 123.34 67.4836C123.34 66.6476 123.604 65.8556 123.604 65.2836C123.604 64.7556 123.164 64.6676 123.164 63.9636C123.164 63.1276 124.22 62.7756 125.012 61.9396C126.684 60.2236 127.212 58.6836 129.984 56.9236C130.38 56.7036 131.172 56.1756 131.744 56.1756C132.14 56.1756 132.404 56.4396 132.404 57.0556C132.404 58.8156 129.72 60.7516 128.928 61.3236C127.344 62.4676 125.584 64.3596 125.584 67.6156C125.584 68.7596 126.288 69.6836 127.388 69.6836C131.216 69.6836 135.968 63.1716 135.968 59.2996C135.968 58.6836 135.792 58.1116 135 57.8476C134.384 57.6276 133.856 57.2756 133.856 56.5716C133.856 55.8236 134.428 55.2516 135.264 55.2516ZM166.989 63.2596C167.913 62.6876 169.013 63.6996 167.957 64.6676C165.493 67.0436 160.961 71.5756 158.101 71.5756C156.737 71.5756 156.121 70.4756 156.121 69.1116C156.121 67.9676 156.473 66.6036 156.825 65.5036C155.857 65.9876 154.933 66.2516 154.097 66.2516C153.525 66.2516 152.953 66.1196 152.425 65.8556C151.237 65.2396 150.445 63.1716 148.993 63.1716C147.893 63.1716 147.057 64.3156 146.485 64.9756C144.857 66.8676 143.933 67.9676 142.701 70.2996C142.217 71.1796 141.249 71.9276 140.501 71.9276C140.105 71.9276 139.621 71.5756 139.621 71.0916C139.621 70.2996 140.985 69.0676 141.293 68.5836C142.877 66.2956 145.121 62.1596 146.221 59.6516C146.969 57.9356 142.349 63.1276 140.941 64.4036C140.017 65.2396 138.961 64.2276 139.709 63.2596C140.457 62.5116 143.537 59.5636 145.869 56.8356C146.749 55.8236 148.069 53.8436 149.169 53.8436C149.741 53.8436 150.137 54.3716 150.137 54.9876C150.137 56.6156 148.113 59.6516 147.101 61.9396C148.069 61.4116 149.213 61.0156 149.785 61.0156C151.897 61.0596 152.073 64.2276 154.361 64.2276C156.121 64.2276 157.661 62.5556 158.585 61.3676C159.113 60.7076 160.169 59.2996 160.697 58.1556C161.049 57.3636 161.489 56.3516 162.325 56.3516C162.897 56.3516 163.513 56.7916 163.513 57.4516C163.513 58.0236 163.205 58.7716 162.765 59.3876C161.313 61.5436 160.257 63.0396 159.333 65.5916C158.849 66.9996 158.629 67.9676 158.629 68.5396C158.629 69.0676 158.805 69.2876 159.113 69.2876C159.949 69.2876 161.665 67.8356 163.601 66.2516C164.261 65.7236 166.329 63.9196 166.989 63.2596ZM190.974 63.2596C191.898 62.6876 193.174 63.6116 192.162 64.6236C190.534 66.2076 186.882 69.5516 185.562 70.2116C184.946 70.5196 184.242 70.6956 183.626 70.6956C182.57 70.6956 181.778 70.2116 181.778 69.0236C181.778 66.6476 182.658 65.0636 183.406 62.7756C183.45 62.6876 183.406 62.5996 183.362 62.5996C183.054 62.5996 181.162 64.7556 180.59 65.3276C179.138 66.8676 175.662 71.0916 172.978 71.0916C171.746 71.0916 171.35 70.1676 171.35 68.8916C171.35 66.9996 172.274 64.3596 172.758 63.2156C173.55 61.2796 174.694 59.3876 175.222 57.6276C174.298 57.5836 173.286 58.5956 172.67 59.1676C171.394 60.3556 168.886 63.3036 167.566 64.6236C166.598 65.0636 165.85 64.0956 166.466 63.2156C167.962 61.6756 171.306 57.9796 173.902 55.9556C174.694 55.2956 175.794 54.4596 176.982 54.4596C177.862 54.4596 178.214 55.0756 178.214 55.9116C178.214 57.8036 176.806 59.4316 175.838 61.6316C175.31 62.7756 174.694 64.0076 174.21 65.1956C173.902 65.9876 173.638 66.8236 173.638 67.8796C173.638 68.1876 173.682 68.5836 174.034 68.5836C174.87 68.5836 176.894 66.4276 177.774 65.5916C180.502 62.9956 183.274 60.0916 186.046 57.1436C186.442 56.7036 187.102 55.9556 187.718 55.9556C188.158 55.9556 188.554 56.3516 188.554 56.8356C188.554 57.6276 187.894 58.6836 187.63 59.1676C187.058 60.2236 186.574 61.1476 186.134 61.9836C185.254 63.6996 184.154 65.7676 184.154 67.6156C184.154 67.8356 184.154 68.5836 184.506 68.5836C185.518 68.5836 188.554 65.8556 190.974 63.2596ZM210.741 66.3836C211.489 65.9436 213.469 63.6556 214.525 62.5116C217.341 59.5196 221.213 55.5156 225.085 54.5036C225.437 54.4156 225.789 54.3716 226.097 54.3716C227.153 54.3716 228.077 54.9436 228.077 56.1756C228.077 57.1436 227.637 58.2876 227.329 58.9916C226.317 61.4116 224.909 63.6116 223.985 65.6796C223.765 66.2076 223.281 67.2636 223.281 67.6596C223.281 67.9236 223.545 68.0556 223.853 68.0556C224.513 68.0556 225.569 67.6596 226.053 67.4396C227.681 66.6916 229.309 65.1956 231.333 63.2156C232.125 62.4676 233.357 63.6556 232.653 64.4036C230.321 66.8236 227.725 68.8916 225.217 69.7716C224.601 69.9916 223.765 70.2116 223.017 70.2116C221.741 70.2116 221.037 69.4636 221.037 68.0556C221.037 66.3396 222.137 64.0956 223.193 62.0716C223.721 61.0596 225.217 58.3756 225.217 57.7156C225.217 57.4956 225.041 57.3636 224.733 57.3636C223.941 57.3636 222.357 58.1116 221.565 58.6396C218.001 61.1476 214.833 64.4036 211.885 67.6156C208.673 71.1356 206.209 74.6556 203.393 78.7036C202.865 79.4956 202.117 80.8596 200.973 80.8596C200.621 80.8596 200.313 80.4196 200.313 80.0236C200.313 79.4076 200.841 78.7036 201.149 78.2636C204.537 72.9396 208.805 65.7676 211.577 59.8276C210.917 59.8276 207.749 63.6556 206.781 64.4036C205.857 65.2396 204.845 64.1396 205.593 63.1716C207.221 61.8956 208.805 60.1356 210.345 58.3316C211.973 56.4396 213.073 55.2516 214.833 54.2396C215.185 54.0636 215.493 53.9316 215.757 53.9316C216.417 53.9316 216.857 54.6356 216.857 55.3396C216.857 56.4836 216.153 57.4076 215.449 58.2876C213.865 60.2676 211.665 63.5676 210.741 66.3836ZM243.12 56.8796C243.12 60.3556 238.764 61.9396 235.464 63.7876C234.496 64.3156 232.868 64.7116 232.78 65.1516C232.736 65.5036 232.692 65.8116 232.692 66.1196C232.692 68.6716 234.54 69.5076 236.08 69.5076C238.94 69.5076 243.076 65.6796 245.408 63.3476C246.244 62.5116 247.432 63.6996 246.552 64.6236C242.944 68.3196 239.688 71.4876 235.244 71.4876C231.9 71.4876 230.316 68.7156 230.316 65.9876C230.316 61.7636 235.596 54.3276 240.436 54.3276C241.844 54.3276 243.12 55.2516 243.12 56.8796ZM239.952 56.3076C237.928 56.3076 234.672 60.1796 234.1 61.7196C234.056 61.8516 234.012 61.9396 234.012 62.0276C234.012 62.2476 234.144 62.3356 234.408 62.3356C235.816 62.3356 240.568 59.1236 240.568 57.2316C240.568 56.8796 240.392 56.3076 239.952 56.3076ZM253.199 69.1116C255.003 69.1556 256.983 69.2436 258.215 68.9796C258.919 67.6156 259.271 66.0316 259.887 64.5796C260.415 63.3476 261.559 62.0276 261.559 60.6636C261.559 60.3996 261.471 60.2236 261.295 60.2236C261.207 60.2236 261.163 60.2676 261.031 60.3116C258.963 61.8076 253.947 67.5276 253.199 69.1116ZM262.615 69.2436C263.671 69.6836 266.971 69.6836 267.631 69.2436C268.291 68.8036 268.071 68.0996 268.599 66.0756C269.039 64.4476 270.359 62.7316 270.359 61.8076C270.359 61.6756 270.315 61.5436 270.227 61.5436C270.183 61.5436 270.139 61.5876 270.051 61.6756C267.631 63.5676 265.255 66.7796 262.615 69.2436ZM270.007 68.8036C270.755 68.9796 273.219 67.6596 273.307 69.1116C273.395 70.2996 271.459 70.0796 270.667 70.5636C270.095 70.9596 270.227 71.9276 269.435 72.1476C268.379 72.4556 268.775 71.2676 267.895 71.0476C267.543 70.9596 266.751 71.0916 266.179 71.0916C262.131 71.2676 255.663 70.2996 252.011 70.6956C251.263 70.7836 250.471 71.9276 249.811 71.9716C248.931 72.1036 248.007 71.6636 247.743 71.0916C247.127 71.0036 245.587 71.7516 245.499 70.7396C245.411 69.7276 247.083 69.9476 247.567 69.4636C247.743 69.2876 248.227 67.7916 248.579 66.9556C249.635 64.3596 251.835 60.9276 252.715 58.6396C251.439 58.6836 248.051 62.9076 246.247 64.4036C245.323 65.2396 244.135 64.1836 245.235 63.1716C245.939 62.5116 247.919 60.4436 248.623 59.7396C250.207 58.1556 251.967 56.1756 253.595 55.4276C253.991 55.2516 254.563 55.0316 255.091 55.0316C255.795 55.0316 256.235 55.6036 256.235 56.3516C256.235 57.3196 255.575 58.5076 255.223 59.0796C253.903 61.3236 252.759 62.9956 251.615 65.3276C251.087 66.3836 250.119 67.7476 250.515 68.8916C251.967 68.4516 252.803 66.9556 253.771 65.7236C255.619 63.3916 257.379 61.2356 259.755 59.0356C260.547 58.2876 262.087 56.6156 263.407 56.6156C263.935 56.6156 264.375 56.8796 264.771 57.5396C264.639 61.5436 261.691 64.1836 261.163 67.7036C262.439 67.4836 264.023 65.5916 264.947 64.5796C266.839 62.5996 268.951 60.4876 271.019 58.3316C271.635 57.6716 272.911 56.7476 273.791 56.7476C274.275 56.7476 274.715 57.1436 274.715 57.7156C274.715 58.9916 273.087 61.1916 272.339 62.6436C271.459 64.3596 270.095 66.3396 270.007 68.8036ZM277.299 64.7996C276.815 65.0196 275.979 64.6236 275.979 64.0076C275.979 63.7876 276.111 63.4796 276.419 63.2156C277.695 62.0276 279.279 60.7516 280.115 60.0916C282.931 57.8476 285.703 55.2516 288.783 55.2516C289.355 55.2516 289.707 55.7356 289.707 56.1756C289.707 56.9236 288.783 57.5836 288.123 58.0676C286.011 59.6076 282.491 60.9716 281.523 61.8956C280.379 62.9516 278.883 65.8116 278.883 67.7036C278.883 68.7596 279.323 69.5516 280.599 69.5516C283.591 69.5516 288.079 64.3596 289.091 61.9836C289.795 60.3116 292.303 55.4716 294.327 55.4716C294.899 55.4716 295.251 55.7796 295.251 56.4836C295.251 58.1996 292.083 60.3116 290.543 63.5676C289.663 65.4156 289.311 66.7796 289.311 67.7476C289.311 68.8916 289.883 69.4196 290.719 69.4196C291.335 69.4196 292.083 69.1556 292.875 68.7156C294.679 67.7036 298.947 62.9956 299.519 62.9956C299.915 62.9956 300.355 63.4356 300.355 63.8316C300.355 64.5796 294.239 70.3876 291.731 71.2676C291.071 71.4876 290.499 71.6196 290.015 71.6196C286.891 71.6196 287.507 68.1436 287.111 67.4396C287.111 67.3956 286.979 67.4836 286.935 67.5716C285.439 69.3316 282.183 71.8396 279.895 71.8396C277.431 71.8396 276.507 70.1236 276.507 68.1436C276.507 67.0876 276.815 65.9436 277.255 64.9316L277.299 64.7996ZM310.636 56.8796C310.636 60.3556 306.28 61.9396 302.98 63.7876C302.012 64.3156 300.384 64.7116 300.296 65.1516C300.252 65.5036 300.208 65.8116 300.208 66.1196C300.208 68.6716 302.056 69.5076 303.596 69.5076C306.456 69.5076 310.592 65.6796 312.924 63.3476C313.76 62.5116 314.948 63.6996 314.068 64.6236C310.46 68.3196 307.204 71.4876 302.76 71.4876C299.416 71.4876 297.832 68.7156 297.832 65.9876C297.832 61.7636 303.112 54.3276 307.952 54.3276C309.36 54.3276 310.636 55.2516 310.636 56.8796ZM307.468 56.3076C305.444 56.3076 302.188 60.1796 301.616 61.7196C301.572 61.8516 301.528 61.9396 301.528 62.0276C301.528 62.2476 301.66 62.3356 301.924 62.3356C303.332 62.3356 308.084 59.1236 308.084 57.2316C308.084 56.8796 307.908 56.3076 307.468 56.3076ZM341.923 63.3036C342.803 62.5996 343.903 63.6116 343.155 64.5356C341.263 66.3836 335.895 71.2676 333.959 71.2676C332.155 71.2676 331.363 70.8276 331.363 68.2316C331.363 66.6916 332.331 64.2276 333.651 61.1916C334.135 60.0916 332.903 61.4116 332.199 62.2916C330.747 63.9636 325.907 70.6956 323.355 70.6956C322.255 70.6956 321.991 69.8596 321.991 68.8476C321.903 66.4276 324.059 61.7196 325.071 59.0796C325.159 58.8596 325.203 58.6836 325.203 58.5956C325.203 58.5516 325.159 58.5076 325.159 58.5076C321.463 62.2476 317.371 71.5316 313.103 71.5316C308.703 71.5316 310.771 63.1276 313.235 63.1276C313.807 63.1276 314.379 63.8316 313.939 64.6236C312.927 66.4716 312.047 69.3316 313.411 69.5076C315.611 69.7716 320.847 60.9716 323.135 57.9796C324.851 55.7796 325.159 54.1956 327.183 54.1956C328.151 54.1956 328.459 54.7676 328.459 55.5596C328.415 57.4076 326.787 60.2676 326.259 61.8516C325.467 63.9196 325.027 65.3716 324.719 66.9556C324.367 68.7596 327.007 65.9876 328.151 64.5796C329.999 62.3356 331.011 60.8836 333.167 58.5956C333.739 58.0236 335.015 56.8356 336.159 56.8356C336.819 56.8356 337.127 57.2316 337.127 57.9796C337.083 59.1676 331.891 68.9796 334.487 68.9796C336.203 68.9796 341.043 64.2276 341.923 63.3036ZM367.792 64.4036C366.076 65.9876 363.128 68.8036 360.532 70.3436C360.004 70.6516 358.2 71.4876 357.012 71.4876C356.484 71.4876 355.956 71.2236 355.956 70.6076C355.956 69.2876 357.76 66.9996 358.288 65.0196C357.012 65.8556 355.736 67.3516 352.92 68.5836C352.436 68.8036 351.072 68.8476 350.544 69.0676C349.4 69.5516 346.892 72.2356 344.736 72.2356C343.196 72.2356 342.58 71.3556 342.58 69.9916C342.58 67.7476 344.208 64.3156 345.704 61.8516C344.692 62.5996 343.548 63.7436 342.844 64.5356C341.92 65.3716 340.776 64.3156 341.524 63.3476C342.404 62.5556 342.844 62.0276 343.856 61.0596C345.704 59.2996 348.212 56.8796 349.972 54.8556C350.412 54.3276 351.776 52.0836 352.832 52.0836C353.404 52.0836 353.58 52.3476 353.58 52.6996C353.58 53.3596 352.92 54.3716 352.568 54.8996C350.324 58.2436 348.212 61.2796 346.32 64.9316C345.66 66.2516 344.692 68.0116 344.692 69.6836C344.692 69.9916 344.692 70.4316 345.176 70.4316C346.1 70.4316 348.168 68.9796 348.74 67.9236C348.08 67.0436 347.816 66.0316 347.816 65.1076C347.816 63.6996 348.652 61.9836 350.456 61.9836C351.864 61.9836 352.612 63.0396 352.612 64.4476C352.612 65.1956 352.392 65.9876 351.952 66.7796C353.052 66.6476 354.636 65.7236 355.472 65.1076C357.848 63.5236 360.312 61.0596 362.116 59.0356C362.688 58.4196 363.92 56.0436 365.064 56.0436C365.46 56.0436 365.9 56.3516 365.9 56.8356C365.9 57.6716 364.888 58.8596 364.712 59.1236C362.864 61.9396 360.972 64.5356 359.432 68.0116C359.344 68.1876 359.3 68.3636 359.3 68.4516C359.3 68.5836 359.388 68.6716 359.52 68.6716C360.224 68.6716 362.732 66.6476 363.612 65.8556C364.14 65.4156 366.032 63.7876 366.56 63.2596C367.484 62.6876 368.276 63.4796 367.792 64.4036ZM349.972 66.3396C350.324 66.2956 350.852 65.3276 350.852 64.6676C350.852 64.4036 350.72 64.0516 350.368 64.0516C349.928 64.0516 349.752 64.7556 349.752 65.3716C349.752 65.8116 349.84 66.2076 349.972 66.3396Z" fill="#2176FF"/>
</svg>
