<svg width="38" height="38" viewBox="0 0 38 38" fill="none" xmlns="http://www.w3.org/2000/svg">
<rect width="38" height="38" rx="9.12" fill="#2176FF"/>
<path d="M17.77 10.565C17.77 10.5208 17.7927 10.3631 18.0937 10.109C18.3907 9.8582 18.8711 9.59386 19.5396 9.35511C20.8691 8.88028 22.762 8.57031 24.8938 8.57031C27.0256 8.57031 28.9185 8.88028 30.248 9.35511C30.9165 9.59386 31.397 9.8582 31.6939 10.109C31.9949 10.3631 32.0176 10.5208 32.0176 10.565C32.0176 10.6092 31.9949 10.7669 31.6939 11.021C31.397 11.2717 30.9165 11.5361 30.248 11.7748C28.9185 12.2497 27.0256 12.5596 24.8938 12.5596C22.762 12.5596 20.8691 12.2497 19.5396 11.7748C18.8711 11.5361 18.3907 11.2717 18.0937 11.021C17.7927 10.7669 17.77 10.6092 17.77 10.565Z" fill="#A2D0FF"/>
<path d="M30.8231 13.3849C31.0607 13.3001 31.29 13.2084 31.5086 13.1097C31.7415 13.0044 32.0176 13.1689 32.0176 13.4245V15.1242C32.0176 15.1684 31.9949 15.3261 31.6939 15.5802C31.397 15.831 30.9165 16.0953 30.248 16.3341C28.9185 16.8089 27.0256 17.1189 24.8938 17.1189C22.762 17.1189 20.8691 16.8089 19.5396 16.3341C18.8711 16.0953 18.3907 15.831 18.0937 15.5802C17.7927 15.3261 17.77 15.1684 17.77 15.1242V13.4245C17.77 13.1689 18.0461 13.0044 18.279 13.1097C18.4976 13.2084 18.727 13.3001 18.9645 13.3849C20.5227 13.9414 22.6191 14.2693 24.8938 14.2693C27.1685 14.2693 29.2649 13.9414 30.8231 13.3849Z" fill="#A2D0FF"/>
<path d="M30.8231 17.9442C31.0607 17.8593 31.29 17.7676 31.5086 17.6689C31.7415 17.5637 32.0176 17.7282 32.0176 17.9837V19.6834C32.0176 19.7276 31.9949 19.8853 31.6939 20.1394C31.397 20.3902 30.9165 20.6545 30.248 20.8933C28.9185 21.3681 27.0256 21.6781 24.8938 21.6781C22.762 21.6781 20.8691 21.3681 19.5396 20.8933C18.8711 20.6545 18.3907 20.3902 18.0937 20.1394C17.7927 19.8853 17.77 19.7276 17.77 19.6834V17.9837C17.77 17.7282 18.0461 17.5637 18.279 17.6689C18.4976 17.7676 18.727 17.8593 18.9645 17.9442C20.5227 18.5007 22.6191 18.8286 24.8938 18.8286C27.1685 18.8286 29.2649 18.5007 30.8231 17.9442Z" fill="#A2D0FF"/>
<path d="M30.8231 22.5034C31.0607 22.4185 31.29 22.3269 31.5086 22.2281C31.7415 22.1229 32.0176 22.2874 32.0176 22.5429V24.2427C32.0176 24.2869 31.9949 24.4445 31.6939 24.6987C31.397 24.9494 30.9165 25.2138 30.248 25.4525C28.9185 25.9273 27.0256 26.2373 24.8938 26.2373C22.762 26.2373 20.8691 25.9273 19.5396 25.4525C18.8711 25.2138 18.3907 24.9494 18.0937 24.6987C17.7927 24.4445 17.77 24.2869 17.77 24.2427V22.5429C17.77 22.2874 18.0461 22.1229 18.279 22.2281C18.4976 22.3269 18.727 22.4185 18.9645 22.5034C20.5227 23.0599 22.6191 23.3878 24.8938 23.3878C27.1685 23.3878 29.2649 23.0599 30.8231 22.5034Z" fill="#A2D0FF"/>
<path d="M7.6001 13.606C7.6001 13.5618 7.62281 13.4041 7.92376 13.15C8.22074 12.8992 8.70117 12.6349 9.36965 12.3961C10.6992 11.9213 12.5921 11.6113 14.7239 11.6113C16.8557 11.6113 18.7486 11.9213 20.0781 12.3961C20.7466 12.6349 21.227 12.8992 21.524 13.15C21.825 13.4041 21.8477 13.5618 21.8477 13.606C21.8477 13.6502 21.825 13.8079 21.524 14.062C21.227 14.3128 20.7466 14.5771 20.0781 14.8158C18.7486 15.2907 16.8557 15.6007 14.7239 15.6007C12.5921 15.6007 10.6992 15.2907 9.36965 14.8158C8.70117 14.5771 8.22074 14.3128 7.92376 14.062C7.62281 13.8079 7.6001 13.6502 7.6001 13.606Z" fill="white"/>
<path d="M20.6532 16.426C20.8907 16.3411 21.1201 16.2494 21.3387 16.1507C21.5716 16.0454 21.8477 16.21 21.8477 16.4655V18.1652C21.8477 18.2094 21.825 18.3671 21.524 18.6212C21.227 18.872 20.7466 19.1363 20.0781 19.3751C18.7486 19.8499 16.8557 20.1599 14.7239 20.1599C12.5921 20.1599 10.6992 19.8499 9.36965 19.3751C8.70117 19.1363 8.22074 18.872 7.92376 18.6212C7.62281 18.3671 7.6001 18.2094 7.6001 18.1652V16.4655C7.6001 16.21 7.8762 16.0454 8.10908 16.1507C8.32766 16.2494 8.55704 16.3411 8.79462 16.426C10.3528 16.9824 12.4492 17.3104 14.7239 17.3104C16.9986 17.3104 19.095 16.9824 20.6532 16.426Z" fill="white"/>
<path d="M20.6532 20.9852C20.8907 20.9003 21.1201 20.8087 21.3387 20.7099C21.5716 20.6047 21.8477 20.7692 21.8477 21.0247V22.7244C21.8477 22.7687 21.825 22.9263 21.524 23.1804C21.227 23.4312 20.7466 23.6956 20.0781 23.9343C18.7486 24.4091 16.8557 24.7191 14.7239 24.7191C12.5921 24.7191 10.6992 24.4091 9.36965 23.9343C8.70117 23.6956 8.22074 23.4312 7.92376 23.1804C7.62281 22.9263 7.6001 22.7687 7.6001 22.7244V21.0247C7.6001 20.7692 7.8762 20.6047 8.10908 20.7099C8.32766 20.8087 8.55704 20.9003 8.79462 20.9852C10.3528 21.5417 12.4492 21.8696 14.7239 21.8696C16.9986 21.8696 19.095 21.5417 20.6532 20.9852Z" fill="white"/>
<path d="M20.6532 25.5444C20.8907 25.4596 21.1201 25.3679 21.3387 25.2691C21.5716 25.1639 21.8477 25.3284 21.8477 25.584V27.2837C21.8477 27.3279 21.825 27.4856 21.524 27.7397C21.227 27.9904 20.7466 28.2548 20.0781 28.4935C18.7486 28.9684 16.8557 29.2783 14.7239 29.2783C12.5921 29.2783 10.6992 28.9684 9.36965 28.4935C8.70117 28.2548 8.22074 27.9904 7.92376 27.7397C7.62281 27.4856 7.6001 27.3279 7.6001 27.2837V25.584C7.6001 25.3284 7.8762 25.1639 8.10908 25.2691C8.32766 25.3679 8.55704 25.4596 8.79462 25.5444C10.3528 26.1009 12.4492 26.4288 14.7239 26.4288C16.9986 26.4288 19.095 26.1009 20.6532 25.5444Z" fill="white"/>
</svg>
