<svg width="38" height="38" viewBox="0 0 38 38" fill="none" xmlns="http://www.w3.org/2000/svg">
<rect width="38" height="38" rx="9.12" fill="#2176FF"/>
<path d="M20.8242 16.1284C20.9322 17.4695 21.4856 16.8914 21.5982 17.479C21.8761 18.8926 22.5054 18.6408 22.5054 19.4154C22.5054 20.2891 22.1976 20.85 21.3593 21.3402C25.8472 23.206 26.4513 23.5856 26.4513 25.2549V28.6735H32.6801C32.6801 28.6735 32.625 24.3182 32.308 23.868C31.8303 23.1946 30.7233 22.7329 28.6585 22.0194C26.6006 21.3059 25.9506 20.705 25.9506 19.4173C25.9506 18.6446 26.573 18.8945 26.8532 17.4809C26.9658 16.8914 27.5169 17.4695 27.6272 16.1303C27.6272 15.5961 27.3241 15.4626 27.3241 15.4626C27.3241 15.4626 27.4733 14.6728 27.5422 14.0642C27.6111 13.3068 27.0805 11.3457 24.2303 11.3457C21.38 11.3457 20.8449 13.3049 20.9184 14.0642C20.9781 14.6728 21.1365 15.4626 21.1365 15.4626C21.1365 15.4626 20.8242 15.5942 20.8242 16.1284Z" fill="#A2D0FF"/>
<path d="M24.4716 25.4882C24.4716 24.4881 22.1442 23.548 19.4076 22.5808C16.6892 21.6155 15.8135 20.8031 15.8135 19.0641C15.8135 18.0176 16.6504 18.36 17.0116 16.445C17.1602 15.6519 17.8986 16.4334 18.0403 14.6209C18.0403 13.8974 17.6357 13.7195 17.6357 13.7195C17.6357 13.7195 17.8414 12.6498 17.9214 11.8257C18.0198 10.8005 17.3111 8.15234 13.5251 8.15234C9.74366 8.15234 9.03717 10.8005 9.13319 11.8257C9.21092 12.6498 9.4145 13.7195 9.4145 13.7195C9.4145 13.7195 9.0143 13.8974 9.0143 14.6209C9.15605 16.4334 9.89224 15.6519 10.0431 16.445C10.4089 18.3619 11.2389 18.0196 11.2389 19.0641C11.2389 20.8031 10.3701 21.6175 7.64262 22.5808C6.81043 22.8748 5.31982 23.3294 5.31982 24.4242V28.6721H24.467C24.4716 28.6741 24.4716 26.1594 24.4716 25.4882Z" fill="white"/>
</svg>
