<svg width="38" height="38" viewBox="0 0 38 38" fill="none" xmlns="http://www.w3.org/2000/svg">
<rect width="38" height="38" rx="8.60377" fill="#2176FF"/>
<path d="M30.4317 23.3921V12.4142C30.4317 12.1906 30.3064 11.9849 30.1011 11.8731L21.596 7.34393C20.4379 6.70894 18.1389 7.93681 17.4775 9.01403C17.1845 9.49513 17.208 9.8434 17.208 10.0394L17.3098 20.2673C17.3192 20.4844 17.5841 20.7776 17.8113 20.9218C18.2784 21.2198 25.42 25.8284 25.6268 25.9596C25.7318 26.0276 25.8603 26.0617 25.9857 26.0617C26.0985 26.0617 26.2051 26.0357 26.3007 25.9855C26.517 25.877 26.6533 25.6648 26.6533 25.4348V14.6917C26.6533 14.4682 26.5232 14.2608 26.3211 14.1507L18.5918 9.69276C18.6795 9.51781 19.0227 9.14523 19.659 8.80505C20.3219 8.44382 20.8203 8.58151 20.9332 8.62525C20.9332 8.62525 28.3443 12.7284 28.5746 12.8499C28.8034 12.9714 28.8051 12.9892 28.8051 13.1982C28.8051 13.4071 28.8051 23.3921 28.8051 23.3921C28.8051 23.9007 29.3034 24.1081 29.6717 24.1081C30.04 24.1081 30.4317 23.7371 30.4317 23.3921Z" fill="#A2D0FF"/>
<path d="M22.2388 29.948C22.1821 30.3215 23.3602 30.9393 23.4779 29.8429C23.9863 24.8996 23.1104 23.4766 23.1104 23.4766L21.8901 24.2382C21.8887 24.2382 22.9244 25.3346 22.2388 29.948Z" fill="white"/>
<path d="M6.21857 22.5947L14.397 27.1386C15.0373 27.4944 16.0818 27.4944 16.7254 27.1386L22.0114 24.202L16.279 22.8696C16.0541 22.9229 15.813 22.9553 15.5604 22.9553C14.5289 22.9553 13.693 22.4605 13.693 21.8508C13.693 21.2396 14.5306 20.748 15.5604 20.748C16.3621 20.748 17.0464 21.0455 17.3104 21.4627L23.3802 23.4404L24.9005 22.5963C25.5442 22.2405 25.5442 21.6584 24.9005 21.301L16.7254 16.7571C16.0818 16.4013 15.0373 16.4013 14.397 16.7571L6.21857 21.301C5.57493 21.6568 5.57493 22.2389 6.21857 22.5947Z" fill="white"/>
<path d="M15.4918 31.337C16.265 31.337 17.1379 30.5313 19.109 29.6916C21.0802 28.8486 20.5541 28.5925 21.017 26.7574L15.4918 29.3803L8.79199 26.0977C9.25491 27.9327 9.84559 28.7368 11.8167 29.5781C13.7829 30.4194 14.717 31.337 15.4918 31.337Z" fill="white"/>
</svg>
