<svg width="38" height="38" viewBox="0 0 38 38" fill="none" xmlns="http://www.w3.org/2000/svg">
<rect width="38" height="38" rx="9.12" fill="#2176FF"/>
<path fill-rule="evenodd" clip-rule="evenodd" d="M6.81224 16.0581C6.03597 18.3172 5.41485 20.1757 5.43199 20.1883C5.55034 20.2752 8.60952 21.0226 8.6767 20.981C8.83303 20.8844 9.51944 19.3244 9.87489 18.258C10.623 16.0134 11.3587 12.9839 11.2122 12.7513C11.1582 12.6656 10.6673 12.5094 9.75749 12.2887C9.0023 12.1053 8.34818 11.9543 8.30405 11.9531C8.25983 11.9519 7.58858 13.7991 6.81224 16.0581ZM15.0164 13.4156C14.3216 13.472 13.324 13.5208 12.7996 13.524L11.8461 13.5299L11.5055 14.9287C11.0919 16.627 10.6728 18.0311 10.1582 19.4424C9.79838 20.4289 9.7807 20.511 9.90679 20.6098C10.2059 20.8443 11.2041 21.5041 11.2598 21.5041C11.2924 21.5041 11.4855 21.3745 11.6889 21.216C12.3575 20.6952 13.108 20.7869 13.7008 21.462C13.8457 21.627 13.9697 21.8727 13.9982 22.0509L14.0471 22.3566L14.6563 22.3844C15.183 22.4083 15.306 22.443 15.5646 22.6402C15.7291 22.7656 15.9331 22.9859 16.0179 23.1296C16.1542 23.3608 16.1948 23.3823 16.3691 23.316C16.6591 23.2058 17.1639 23.2247 17.4166 23.3555C17.889 23.5998 18.2946 24.2708 18.1998 24.6514C18.1827 24.7202 18.2803 24.7592 18.5009 24.7716C18.6806 24.7818 18.9293 24.8525 19.0536 24.9287C19.2036 25.0206 19.1663 24.9658 18.9431 24.766C18.7579 24.6004 18.6068 24.4266 18.6075 24.3799C18.6082 24.3332 18.6906 24.218 18.7907 24.124L18.9727 23.953L20.494 25.1366C21.9648 26.2809 22.0277 26.3202 22.3887 26.3202C22.7611 26.3202 23.4711 26.0367 23.6556 25.8144C23.7225 25.7338 23.5534 25.5733 22.8923 25.0896C21.1364 23.8048 20.0685 22.9921 20.0434 22.9215C20.0291 22.8814 20.0922 22.7437 20.1835 22.6154L20.3495 22.3822L21.2359 23.0416C21.7233 23.4041 22.6017 24.058 23.188 24.4946C24.193 25.2431 24.2759 25.2885 24.6393 25.2911C25.2511 25.2954 25.7144 24.9436 25.7144 24.4746C25.7144 24.2599 25.6421 24.1976 23.938 22.944C23.4169 22.5607 22.5916 21.9531 22.1039 21.5939L21.2173 20.9407L21.3885 20.7092C21.4827 20.5819 21.5974 20.4788 21.6435 20.4799C21.6896 20.4812 22.2604 20.8809 22.912 21.3682C25.3348 23.18 26.0995 23.7148 26.2679 23.7148C26.9818 23.7148 27.5165 22.7857 27.0369 22.3787C26.9392 22.2958 26.6994 22.0963 26.504 21.9354C26.3086 21.7744 25.971 21.4911 25.7539 21.3057C23.9298 19.7481 23.981 19.7855 23.5983 19.7293C22.1853 19.5218 20.6515 18.3522 20.0711 17.0397L19.893 16.6368L19.4043 16.7177L18.9157 16.7985L18.5655 17.4736C18.3729 17.8448 18.066 18.3222 17.8835 18.5344C17.1233 19.4183 15.8846 19.5556 15.2693 18.8244C15.0083 18.5143 14.998 18.2438 15.2145 17.3958C15.303 17.0488 15.4009 16.3055 15.436 15.7121C15.5259 14.1942 15.5796 14.1261 17.2665 13.3899C17.5387 13.2711 16.6768 13.281 15.0164 13.4156ZM19.477 25.2921C19.6783 25.5763 19.7352 26.0353 19.6114 26.3752C19.5542 26.5321 19.588 26.5607 19.9667 26.6761C20.525 26.8461 21.1604 26.9109 21.3315 26.8151C21.472 26.7364 21.3198 26.5996 19.6364 25.2923L19.2826 25.0175L19.477 25.2921Z" fill="white"/>
<path fill-rule="evenodd" clip-rule="evenodd" d="M27.6965 11.7848C27.284 12.0214 26.6711 12.3593 26.3345 12.5358C25.5286 12.9582 25.5198 12.9712 25.6868 13.4816C26.1559 14.9152 28.2332 18.6969 29.5157 20.4521C29.9974 21.1114 29.9564 21.1051 30.7481 20.6409C31.6338 20.1216 32.6226 19.5308 32.659 19.4993C32.6971 19.4662 28.6069 11.5117 28.496 11.4031C28.4688 11.3765 28.1091 11.5482 27.6965 11.7848ZM20.1474 12.7543C20.0121 12.7843 19.6923 12.9342 19.4368 13.0872C18.9735 13.3649 18.26 13.6967 17.093 14.1769C16.718 14.3311 16.4278 14.5053 16.3514 14.6219C16.2615 14.7592 16.2092 15.1201 16.1667 15.8958C16.1296 16.572 16.0446 17.2139 15.9401 17.6066C15.7741 18.2296 15.774 18.2363 15.9266 18.3889C16.1168 18.5791 16.6713 18.5889 17.0206 18.4082C17.4672 18.1773 18.1681 17.1069 18.3706 16.3465L18.4548 16.0307L19.1759 16.0122C19.7384 15.9978 19.9535 15.9588 20.1545 15.8346C20.5009 15.6204 20.5908 15.6339 20.5908 15.8997C20.5908 17.2519 22.5009 18.9914 23.9858 18.9914C24.2876 18.9914 24.4045 19.0754 25.9639 20.4126C26.8754 21.1942 27.6551 21.8337 27.6964 21.8337C27.7796 21.8337 28.8808 20.9049 28.8808 20.8346C28.8808 20.8103 28.5831 20.3235 28.2191 19.7527C26.9787 17.8074 25.889 15.8187 25.3581 14.5314C25.1381 13.9978 25.064 13.8926 24.8774 13.8486C24.7561 13.8199 24.2558 13.7032 23.7658 13.5891C23.2757 13.4749 22.4408 13.2452 21.9104 13.0785C20.8188 12.7354 20.4986 12.6765 20.1474 12.7543ZM12.3325 21.5882C12.198 21.6705 11.9582 21.8714 11.7996 22.0347C11.5662 22.2751 11.5112 22.3913 11.5112 22.6446C11.5112 22.9046 11.5648 23.0112 11.8275 23.2739C12.1049 23.5513 12.1751 23.5839 12.3978 23.5394C12.8891 23.4412 13.4061 22.7564 13.4061 22.2038C13.4061 21.9913 13.3495 21.879 13.1632 21.7223C13.0296 21.6099 12.8904 21.5179 12.8538 21.5179C12.8173 21.5179 12.74 21.5 12.6823 21.4783C12.6244 21.4565 12.467 21.506 12.3325 21.5882ZM14.2193 23.0628C13.8489 23.2519 13.1692 23.9996 13.1698 24.2173C13.1709 24.6147 13.6877 25.1285 14.164 25.2058C14.4389 25.2504 14.4739 25.2278 15.0239 24.6503C15.3393 24.3192 15.6152 23.9801 15.637 23.8967C15.6825 23.7226 15.5088 23.3245 15.3079 23.1427C15.0978 22.9525 14.5186 22.9101 14.2193 23.0628ZM16.5991 23.9533C16.353 24.1055 15.6287 25.0213 15.458 25.3964C15.3277 25.6823 15.4505 25.8829 15.8843 26.0929C16.4822 26.3823 16.7222 26.2323 17.267 25.2287C17.6335 24.5532 17.6654 24.2996 17.4129 24.064C17.148 23.8167 16.8793 23.7801 16.5991 23.9533ZM18.2858 25.4513C18.022 25.5573 17.1958 26.6546 17.1958 26.8993C17.1958 27.1137 17.5772 27.3604 17.9088 27.3604C18.15 27.3604 18.252 27.3079 18.451 27.0811C18.7615 26.7275 19.0907 26.0826 19.0907 25.8279C19.0907 25.498 18.6654 25.299 18.2858 25.4513Z" fill="#A2D0FF"/>
</svg>
