<svg width="31" height="31" viewBox="0 0 31 31" fill="none" xmlns="http://www.w3.org/2000/svg">
<rect width="31" height="31" rx="8" fill="#FFA60E"/>
<path d="M12.5003 8H17.8337C18.8114 8 19.6114 8.79412 19.6114 9.76471V10.6471H22.167C22.7193 10.6471 23.167 11.0948 23.167 11.6471V22C23.167 22.5523 22.7193 23 22.167 23H8.16699C7.61471 23 7.16699 22.5523 7.16699 22V11.6471C7.16699 11.0948 7.61471 10.6471 8.16699 10.6471H10.7225V9.76471C10.7225 8.79412 11.5225 8 12.5003 8ZM12.5003 10.2059C12.5003 10.4495 12.6978 10.6471 12.9415 10.6471H17.3925C17.6361 10.6471 17.8337 10.4495 17.8337 10.2059C17.8337 9.96223 17.6361 9.76471 17.3925 9.76471H12.9415C12.6978 9.76471 12.5003 9.96223 12.5003 10.2059Z" fill="white"/>
</svg>
