<svg width="31" height="31" viewBox="0 0 31 31" fill="none" xmlns="http://www.w3.org/2000/svg">
<rect width="31" height="31" rx="8" fill="#785CFF"/>
<path d="M11.3337 7.16602H18.8386C19.369 7.16602 19.8777 7.37673 20.2528 7.7518L23.2479 10.7469C23.6229 11.122 23.8337 11.6307 23.8337 12.1611V21.8327C23.8337 22.9373 22.9382 23.8327 21.8337 23.8327H9.16699C8.06242 23.8327 7.16699 22.9373 7.16699 21.8327V9.16602C7.16699 8.06145 8.06242 7.16602 9.16699 7.16602H11.3337ZM12.7503 14.916C12.4282 15.2382 12.4282 15.7605 12.7503 16.0827L13.417 16.7494C14.1073 17.4397 15.2266 17.4397 15.917 16.7493L18.2503 14.416C18.5725 14.0938 18.5725 13.5715 18.2503 13.2493C17.9282 12.9272 17.4058 12.9272 17.0837 13.2493L15.3337 14.9993C14.9655 15.3675 14.3685 15.3675 14.0003 14.9993L13.917 14.916C13.5948 14.5939 13.0725 14.5939 12.7503 14.916Z" fill="white"/>
</svg>
