<svg width="31" height="31" viewBox="0 0 31 31" fill="none" xmlns="http://www.w3.org/2000/svg">
<rect width="31" height="31" rx="8" fill="#EE4C16"/>
<path d="M8.5 10.834C8.5 9.72941 9.39543 8.83398 10.5 8.83398H20.5C21.6046 8.83398 22.5 9.72941 22.5 10.834V20.1673C22.5 21.2719 21.6046 22.1673 20.5 22.1673H10.5C9.39543 22.1673 8.5 21.2719 8.5 20.1673V10.834ZM12.7917 11.334C11.8712 11.334 11.125 12.0802 11.125 13.0007C11.125 13.9211 11.8712 14.6673 12.7917 14.6673H18.2083C19.1288 14.6673 19.875 13.9211 19.875 13.0007C19.875 12.0802 19.1288 11.334 18.2083 11.334H12.7917ZM12.7917 16.334C11.8712 16.334 11.125 17.0802 11.125 18.0007C11.125 18.9211 11.8712 19.6673 12.7917 19.6673H12.9583C13.8788 19.6673 14.625 18.9211 14.625 18.0007C14.625 17.0802 13.8788 16.334 12.9583 16.334H12.7917ZM18.0417 16.334C17.1212 16.334 16.375 17.0802 16.375 18.0007C16.375 18.9211 17.1212 19.6673 18.0417 19.6673H18.2083C19.1288 19.6673 19.875 18.9211 19.875 18.0007C19.875 17.0802 19.1288 16.334 18.2083 16.334H18.0417Z" fill="white"/>
</svg>
