<svg width="31" height="31" viewBox="0 0 31 31" fill="none" xmlns="http://www.w3.org/2000/svg">
<rect width="31" height="31" rx="8" fill="#EC5547"/>
<path d="M12.2917 23C11.7394 23 11.2917 22.5523 11.2917 22V9C11.2917 8.44772 11.7394 8 12.2917 8H15.5244C17.4906 8 18.9465 8.37115 19.8921 9.11345C20.8527 9.85574 21.333 10.9342 21.333 12.3487C21.333 13.3011 21.1004 14.1204 20.6351 14.8067C20.1698 15.479 19.4793 15.9972 18.5638 16.3613C17.6632 16.7255 16.545 16.9076 15.2092 16.9076H14.318C13.7657 16.9076 13.318 17.3553 13.318 17.9076V22C13.318 22.5523 12.8703 23 12.318 23H12.2917ZM10.0158 20.1429C9.63869 20.1429 9.33301 19.8372 9.33301 19.4601C9.33301 19.083 9.6387 18.7773 10.0158 18.7773H16.35C16.7271 18.7773 17.0328 19.083 17.0328 19.4601C17.0328 19.8372 16.7271 20.1429 16.35 20.1429H10.0158ZM10.1313 16.9076C9.69043 16.9076 9.33301 16.5501 9.33301 16.1092C9.33301 15.6683 9.69043 15.3109 10.1313 15.3109H13.6904C14.1313 15.3109 14.4887 15.6683 14.4887 16.1092C14.4887 16.5501 14.1313 16.9076 13.6904 16.9076H10.1313ZM14.9165 15.3109C15.8321 15.3109 16.6051 15.2199 17.2354 15.0378C17.8808 14.8557 18.3762 14.5546 18.7214 14.1345C19.0666 13.7143 19.2392 13.1401 19.2392 12.4118C19.2392 11.4594 18.924 10.7521 18.2936 10.2899C17.6632 9.82773 16.6801 9.59664 15.3443 9.59664H14.318C13.7657 9.59664 13.318 10.0444 13.318 10.5966V14.3109C13.318 14.8632 13.7657 15.3109 14.318 15.3109H14.9165Z" fill="white" stroke="white" stroke-width="0.5"/>
</svg>
