<svg width="31" height="31" viewBox="0 0 31 31" fill="none" xmlns="http://www.w3.org/2000/svg">
<rect width="31" height="31" rx="8" fill="#29D2B5"/>
<path d="M14.6036 8.98265C14.9705 8.23948 16.0302 8.23948 16.397 8.98265L17.8429 11.9118C17.9884 12.2066 18.2696 12.4111 18.595 12.4586L21.8299 12.9315C22.6498 13.0513 22.9766 14.0592 22.383 14.6373L20.0438 16.9157C19.8079 17.1454 19.7002 17.4766 19.7559 17.8011L20.3078 21.0186C20.4479 21.8356 19.5903 22.4586 18.8567 22.0728L15.9658 20.5525C15.6744 20.3992 15.3263 20.3992 15.0349 20.5525L12.144 22.0728C11.4103 22.4586 10.5528 21.8356 10.6929 21.0186L11.2447 17.8011C11.3004 17.4766 11.1927 17.1454 10.9569 16.9157L8.61767 14.6373C8.02408 14.0592 8.35086 13.0513 9.17078 12.9315L12.4057 12.4586C12.731 12.4111 13.0122 12.2066 13.1578 11.9118L14.6036 8.98265Z" fill="white"/>
</svg>
